SplineFontDB: 3.0
FontName: OvertheRainbow
FullName: Over the Rainbow
FamilyName: Over the Rainbow
Weight: Book
Copyright: Copyright (c) 2010, Kimberly Geswein (kimberlygeswein.com)
Version: 1.002 2010
ItalicAngle: 0
UnderlinePosition: -52
UnderlineWidth: 51
Ascent: 819
Descent: 205
sfntRevision: 0x00010083
LayerCount: 2
Layer: 0 1 "Back"  1
Layer: 1 1 "Fore"  0
XUID: [1021 288 713564382 13096858]
FSType: 0
OS2Version: 3
OS2_WeightWidthSlopeOnly: 0
OS2_UseTypoMetrics: 1
CreationTime: 1297244336
ModificationTime: 1303488484
PfmFamily: 17
TTFWeight: 400
TTFWidth: 5
LineGap: 0
VLineGap: 0
Panose: 2 0 0 0 0 0 0 0 0 0
OS2TypoAscent: 1412
OS2TypoAOffset: 0
OS2TypoDescent: -677
OS2TypoDOffset: 0
OS2TypoLinegap: 0
OS2WinAscent: 1412
OS2WinAOffset: 0
OS2WinDescent: 677
OS2WinDOffset: 0
HheadAscent: 1412
HheadAOffset: 0
HheadDescent: -677
HheadDOffset: 0
OS2SubXSize: 717
OS2SubYSize: 666
OS2SubXOff: 0
OS2SubYOff: 143
OS2SupXSize: 717
OS2SupYSize: 666
OS2SupXOff: 0
OS2SupYOff: 488
OS2StrikeYSize: 51
OS2StrikeYPos: 256
OS2Vendor: '    '
OS2CodePages: 00000093.00000000
OS2UnicodeRanges: a000002f.5000004a.00000000.00000000
MarkAttachClasses: 1
DEI: 91125
TtTable: prep
PUSHW_1
 511
SCANCTRL
PUSHB_1
 4
SCANTYPE
EndTTInstrs
TtTable: fpgm
PUSHW_1
 0
FDEF
MPPEM
PUSHW_1
 9
LT
IF
PUSHB_2
 1
 1
INSTCTRL
EIF
PUSHW_1
 511
SCANCTRL
PUSHW_1
 132
SCVTCI
PUSHW_2
 9
 3
SDS
SDB
ENDF
PUSHW_1
 1
FDEF
DUP
DUP
RCVT
ROUND[Black]
WCVTP
PUSHB_1
 1
ADD
ENDF
PUSHW_1
 2
FDEF
PUSHW_1
 1
LOOPCALL
POP
ENDF
PUSHW_1
 3
FDEF
DUP
GC[cur]
PUSHB_1
 3
CINDEX
GC[cur]
GT
IF
SWAP
EIF
DUP
ROLL
DUP
ROLL
MD[grid]
ABS
ROLL
DUP
GC[cur]
DUP
ROUND[Grey]
SUB
ABS
PUSHB_1
 4
CINDEX
GC[cur]
DUP
ROUND[Grey]
SUB
ABS
GT
IF
SWAP
NEG
ROLL
EIF
MDAP[rnd]
DUP
PUSHB_1
 0
GTEQ
IF
ROUND[Black]
DUP
PUSHB_1
 0
EQ
IF
POP
PUSHB_1
 64
EIF
ELSE
ROUND[Black]
DUP
PUSHB_1
 0
EQ
IF
POP
PUSHB_1
 64
NEG
EIF
EIF
MSIRP[no-rp0]
ENDF
PUSHW_1
 4
FDEF
DUP
GC[cur]
PUSHB_1
 4
CINDEX
GC[cur]
GT
IF
SWAP
ROLL
EIF
DUP
GC[cur]
DUP
ROUND[White]
SUB
ABS
PUSHB_1
 4

StartChar: exclam
Encoding: 33 33 4
Width: 382
Flags: W
LayerCount: 2
Fore
SplineSet
60 17 m 0,0,1
 54 41 54 41 61.5 56 c 128,-1,2
 69 71 69 71 81 77.5 c 128,-1,3
 93 84 93 84 106.5 82 c 128,-1,4
 120 80 120 80 125.5 70 c 128,-1,5
 131 60 131 60 125.5 42.5 c 128,-1,6
 120 25 120 25 95 0 c 0,7,8
 91 -4 91 -4 85 -2.5 c 128,-1,9
 79 -1 79 -1 74 2.5 c 128,-1,10
 69 6 69 6 65 10.5 c 128,-1,11
 61 15 61 15 60 17 c 0,0,1
78 278 m 0,12,13
 43 331 43 331 33.5 400.5 c 128,-1,14
 24 470 24 470 33 547 c 128,-1,15
 42 624 42 624 66.5 703.5 c 128,-1,16
 91 783 91 783 123 855.5 c 128,-1,17
 155 928 155 928 190.5 988.5 c 128,-1,18
 226 1049 226 1049 259 1087.5 c 128,-1,19
 292 1126 292 1126 317.5 1138.5 c 128,-1,20
 343 1151 343 1151 355 1128 c 0,21,22
 357 1126 357 1126 357 1119.5 c 128,-1,23
 357 1113 357 1113 355 1111 c 0,24,25
 297 1045 297 1045 244.5 965 c 128,-1,26
 192 885 192 885 154.5 798 c 128,-1,27
 117 711 117 711 100 618.5 c 128,-1,28
 83 526 83 526 95 434 c 0,29,30
 96 426 96 426 106.5 402 c 128,-1,31
 117 378 117 378 125.5 350 c 128,-1,32
 134 322 134 322 134 296.5 c 128,-1,33
 134 271 134 271 113 260 c 1,34,35
 100 255 100 255 91.5 262.5 c 128,-1,36
 83 270 83 270 78 278 c 0,12,13
EndSplineSet
EndChar

StartChar: quotedbl
Encoding: 34 34 5
Width: 312
Flags: W
LayerCount: 2
Fore
SplineSet
52 555 m 0,0,1
 48 568 48 568 44 596.5 c 128,-1,2
 40 625 40 625 38 659.5 c 128,-1,3
 36 694 36 694 37.5 731 c 128,-1,4
 39 768 39 768 44.5 798 c 128,-1,5
 50 828 50 828 60 847.5 c 128,-1,6
 70 867 70 867 87 867 c 0,7,8
 106 867 106 867 115.5 856.5 c 128,-1,9
 125 846 125 846 127 830 c 128,-1,10
 129 814 129 814 126 793.5 c 128,-1,11
 123 773 123 773 118.5 754 c 128,-1,12
 114 735 114 735 109.5 718.5 c 128,-1,13
 105 702 105 702 104 693 c 0,14,15
 103 685 103 685 100.5 663 c 128,-1,16
 98 641 98 641 95 616 c 128,-1,17
 92 591 92 591 90 569 c 128,-1,18
 88 547 88 547 87 538 c 1,19,20
 77 532 77 532 66 539 c 128,-1,21
 55 546 55 546 52 555 c 0,0,1
225 572 m 0,22,23
 218 601 218 601 214 634.5 c 128,-1,24
 210 668 210 668 208 702.5 c 128,-1,25
 206 737 206 737 206 770.5 c 128,-1,26
 206 804 206 804 208 833 c 1,27,28
 212 843 212 843 222 848 c 128,-1,29
 232 853 232 853 243 853 c 128,-1,30
 254 853 254 853 264 848 c 128,-1,31
 274 843 274 843 278 833 c 1,32,33
 278 826 278 826 279.5 804 c 128,-1,34
 281 782 281 782 282 752 c 128,-1,35
 283 722 283 722 282 688.5 c 128,-1,36
 281 655 281 655 277 626.5 c 128,-1,37
 273 598 273 598 265 578 c 128,-1,38
 257 558 257 558 243 555 c 1,39,40
 240 556 240 556 233 562.5 c 128,-1,41
 226 569 226 569 225 572 c 0,22,23
EndSplineSet
EndChar

StartChar: numbersign
Encoding: 35 35 6
Width: 816
Flags: W
LayerCount: 2
Fore
SplineSet
330 35 m 0,0,1
 332 44 332 44 337 68.5 c 128,-1,2
 342 93 342 93 347.5 121 c 128,-1,3
 353 149 353 149 358 173.5 c 128,-1,4
 363 198 363 198 365 208 c 0,5,6
 366 210 366 210 366 216.5 c 128,-1,7
 366 223 366 223 365 225 c 1,8,9
 360 226 360 226 339 223.5 c 128,-1,10
 318 221 318 221 295 215.5 c 128,-1,11
 272 210 272 210 253 203.5 c 128,-1,12
 234 197 234 197 234 190 c 2,13,-1
 234 52 l 1,14,-1
 190 52 l 1,15,-1
 157 173 l 2,16,17
 155 179 155 179 139 175 c 128,-1,18
 123 171 123 171 103 164.5 c 128,-1,19
 83 158 83 158 63.5 154 c 128,-1,20
 44 150 44 150 35 157 c 0,21,22
 18 168 18 168 20.5 178 c 128,-1,23
 23 188 23 188 37 198.5 c 128,-1,24
 51 209 51 209 72.5 220.5 c 128,-1,25
 94 232 94 232 115 245.5 c 128,-1,26
 136 259 136 259 152.5 275 c 128,-1,27
 169 291 169 291 174 312 c 0,28,29
 175 318 175 318 177.5 331.5 c 128,-1,30
 180 345 180 345 182.5 360 c 128,-1,31
 185 375 185 375 187.5 388.5 c 128,-1,32
 190 402 190 402 190 408 c 1,33,-1
 35 408 l 1,34,-1
 17 434 l 1,35,36
 29 452 29 452 46.5 458.5 c 128,-1,37
 64 465 64 465 84 466.5 c 128,-1,38
 104 468 104 468 125 467 c 128,-1,39
 146 466 146 466 165 468 c 128,-1,40
 184 470 184 470 200 477.5 c 128,-1,41
 216 485 216 485 225 504 c 0,42,43
 228 508 228 508 234.5 522.5 c 128,-1,44
 241 537 241 537 250 556.5 c 128,-1,45
 259 576 259 576 269 598.5 c 128,-1,46
 279 621 279 621 287.5 640.5 c 128,-1,47
 296 660 296 660 302.5 674.5 c 128,-1,48
 309 689 309 689 312 694 c 0,49,50
 325 716 325 716 338.5 740 c 128,-1,51
 352 764 352 764 368.5 786 c 128,-1,52
 385 808 385 808 405.5 825 c 128,-1,53
 426 842 426 842 452 851 c 0,54,55
 463 855 463 855 472 849.5 c 128,-1,56
 481 844 481 844 486 834 c 1,57,58
 419 763 419 763 372.5 678.5 c 128,-1,59
 326 594 326 594 295 504 c 1,60,61
 305 503 305 503 332 503 c 128,-1,62
 359 503 359 503 388.5 505 c 128,-1,63
 418 507 418 507 442 510.5 c 128,-1,64
 466 514 466 514 469 520 c 2,65,-1
 625 816 l 2,66,67
 626 818 626 818 633 825 c 128,-1,68
 640 832 640 832 648 840.5 c 128,-1,69
 656 849 656 849 664 856.5 c 128,-1,70
 672 864 672 864 677 867 c 0,71,72
 679 869 679 869 685.5 869 c 128,-1,73
 692 869 692 869 694 867 c 1,74,-1
 694 816 l 1,75,-1
 555 555 l 1,76,-1
 538 538 l 1,77,78
 558 535 558 535 577.5 538 c 128,-1,79
 597 541 597 541 616 546 c 128,-1,80
 635 551 635 551 654 554.5 c 128,-1,81
 673 558 673 558 694 555 c 1,82,83
 702 532 702 532 693 522 c 128,-1,84
 684 512 684 512 664 505.5 c 128,-1,85
 644 499 644 499 617 492 c 128,-1,86
 590 485 590 485 562.5 467.5 c 128,-1,87
 535 450 535 450 510 418 c 128,-1,88
 485 386 485 386 469 330 c 0,89,90
 468 328 468 328 468 321 c 128,-1,91
 468 314 468 314 469 312 c 1,92,93
 508 307 508 307 547 313.5 c 128,-1,94
 586 320 586 320 625 329 c 128,-1,95
 664 338 664 338 703 345 c 128,-1,96
 742 352 742 352 781 347 c 1,97,-1
 781 295 l 1,98,-1
 452 243 l 2,99,100
 444 242 444 242 437 220.5 c 128,-1,101
 430 199 430 199 422 168 c 128,-1,102
 414 137 414 137 406 102 c 128,-1,103
 398 67 398 67 389 40.5 c 128,-1,104
 380 14 380 14 369.5 1 c 128,-1,105
 359 -12 359 -12 347 0 c 0,106,107
 345 1 345 1 342.5 6 c 128,-1,108
 340 11 340 11 337 16 c 2,109,-1
 332 27 l 2,110,111
 330 33 330 33 330 35 c 0,0,1
225 260 m 1,112,113
 265 264 265 264 306.5 274.5 c 128,-1,114
 348 285 348 285 380 306.5 c 128,-1,115
 412 328 412 328 428.5 363 c 128,-1,116
 445 398 445 398 434 452 c 1,117,118
 380 448 380 448 345.5 442 c 128,-1,119
 311 436 311 436 288.5 420.5 c 128,-1,120
 266 405 266 405 252 375.5 c 128,-1,121
 238 346 238 346 225 295 c 1,122,-1
 225 260 l 1,112,113
EndSplineSet
EndChar

StartChar: dollar
Encoding: 36 36 7
Width: 677
Flags: W
LayerCount: 2
Fore
SplineSet
338 17 m 0,0,1
 336 19 336 19 329.5 26 c 128,-1,2
 323 33 323 33 321 35 c 1,3,4
 320 59 320 59 320 86 c 128,-1,5
 320 113 320 113 317.5 140.5 c 128,-1,6
 315 168 315 168 308 194 c 128,-1,7
 301 220 301 220 286 243 c 0,8,9
 272 264 272 264 251.5 280 c 128,-1,10
 231 296 231 296 208.5 310 c 128,-1,11
 186 324 186 324 163.5 338.5 c 128,-1,12
 141 353 141 353 122.5 371 c 128,-1,13
 104 389 104 389 92 412.5 c 128,-1,14
 80 436 80 436 78 469 c 0,15,16
 76 492 76 492 75.5 529.5 c 128,-1,17
 75 567 75 567 75 603 c 128,-1,18
 75 639 75 639 75.5 665.5 c 128,-1,19
 76 692 76 692 78 694 c 2,20,-1
 95 712 l 1,21,22
 42 763 42 763 30 813 c 128,-1,23
 18 863 18 863 37 901 c 128,-1,24
 56 939 56 939 103 959.5 c 128,-1,25
 150 980 150 980 216 972 c 1,26,-1
 216 1111 l 1,27,28
 238 1118 238 1118 250 1111 c 128,-1,29
 262 1104 262 1104 268 1087.5 c 128,-1,30
 274 1071 274 1071 275.5 1049.5 c 128,-1,31
 277 1028 277 1028 277.5 1006 c 128,-1,32
 278 984 278 984 279.5 965.5 c 128,-1,33
 281 947 281 947 286 937 c 0,34,35
 292 926 292 926 306 910.5 c 128,-1,36
 320 895 320 895 337 876.5 c 128,-1,37
 354 858 354 858 369.5 837.5 c 128,-1,38
 385 817 385 817 395 795.5 c 128,-1,39
 405 774 405 774 405 753 c 128,-1,40
 405 732 405 732 390 712 c 1,41,42
 375 753 375 753 348 796 c 128,-1,43
 321 839 321 839 286 867 c 1,44,45
 282 810 282 810 288.5 744.5 c 128,-1,46
 295 679 295 679 303 625 c 1,47,48
 305 623 305 623 311.5 616 c 128,-1,49
 318 609 318 609 321 607 c 0,50,51
 384 567 384 567 449 525 c 128,-1,52
 514 483 514 483 564 442.5 c 128,-1,53
 614 402 614 402 640 365 c 128,-1,54
 666 328 666 328 650.5 298.5 c 128,-1,55
 635 269 635 269 570 249.5 c 128,-1,56
 505 230 505 230 373 225 c 1,57,58
 372 216 372 216 376 192.5 c 128,-1,59
 380 169 380 169 384 140.5 c 128,-1,60
 388 112 388 112 390.5 83 c 128,-1,61
 393 54 393 54 389.5 34 c 128,-1,62
 386 14 386 14 374 7.5 c 128,-1,63
 362 1 362 1 338 17 c 0,0,1
355 312 m 0,64,65
 357 310 357 310 364 303.5 c 128,-1,66
 371 297 371 297 373 295 c 1,67,68
 480 286 480 286 531.5 294 c 128,-1,69
 583 302 583 302 594 322 c 128,-1,70
 605 342 605 342 582 370.5 c 128,-1,71
 559 399 559 399 517.5 431 c 128,-1,72
 476 463 476 463 423 495.5 c 128,-1,73
 370 528 370 528 321 555 c 1,74,75
 318 525 318 525 316.5 493 c 128,-1,76
 315 461 315 461 318 429.5 c 128,-1,77
 321 398 321 398 329.5 367.5 c 128,-1,78
 338 337 338 337 355 312 c 0,64,65
233 347 m 0,79,80
 242 342 242 342 257 333.5 c 128,-1,81
 272 325 272 325 286 330 c 1,82,83
 287 334 287 334 287 347 c 128,-1,84
 287 360 287 360 286 365 c 0,85,86
 284 376 284 376 279.5 405.5 c 128,-1,87
 275 435 275 435 269.5 468.5 c 128,-1,88
 264 502 264 502 258.5 531.5 c 128,-1,89
 253 561 253 561 251 572 c 1,90,91
 225 603 225 603 194 629 c 128,-1,92
 163 655 163 655 130 677 c 1,93,94
 104 634 104 634 103 585.5 c 128,-1,95
 102 537 102 537 118 492 c 128,-1,96
 134 447 134 447 164.5 408.5 c 128,-1,97
 195 370 195 370 233 347 c 0,79,80
130 746 m 0,98,99
 134 742 134 742 145.5 732.5 c 128,-1,100
 157 723 157 723 171 711.5 c 128,-1,101
 185 700 185 700 197.5 690.5 c 128,-1,102
 210 681 210 681 216 677 c 0,103,104
 218 675 218 675 224.5 675 c 128,-1,105
 231 675 231 675 233 677 c 1,106,107
 238 734 238 734 233 790 c 128,-1,108
 228 846 228 846 216 902 c 1,109,110
 189 921 189 921 166.5 923 c 128,-1,111
 144 925 144 925 127 915 c 128,-1,112
 110 905 110 905 100.5 885.5 c 128,-1,113
 91 866 91 866 90.5 842 c 128,-1,114
 90 818 90 818 99 793 c 128,-1,115
 108 768 108 768 130 746 c 0,98,99
113 702 m 0,116,117
 105 702 105 702 105 693.5 c 128,-1,118
 105 685 105 685 113 685 c 0,119,120
 119 685 119 685 119 693.5 c 128,-1,121
 119 702 119 702 113 702 c 0,116,117
EndSplineSet
EndChar

StartChar: percent
Encoding: 37 37 8
Width: 1050
Flags: W
LayerCount: 2
Fore
SplineSet
417 17 m 0,0,1
 360 57 360 57 336 115 c 128,-1,2
 312 173 312 173 310.5 236.5 c 128,-1,3
 309 300 309 300 325 365 c 128,-1,4
 341 430 341 430 365 486 c 1,5,6
 362 487 362 487 342.5 475 c 128,-1,7
 323 463 323 463 299 447 c 128,-1,8
 275 431 275 431 253 416.5 c 128,-1,9
 231 402 231 402 225 399 c 0,10,11
 207 392 207 392 182 388 c 128,-1,12
 157 384 157 384 131 384.5 c 128,-1,13
 105 385 105 385 81.5 391.5 c 128,-1,14
 58 398 58 398 43 411.5 c 128,-1,15
 28 425 28 425 24 447.5 c 128,-1,16
 20 470 20 470 35 504 c 0,17,18
 36 506 36 506 43.5 513.5 c 128,-1,19
 51 521 51 521 60 529.5 c 128,-1,20
 69 538 69 538 77 545.5 c 128,-1,21
 85 553 85 553 87 555 c 1,22,-1
 90 562 l 2,23,24
 93 567 93 567 96 572.5 c 128,-1,25
 99 578 99 578 101 583 c 128,-1,26
 103 588 103 588 104 590 c 1,27,28
 144 594 144 594 185 583.5 c 128,-1,29
 226 573 226 573 265 560 c 128,-1,30
 304 547 304 547 338 538.5 c 128,-1,31
 372 530 372 530 399 538 c 1,32,33
 407 548 407 548 424 567.5 c 128,-1,34
 441 587 441 587 463 611.5 c 128,-1,35
 485 636 485 636 509.5 662.5 c 128,-1,36
 534 689 534 689 556.5 712.5 c 128,-1,37
 579 736 579 736 597.5 754.5 c 128,-1,38
 616 773 616 773 625 781 c 0,39,40
 677 828 677 828 733.5 853 c 128,-1,41
 790 878 790 878 839 884 c 128,-1,42
 888 890 888 890 924.5 879 c 128,-1,43
 961 868 961 868 973 843.5 c 128,-1,44
 985 819 985 819 968.5 783 c 128,-1,45
 952 747 952 747 894.5 702.5 c 128,-1,46
 837 658 837 658 733.5 607.5 c 128,-1,47
 630 557 630 557 469 504 c 0,48,49
 444 495 444 495 424.5 461.5 c 128,-1,50
 405 428 405 428 393 381 c 128,-1,51
 381 334 381 334 377 280.5 c 128,-1,52
 373 227 373 227 379.5 179.5 c 128,-1,53
 386 132 386 132 403.5 97 c 128,-1,54
 421 62 421 62 452 52 c 0,55,56
 476 44 476 44 507 45.5 c 128,-1,57
 538 47 538 47 569 55 c 128,-1,58
 600 63 600 63 628.5 76 c 128,-1,59
 657 89 657 89 677 104 c 0,60,61
 717 134 717 134 730.5 160.5 c 128,-1,62
 744 187 744 187 744 210.5 c 128,-1,63
 744 234 744 234 737 256.5 c 128,-1,64
 730 279 730 279 728.5 299.5 c 128,-1,65
 727 320 727 320 737 340.5 c 128,-1,66
 747 361 747 361 781 382 c 1,67,68
 817 403 817 403 862.5 407 c 128,-1,69
 908 411 908 411 945.5 397 c 128,-1,70
 983 383 983 383 1003 349 c 128,-1,71
 1023 315 1023 315 1007 260 c 0,72,73
 1003 245 1003 245 988.5 234 c 128,-1,74
 974 223 974 223 954.5 214.5 c 128,-1,75
 935 206 935 206 913 199.5 c 128,-1,76
 891 193 891 193 871.5 188 c 128,-1,77
 852 183 852 183 836.5 179.5 c 128,-1,78
 821 176 821 176 816 173 c 0,79,80
 814 172 814 172 809 164 c 2,81,-1
 798 148 l 2,82,83
 792 139 792 139 787 131 c 128,-1,84
 782 123 782 123 781 122 c 0,85,86
 754 95 754 95 708.5 64.5 c 128,-1,87
 663 34 663 34 611 14.5 c 128,-1,88
 559 -5 559 -5 507.5 -8 c 128,-1,89
 456 -11 456 -11 417 17 c 0,0,1
521 590 m 0,90,91
 519 588 519 588 516 583.5 c 128,-1,92
 513 579 513 579 510.5 573.5 c 128,-1,93
 508 568 508 568 506 562.5 c 128,-1,94
 504 557 504 557 504 555 c 1,95,96
 508 554 508 554 520.5 554 c 128,-1,97
 533 554 533 554 538 555 c 0,98,99
 549 558 549 558 572.5 565.5 c 128,-1,100
 596 573 596 573 621 581.5 c 128,-1,101
 646 590 646 590 667 597 c 128,-1,102
 688 604 688 604 694 607 c 0,103,104
 796 652 796 652 847.5 696 c 128,-1,105
 899 740 899 740 910 771.5 c 128,-1,106
 921 803 921 803 895 816 c 128,-1,107
 869 829 869 829 816 812 c 128,-1,108
 763 795 763 795 687 742.5 c 128,-1,109
 611 690 611 690 521 590 c 0,90,91
816 278 m 0,110,111
 849 245 849 245 876.5 243 c 128,-1,112
 904 241 904 241 921.5 255.5 c 128,-1,113
 939 270 939 270 944.5 293.5 c 128,-1,114
 950 317 950 317 939 333.5 c 128,-1,115
 928 350 928 350 898.5 353 c 128,-1,116
 869 356 869 356 816 330 c 0,117,118
 795 319 795 319 797.5 306.5 c 128,-1,119
 800 294 800 294 816 278 c 0,110,111
104 486 m 0,120,121
 103 483 103 483 102.5 475.5 c 128,-1,122
 102 468 102 468 102 459.5 c 128,-1,123
 102 451 102 451 102.5 444 c 128,-1,124
 103 437 103 437 104 434 c 1,125,126
 155 426 155 426 192 435.5 c 128,-1,127
 229 445 229 445 260 486 c 1,128,129
 256 487 256 487 233 493.5 c 128,-1,130
 210 500 210 500 183 504 c 128,-1,131
 156 508 156 508 132 505.5 c 128,-1,132
 108 503 108 503 104 486 c 0,120,121
243 538 m 0,133,134
 244 542 244 542 241 544 c 128,-1,135
 238 546 238 546 234.5 546 c 128,-1,136
 231 546 231 546 227.5 544 c 128,-1,137
 224 542 224 542 225 538 c 0,138,139
 227 530 227 530 234 530 c 128,-1,140
 241 530 241 530 243 538 c 0,133,134
EndSplineSet
EndChar

StartChar: ampersand
Encoding: 38 38 9
Width: 807
Flags: W
LayerCount: 2
Fore
SplineSet
78 17 m 0,0,1
 46 35 46 35 34 58.5 c 128,-1,2
 22 82 22 82 24.5 107.5 c 128,-1,3
 27 133 27 133 41 158.5 c 128,-1,4
 55 184 55 184 75.5 207 c 128,-1,5
 96 230 96 230 119.5 248.5 c 128,-1,6
 143 267 143 267 165 278 c 0,7,8
 175 283 175 283 202 295.5 c 128,-1,9
 229 308 229 308 259.5 322 c 128,-1,10
 290 336 290 336 317 348 c 128,-1,11
 344 360 344 360 355 365 c 1,12,13
 354 383 354 383 353.5 427 c 128,-1,14
 353 471 353 471 353 521 c 128,-1,15
 353 571 353 571 353.5 615 c 128,-1,16
 354 659 354 659 355 677 c 0,17,18
 355 686 355 686 357.5 701 c 128,-1,19
 360 716 360 716 363 730 c 128,-1,20
 366 744 366 744 368.5 754 c 128,-1,21
 371 764 371 764 373 764 c 2,22,-1
 425 764 l 1,23,24
 423 733 423 733 421.5 686.5 c 128,-1,25
 420 640 420 640 420.5 589 c 128,-1,26
 421 538 421 538 426 488 c 128,-1,27
 431 438 431 438 442 399 c 1,28,29
 444 398 444 398 466.5 401.5 c 128,-1,30
 489 405 489 405 521 411.5 c 128,-1,31
 553 418 553 418 589.5 428 c 128,-1,32
 626 438 626 438 655.5 450 c 128,-1,33
 685 462 685 462 703.5 476 c 128,-1,34
 722 490 722 490 718 505.5 c 128,-1,35
 714 521 714 521 682.5 538 c 128,-1,36
 651 555 651 555 581 572 c 0,37,38
 573 574 573 574 568.5 580.5 c 128,-1,39
 564 587 564 587 562 595 c 128,-1,40
 560 603 560 603 560.5 611 c 128,-1,41
 561 619 561 619 563 625 c 1,42,43
 583 629 583 629 615.5 623 c 128,-1,44
 648 617 648 617 681.5 604.5 c 128,-1,45
 715 592 715 592 744.5 574.5 c 128,-1,46
 774 557 774 557 788.5 538.5 c 128,-1,47
 803 520 803 520 797 501.5 c 128,-1,48
 791 483 791 483 755 469 c 2,49,-1
 442 347 l 2,50,51
 438 345 438 345 431.5 324 c 128,-1,52
 425 303 425 303 415.5 270 c 128,-1,53
 406 237 406 237 391.5 197 c 128,-1,54
 377 157 377 157 357 119 c 128,-1,55
 337 81 337 81 310.5 49.5 c 128,-1,56
 284 18 284 18 249.5 0.5 c 128,-1,57
 215 -17 215 -17 172.5 -15 c 128,-1,58
 130 -13 130 -13 78 17 c 0,0,1
78 87 m 0,59,60
 80 83 80 83 85 77 c 2,61,-1
 106 56 l 2,62,63
 111 52 111 52 113 52 c 0,64,65
 175 36 175 36 223.5 54.5 c 128,-1,66
 272 73 272 73 303.5 112 c 128,-1,67
 335 151 335 151 348.5 204.5 c 128,-1,68
 362 258 362 258 355 312 c 1,69,70
 341 317 341 317 312 307 c 128,-1,71
 283 297 283 297 248.5 278 c 128,-1,72
 214 259 214 259 178.5 233.5 c 128,-1,73
 143 208 143 208 117 181.5 c 128,-1,74
 91 155 91 155 78.5 130 c 128,-1,75
 66 105 66 105 78 87 c 0,59,60
EndSplineSet
EndChar

StartChar: quotesingle
Encoding: 39 39 10
Width: 157
Flags: W
LayerCount: 2
Fore
SplineSet
43 746 m 1,0,1
 38 760 38 760 33.5 794 c 128,-1,2
 29 828 29 828 26.5 870 c 128,-1,3
 24 912 24 912 26 956 c 128,-1,4
 28 1000 28 1000 37 1034 c 128,-1,5
 46 1068 46 1068 64.5 1086 c 128,-1,6
 83 1104 83 1104 113 1094 c 1,7,8
 113 1088 113 1088 113.5 1073 c 128,-1,9
 114 1058 114 1058 114 1041.5 c 128,-1,10
 114 1025 114 1025 113.5 1010 c 128,-1,11
 113 995 113 995 113 989 c 0,12,13
 111 972 111 972 108 947.5 c 128,-1,14
 105 923 105 923 101 896.5 c 128,-1,15
 97 870 97 870 93.5 843.5 c 128,-1,16
 90 817 90 817 86.5 795.5 c 128,-1,17
 83 774 83 774 81 760.5 c 128,-1,18
 79 747 79 747 78 746 c 2,19,-1
 60 729 l 1,20,-1
 43 746 l 1,0,1
EndSplineSet
EndChar

StartChar: parenleft
Encoding: 40 40 11
Width: 408
Flags: W
LayerCount: 2
Fore
SplineSet
260 35 m 0,0,1
 160 75 160 75 105.5 133.5 c 128,-1,2
 51 192 51 192 31 262 c 128,-1,3
 11 332 11 332 20 409 c 128,-1,4
 29 486 29 486 56.5 563.5 c 128,-1,5
 84 641 84 641 124.5 714.5 c 128,-1,6
 165 788 165 788 208 851 c 0,7,8
 222 870 222 870 233 883 c 128,-1,9
 244 896 244 896 255.5 900.5 c 128,-1,10
 267 905 267 905 280.5 901.5 c 128,-1,11
 294 898 294 898 312 885 c 1,12,13
 279 839 279 839 239 779.5 c 128,-1,14
 199 720 199 720 164 653.5 c 128,-1,15
 129 587 129 587 104 517.5 c 128,-1,16
 79 448 79 448 76.5 380.5 c 128,-1,17
 74 313 74 313 99.5 251 c 128,-1,18
 125 189 125 189 190 139 c 0,19,20
 194 136 194 136 213 126 c 128,-1,21
 232 116 232 116 256.5 103.5 c 128,-1,22
 281 91 281 91 307 76 c 128,-1,23
 333 61 333 61 351 46.5 c 128,-1,24
 369 32 369 32 374.5 20 c 128,-1,25
 380 8 380 8 365 0 c 1,26,27
 359 1 359 1 344 6 c 2,28,-1
 312 16 l 2,29,30
 296 22 296 22 281 27.5 c 128,-1,31
 266 33 266 33 260 35 c 0,0,1
EndSplineSet
EndChar

StartChar: parenright
Encoding: 41 41 12
Width: 469
Flags: W
LayerCount: 2
Fore
SplineSet
17 17 m 0,0,1
 17 23 17 23 24 36 c 128,-1,2
 31 49 31 49 35 52 c 0,3,4
 146 133 146 133 224.5 214 c 128,-1,5
 303 295 303 295 341.5 389 c 128,-1,6
 380 483 380 483 374.5 595.5 c 128,-1,7
 369 708 369 708 312 851 c 1,8,-1
 302 870 l 2,9,10
 295 885 295 885 286 902.5 c 128,-1,11
 277 920 277 920 269 935 c 2,12,-1
 260 954 l 2,13,14
 259 956 259 956 259 963 c 128,-1,15
 259 970 259 970 260 972 c 1,16,17
 272 978 272 978 282 976 c 128,-1,18
 292 974 292 974 301 968 c 128,-1,19
 310 962 310 962 317.5 953.5 c 128,-1,20
 325 945 325 945 330 937 c 0,21,22
 400 820 400 820 422 705.5 c 128,-1,23
 444 591 444 591 422.5 483 c 128,-1,24
 401 375 401 375 337.5 275 c 128,-1,25
 274 175 274 175 174 87 c 0,26,27
 172 85 172 85 159 76.5 c 128,-1,28
 146 68 146 68 129.5 57 c 128,-1,29
 113 46 113 46 96 34.5 c 128,-1,30
 79 23 79 23 70 17 c 0,31,32
 54 6 54 6 43 2 c 0,33,34
 33 -2 33 -2 25 0 c 128,-1,35
 17 2 17 2 17 17 c 0,0,1
EndSplineSet
EndChar

StartChar: asterisk
Encoding: 42 42 13
Width: 512
Flags: W
LayerCount: 2
Fore
SplineSet
70 17 m 0,0,1
 69 21 69 21 68.5 29.5 c 128,-1,2
 68 38 68 38 68 46.5 c 128,-1,3
 68 55 68 55 68.5 61.5 c 128,-1,4
 69 68 69 68 70 70 c 2,5,-1
 157 190 l 1,6,-1
 157 208 l 1,7,8
 155 208 155 208 136 207.5 c 128,-1,9
 117 207 117 207 93.5 209.5 c 128,-1,10
 70 212 70 212 47.5 219.5 c 128,-1,11
 25 227 25 227 17 243 c 0,12,13
 13 250 13 250 16.5 259.5 c 128,-1,14
 20 269 20 269 27 276.5 c 128,-1,15
 34 284 34 284 41 289.5 c 128,-1,16
 48 295 48 295 52 295 c 2,17,-1
 190 295 l 2,18,19
 191 295 191 295 193.5 301 c 128,-1,20
 196 307 196 307 199 315.5 c 128,-1,21
 202 324 202 324 204.5 332.5 c 128,-1,22
 207 341 207 341 208 347 c 0,23,24
 209 354 209 354 212 371.5 c 128,-1,25
 215 389 215 389 217.5 408.5 c 128,-1,26
 220 428 220 428 222.5 445 c 128,-1,27
 225 462 225 462 225 469 c 1,28,29
 240 480 240 480 251 484 c 0,30,31
 261 488 261 488 269.5 486 c 128,-1,32
 278 484 278 484 278 469 c 2,33,-1
 278 330 l 2,34,35
 278 313 278 313 290 310.5 c 128,-1,36
 302 308 302 308 320.5 313.5 c 128,-1,37
 339 319 339 319 362.5 329 c 128,-1,38
 386 339 386 339 409.5 348.5 c 128,-1,39
 433 358 433 358 453 363.5 c 128,-1,40
 473 369 473 369 486 365 c 1,41,42
 491 357 491 357 486.5 348 c 128,-1,43
 482 339 482 339 474.5 331 c 128,-1,44
 467 323 467 323 459 317 c 2,45,-1
 452 312 l 2,46,47
 443 306 443 306 421 291 c 128,-1,48
 399 276 399 276 374 259.5 c 128,-1,49
 349 243 349 243 326.5 228.5 c 128,-1,50
 304 214 304 214 295 208 c 1,51,52
 290 187 290 187 294.5 167.5 c 128,-1,53
 299 148 299 148 306 130 c 128,-1,54
 313 112 313 112 320 96 c 128,-1,55
 327 80 327 80 327 65.5 c 128,-1,56
 327 51 327 51 316.5 39 c 128,-1,57
 306 27 306 27 278 17 c 1,58,-1
 225 122 l 2,59,60
 215 142 215 142 202 133.5 c 128,-1,61
 189 125 189 125 174 103.5 c 128,-1,62
 159 82 159 82 143.5 55 c 128,-1,63
 128 28 128 28 114 10 c 128,-1,64
 100 -8 100 -8 88.5 -10 c 128,-1,65
 77 -12 77 -12 70 17 c 0,0,1
EndSplineSet
EndChar

StartChar: plus
Encoding: 43 43 14
Width: 834
Flags: W
LayerCount: 2
Fore
SplineSet
321 122 m 0,0,1
 324 167 324 167 333 216 c 128,-1,2
 342 265 342 265 338 312 c 1,3,4
 307 320 307 320 278.5 314.5 c 128,-1,5
 250 309 250 309 222 296.5 c 128,-1,6
 194 284 194 284 167.5 268.5 c 128,-1,7
 141 253 141 253 114.5 241 c 128,-1,8
 88 229 88 229 61.5 223 c 128,-1,9
 35 217 35 217 8 225 c 1,10,11
 1 236 1 236 8.5 248 c 128,-1,12
 16 260 16 260 29 269.5 c 128,-1,13
 42 279 42 279 56.5 286 c 128,-1,14
 71 293 71 293 78 295 c 0,15,16
 88 298 88 298 108 303.5 c 128,-1,17
 128 309 128 309 154 316 c 128,-1,18
 180 323 180 323 208 330.5 c 128,-1,19
 236 338 236 338 262 345 c 128,-1,20
 288 352 288 352 308 357 c 128,-1,21
 328 362 328 362 338 365 c 1,22,23
 340 378 340 378 341 403 c 128,-1,24
 342 428 342 428 345 456 c 128,-1,25
 348 484 348 484 354.5 510.5 c 128,-1,26
 361 537 361 537 373 555 c 0,27,28
 375 559 375 559 381.5 565.5 c 128,-1,29
 388 572 388 572 390 572 c 0,30,31
 394 572 394 572 400 570 c 128,-1,32
 406 568 406 568 411.5 565.5 c 128,-1,33
 417 563 417 563 421 560 c 128,-1,34
 425 557 425 557 425 555 c 2,35,-1
 425 382 l 1,36,37
 435 381 435 381 469.5 385.5 c 128,-1,38
 504 390 504 390 549 395.5 c 128,-1,39
 594 401 594 401 642.5 405 c 128,-1,40
 691 409 691 409 730 407.5 c 128,-1,41
 769 406 769 406 791.5 396.5 c 128,-1,42
 814 387 814 387 807 365 c 0,43,44
 806 362 806 362 799.5 355.5 c 128,-1,45
 793 349 793 349 790 347 c 1,46,47
 781 347 781 347 758.5 347.5 c 128,-1,48
 736 348 736 348 711 348 c 128,-1,49
 686 348 686 348 664 347.5 c 128,-1,50
 642 347 642 347 633 347 c 0,51,52
 610 346 610 346 575 343.5 c 128,-1,53
 540 341 540 341 507 338.5 c 128,-1,54
 474 336 474 336 450 333.5 c 128,-1,55
 426 331 426 331 425 330 c 2,56,-1
 408 312 l 1,57,-1
 405 297 l 2,58,59
 403 283 403 283 400 260.5 c 128,-1,60
 397 238 397 238 393 209 c 2,61,-1
 385 152 l 2,62,63
 381 124 381 124 378 97.5 c 128,-1,64
 375 71 375 71 373 52 c 0,65,66
 372 40 372 40 371 27.5 c 128,-1,67
 370 15 370 15 365 7 c 128,-1,68
 360 -1 360 -1 350 -3.5 c 128,-1,69
 340 -6 340 -6 321 0 c 1,70,71
 320 7 320 7 319.5 24 c 128,-1,72
 319 41 319 41 319 60.5 c 128,-1,73
 319 80 319 80 319.5 97.5 c 128,-1,74
 320 115 320 115 321 122 c 0,0,1
EndSplineSet
EndChar

StartChar: comma
Encoding: 44 44 15
Width: 295
Flags: W
LayerCount: 2
Fore
SplineSet
-9 -245 m 0,0,1
 -17 -234 -17 -234 -16.5 -226.5 c 128,-1,2
 -16 -219 -16 -219 -12.5 -213.5 c 128,-1,3
 -9 -208 -9 -208 -3 -203.5 c 128,-1,4
 3 -199 3 -199 8 -193 c 0,5,6
 38 -153 38 -153 61.5 -121 c 128,-1,7
 85 -89 85 -89 103.5 -57 c 128,-1,8
 122 -25 122 -25 136.5 12.5 c 128,-1,9
 151 50 151 50 164 102 c 0,10,11
 170 128 170 128 166 151 c 128,-1,12
 162 174 162 174 155 195 c 128,-1,13
 148 216 148 216 144 235.5 c 128,-1,14
 140 255 140 255 146 275 c 0,15,16
 150 287 150 287 160 291 c 128,-1,17
 170 295 170 295 180.5 293.5 c 128,-1,18
 191 292 191 292 201 286.5 c 128,-1,19
 211 281 211 281 216 275 c 0,20,21
 234 257 234 257 236.5 221.5 c 128,-1,22
 239 186 239 186 230.5 140.5 c 128,-1,23
 222 95 222 95 204 43.5 c 128,-1,24
 186 -8 186 -8 163.5 -56.5 c 128,-1,25
 141 -105 141 -105 115.5 -147.5 c 128,-1,26
 90 -190 90 -190 66.5 -217.5 c 128,-1,27
 43 -245 43 -245 23 -254 c 128,-1,28
 3 -263 3 -263 -9 -245 c 0,0,1
EndSplineSet
EndChar

StartChar: hyphen
Encoding: 45 45 16
Width: 477
Flags: W
LayerCount: 2
Fore
SplineSet
8 278 m 0,0,1
 4 286 4 286 7 292 c 128,-1,2
 10 298 10 298 16 302.5 c 128,-1,3
 22 307 22 307 29.5 309 c 128,-1,4
 37 311 37 311 43 312 c 0,5,6
 56 315 56 315 84.5 320.5 c 128,-1,7
 113 326 113 326 149 333 c 128,-1,8
 185 340 185 340 224.5 347.5 c 128,-1,9
 264 355 264 355 300.5 362 c 128,-1,10
 337 369 337 369 365.5 374 c 128,-1,11
 394 379 394 379 408 382 c 0,12,13
 431 386 431 386 437 378 c 128,-1,14
 443 370 443 370 439.5 357 c 128,-1,15
 436 344 436 344 426.5 331 c 128,-1,16
 417 318 417 318 408 312 c 1,17,18
 379 316 379 316 339.5 311 c 128,-1,19
 300 306 300 306 258.5 297.5 c 128,-1,20
 217 289 217 289 175 279 c 128,-1,21
 133 269 133 269 98.5 264 c 128,-1,22
 64 259 64 259 39.5 261 c 128,-1,23
 15 263 15 263 8 278 c 0,0,1
EndSplineSet
EndChar

StartChar: period
Encoding: 46 46 17
Width: 250
Flags: W
LayerCount: 2
Fore
SplineSet
76 17 m 0,0,1
 67 34 67 34 71 53.5 c 128,-1,2
 75 73 75 73 87 90 c 128,-1,3
 99 107 99 107 116 119.5 c 128,-1,4
 133 132 133 132 151.5 134 c 128,-1,5
 170 136 170 136 187 125.5 c 128,-1,6
 204 115 204 115 215 87 c 0,7,8
 222 70 222 70 216.5 53.5 c 128,-1,9
 211 37 211 37 198 24.5 c 128,-1,10
 185 12 185 12 167 3.5 c 128,-1,11
 149 -5 149 -5 131.5 -7 c 128,-1,12
 114 -9 114 -9 98.5 -3.5 c 128,-1,13
 83 2 83 2 76 17 c 0,0,1
EndSplineSet
EndChar

StartChar: slash
Encoding: 47 47 18
Width: 512
Flags: W
LayerCount: 2
Fore
SplineSet
8 35 m 0,0,1
 6 37 6 37 6 43.5 c 128,-1,2
 6 50 6 50 8 52 c 1,3,-1
 17 90 l 2,4,5
 24 116 24 116 32.5 148.5 c 128,-1,6
 41 181 41 181 50 217 c 128,-1,7
 59 253 59 253 68 285.5 c 128,-1,8
 77 318 77 318 84 344 c 128,-1,9
 91 370 91 370 95 382 c 0,10,11
 113 438 113 438 137.5 495.5 c 128,-1,12
 162 553 162 553 191.5 608.5 c 128,-1,13
 221 664 221 664 254 716.5 c 128,-1,14
 287 769 287 769 321 816 c 0,15,16
 331 829 331 829 349.5 850 c 128,-1,17
 368 871 368 871 387.5 890 c 128,-1,18
 407 909 407 909 422.5 923 c 128,-1,19
 438 937 438 937 442 937 c 2,20,-1
 477 937 l 1,21,-1
 477 902 l 1,22,23
 468 893 468 893 445.5 868.5 c 128,-1,24
 423 844 423 844 398 816.5 c 128,-1,25
 373 789 373 789 351 764 c 128,-1,26
 329 739 329 739 321 729 c 0,27,28
 318 726 318 726 313 719 c 128,-1,29
 308 712 308 712 302.5 703.5 c 128,-1,30
 297 695 297 695 292 687.5 c 128,-1,31
 287 680 287 680 286 677 c 0,32,33
 279 660 279 660 263.5 625 c 128,-1,34
 248 590 248 590 229 545.5 c 128,-1,35
 210 501 210 501 189.5 452 c 128,-1,36
 169 403 169 403 150 358 c 128,-1,37
 131 313 131 313 116.5 277.5 c 128,-1,38
 102 242 102 242 95 225 c 0,39,40
 84 199 84 199 85 167.5 c 128,-1,41
 86 136 86 136 85.5 105 c 128,-1,42
 85 74 85 74 77.5 46 c 128,-1,43
 70 18 70 18 43 0 c 1,44,45
 41 1 41 1 35.5 6 c 128,-1,46
 30 11 30 11 24.5 16.5 c 128,-1,47
 19 22 19 22 14 27.5 c 128,-1,48
 9 33 9 33 8 35 c 0,0,1
EndSplineSet
EndChar

StartChar: zero
Encoding: 48 48 19
Width: 564
Flags: W
LayerCount: 2
Fore
SplineSet
104 17 m 0,0,1
 92 24 92 24 81 37 c 128,-1,2
 70 50 70 50 61 64.5 c 128,-1,3
 52 79 52 79 45.5 94.5 c 128,-1,4
 39 110 39 110 35 122 c 1,5,6
 28 154 28 154 29.5 203.5 c 128,-1,7
 31 253 31 253 40.5 311.5 c 128,-1,8
 50 370 50 370 67.5 432.5 c 128,-1,9
 85 495 85 495 110 553.5 c 128,-1,10
 135 612 135 612 167 662 c 128,-1,11
 199 712 199 712 237.5 745 c 128,-1,12
 276 778 276 778 321 789 c 128,-1,13
 366 800 366 800 417 781 c 0,14,15
 460 765 460 765 482 732.5 c 128,-1,16
 504 700 504 700 521 659 c 1,17,18
 521 648 521 648 521.5 618.5 c 128,-1,19
 522 589 522 589 522 555.5 c 128,-1,20
 522 522 522 522 521.5 492.5 c 128,-1,21
 521 463 521 463 521 452 c 0,22,23
 519 426 519 426 499.5 376 c 128,-1,24
 480 326 480 326 448 269 c 128,-1,25
 416 212 416 212 374.5 156 c 128,-1,26
 333 100 333 100 287 60.5 c 128,-1,27
 241 21 241 21 194 6 c 128,-1,28
 147 -9 147 -9 104 17 c 0,0,1
122 87 m 0,29,30
 160 61 160 61 193 68 c 128,-1,31
 226 75 226 75 260 104 c 0,32,33
 330 164 330 164 375 230 c 128,-1,34
 420 296 420 296 444 361.5 c 128,-1,35
 468 427 468 427 473.5 488 c 128,-1,36
 479 549 479 549 471 599 c 128,-1,37
 463 649 463 649 443.5 684 c 128,-1,38
 424 719 424 719 397.5 732 c 128,-1,39
 371 745 371 745 340 733 c 128,-1,40
 309 721 309 721 278 677 c 0,41,42
 263 655 263 655 242.5 630 c 128,-1,43
 222 605 222 605 202.5 579 c 128,-1,44
 183 553 183 553 165.5 525 c 128,-1,45
 148 497 148 497 139 469 c 0,46,47
 134 454 134 454 123.5 424 c 128,-1,48
 113 394 113 394 102.5 357 c 128,-1,49
 92 320 92 320 84.5 279.5 c 128,-1,50
 77 239 77 239 76.5 202 c 128,-1,51
 76 165 76 165 86 134.5 c 128,-1,52
 96 104 96 104 122 87 c 0,29,30
EndSplineSet
EndChar

StartChar: one
Encoding: 49 49 20
Width: 316
Flags: W
LayerCount: 2
Fore
SplineSet
117 26 m 1,0,1
 123 140 123 140 126 237 c 128,-1,2
 129 334 129 334 134 427 c 128,-1,3
 139 520 139 520 149 615.5 c 128,-1,4
 159 711 159 711 179 822 c 1,5,6
 170 811 170 811 156.5 799 c 128,-1,7
 143 787 143 787 126.5 778 c 128,-1,8
 110 769 110 769 92 766 c 128,-1,9
 74 763 74 763 57 770 c 1,10,11
 56 774 56 774 67 792 c 128,-1,12
 78 810 78 810 97 835 c 128,-1,13
 116 860 116 860 140 889 c 128,-1,14
 164 918 164 918 188.5 943.5 c 128,-1,15
 213 969 213 969 234.5 988 c 128,-1,16
 256 1007 256 1007 270.5 1013 c 128,-1,17
 285 1019 285 1019 289 1008 c 128,-1,18
 293 997 293 997 283 962 c 0,19,20
 280 953 280 953 273 930.5 c 128,-1,21
 266 908 266 908 257.5 883 c 128,-1,22
 249 858 249 858 241.5 836 c 128,-1,23
 234 814 234 814 230 805 c 1,24,25
 228 787 228 787 224 749 c 128,-1,26
 220 711 220 711 214.5 663 c 128,-1,27
 209 615 209 615 203.5 562 c 128,-1,28
 198 509 198 509 193 461 c 128,-1,29
 188 413 188 413 184 375 c 128,-1,30
 180 337 180 337 179 319 c 0,31,32
 176 279 176 279 176 269.5 c 128,-1,33
 176 260 176 260 176.5 263.5 c 128,-1,34
 177 267 177 267 178 276.5 c 128,-1,35
 179 286 179 286 179 285 c 0,36,37
 178 265 178 265 176.5 229.5 c 128,-1,38
 175 194 175 194 173.5 155 c 128,-1,39
 172 116 172 116 171 80.5 c 128,-1,40
 170 45 170 45 169 26 c 0,41,42
 169 16 169 16 164.5 7 c 128,-1,43
 160 -2 160 -2 152.5 -8 c 128,-1,44
 145 -14 145 -14 135.5 -15 c 128,-1,45
 126 -16 126 -16 117 -9 c 1,46,-1
 117 26 l 1,0,1
EndSplineSet
EndChar

StartChar: two
Encoding: 50 50 21
Width: 712
Flags: W
LayerCount: 2
Fore
SplineSet
26 70 m 0,0,1
 33 119 33 119 50.5 163.5 c 128,-1,2
 68 208 68 208 96.5 244.5 c 128,-1,3
 125 281 125 281 163.5 307 c 128,-1,4
 202 333 202 333 251 347 c 1,5,6
 275 391 275 391 297 439.5 c 128,-1,7
 319 488 319 488 334.5 539 c 128,-1,8
 350 590 350 590 356 642.5 c 128,-1,9
 362 695 362 695 355 746 c 1,10,-1
 216 625 l 1,11,-1
 182 625 l 1,12,-1
 182 659 l 1,13,-1
 338 816 l 2,14,15
 357 835 357 835 373.5 834 c 128,-1,16
 390 833 390 833 402 822 c 128,-1,17
 414 811 414 811 420 794 c 128,-1,18
 426 777 426 777 425 764 c 1,19,20
 423 752 423 752 420.5 732 c 128,-1,21
 418 712 418 712 415.5 692.5 c 128,-1,22
 413 673 413 673 410.5 658 c 128,-1,23
 408 643 408 643 408 642 c 0,24,25
 404 627 404 627 392 590 c 128,-1,26
 380 553 380 553 366 511.5 c 128,-1,27
 352 470 352 470 339.5 433 c 128,-1,28
 327 396 327 396 321 382 c 1,29,30
 306 367 306 367 312 357 c 128,-1,31
 318 347 318 347 332 341 c 0,32,33
 348 334 348 334 373 330 c 1,34,35
 396 328 396 328 425.5 332 c 128,-1,36
 455 336 455 336 486.5 343 c 128,-1,37
 518 350 518 350 549.5 358 c 128,-1,38
 581 366 581 366 608 372.5 c 128,-1,39
 635 379 635 379 655 382 c 128,-1,40
 675 385 675 385 685 382 c 0,41,42
 690 380 690 380 697 373.5 c 128,-1,43
 704 367 704 367 702 365 c 2,44,-1
 668 312 l 2,45,46
 666 309 666 309 645 301 c 128,-1,47
 624 293 624 293 596.5 285 c 128,-1,48
 569 277 569 277 540.5 269.5 c 128,-1,49
 512 262 512 262 495 260 c 0,50,51
 482 258 482 258 450 257.5 c 128,-1,52
 418 257 418 257 381.5 257 c 128,-1,53
 345 257 345 257 313 257.5 c 128,-1,54
 281 258 281 258 268 260 c 1,55,56
 262 250 262 250 245 225 c 128,-1,57
 228 200 228 200 209 172.5 c 128,-1,58
 190 145 190 145 172 120.5 c 128,-1,59
 154 96 154 96 147 87 c 0,60,61
 139 77 139 77 126.5 61 c 128,-1,62
 114 45 114 45 98.5 31.5 c 128,-1,63
 83 18 83 18 64 12 c 128,-1,64
 45 6 45 6 26 17 c 1,65,66
 26 20 26 20 25.5 27.5 c 128,-1,67
 25 35 25 35 25 43.5 c 128,-1,68
 25 52 25 52 25.5 59.5 c 128,-1,69
 26 67 26 67 26 70 c 0,0,1
78 78 m 0,70,71
 71 78 71 78 71 69 c 128,-1,72
 71 60 71 60 78 60 c 0,73,74
 84 60 84 60 84 69 c 128,-1,75
 84 78 84 78 78 78 c 0,70,71
95 139 m 0,76,77
 94 135 94 135 94 122 c 128,-1,78
 94 109 94 109 95 104 c 1,79,-1
 113 104 l 1,80,-1
 216 260 l 1,81,-1
 199 260 l 2,82,83
 193 260 193 260 177.5 246.5 c 128,-1,84
 162 233 162 233 145 214.5 c 128,-1,85
 128 196 128 196 113.5 175 c 128,-1,86
 99 154 99 154 95 139 c 0,76,77
EndSplineSet
EndChar

StartChar: three
Encoding: 51 51 22
Width: 504
Flags: W
LayerCount: 2
Fore
SplineSet
87 17 m 0,0,1
 61 37 61 37 45.5 63.5 c 128,-1,2
 30 90 30 90 22.5 120 c 128,-1,3
 15 150 15 150 14.5 181.5 c 128,-1,4
 14 213 14 213 17 243 c 1,5,6
 26 249 26 249 36 235 c 128,-1,7
 46 221 46 221 57.5 197.5 c 128,-1,8
 69 174 69 174 83.5 145 c 128,-1,9
 98 116 98 116 116.5 92 c 128,-1,10
 135 68 135 68 159 53.5 c 128,-1,11
 183 39 183 39 213 44.5 c 128,-1,12
 243 50 243 50 280.5 79.5 c 128,-1,13
 318 109 318 109 365 173 c 0,14,15
 428 259 428 259 433 323.5 c 128,-1,16
 438 388 438 388 402 421 c 128,-1,17
 366 454 366 454 296 450.5 c 128,-1,18
 226 447 226 447 139 399 c 1,19,20
 117 399 117 399 125.5 415 c 128,-1,21
 134 431 134 431 159 457 c 128,-1,22
 184 483 184 483 219.5 514.5 c 128,-1,23
 255 546 255 546 287 577 c 128,-1,24
 319 608 319 608 342 634.5 c 128,-1,25
 365 661 365 661 365 677 c 2,26,-1
 365 694 l 1,27,28
 350 699 350 699 330 692 c 128,-1,29
 310 685 310 685 288 672.5 c 128,-1,30
 266 660 266 660 244 646 c 128,-1,31
 222 632 222 632 202 624.5 c 128,-1,32
 182 617 182 617 165.5 619.5 c 128,-1,33
 149 622 149 622 139 642 c 0,34,35
 135 650 135 650 139 658.5 c 128,-1,36
 143 667 143 667 149.5 674.5 c 128,-1,37
 156 682 156 682 163 687 c 2,38,-1
 174 694 l 1,39,40
 187 698 187 698 219 708.5 c 128,-1,41
 251 719 251 719 287 730 c 128,-1,42
 323 741 323 741 355 750.5 c 128,-1,43
 387 760 387 760 399 764 c 0,44,45
 403 765 403 765 416.5 765 c 128,-1,46
 430 765 430 765 434 764 c 1,47,48
 442 736 442 736 431.5 704 c 128,-1,49
 421 672 421 672 403 641.5 c 128,-1,50
 385 611 385 611 364 583.5 c 128,-1,51
 343 556 343 556 330 538 c 1,52,53
 342 542 342 542 358.5 534 c 128,-1,54
 375 526 375 526 382 520 c 0,55,56
 428 483 428 483 448 436 c 128,-1,57
 468 389 468 389 466.5 338.5 c 128,-1,58
 465 288 465 288 446 237.5 c 128,-1,59
 427 187 427 187 396 142.5 c 128,-1,60
 365 98 365 98 326 63 c 128,-1,61
 287 28 287 28 245 9.5 c 128,-1,62
 203 -9 203 -9 162 -9 c 128,-1,63
 121 -9 121 -9 87 17 c 0,0,1
EndSplineSet
EndChar

StartChar: four
Encoding: 52 52 23
Width: 616
Flags: W
LayerCount: 2
Fore
SplineSet
365 52 m 0,0,1
 366 58 366 58 368.5 77 c 128,-1,2
 371 96 371 96 374.5 120.5 c 128,-1,3
 378 145 378 145 382 173.5 c 128,-1,4
 386 202 386 202 389.5 226.5 c 128,-1,5
 393 251 393 251 395.5 270 c 128,-1,6
 398 289 398 289 399 295 c 0,7,8
 399 298 399 298 399.5 305.5 c 128,-1,9
 400 313 400 313 400 321 c 128,-1,10
 400 329 400 329 399.5 336.5 c 128,-1,11
 399 344 399 344 399 347 c 1,12,13
 388 351 388 351 358.5 361.5 c 128,-1,14
 329 372 329 372 295.5 383 c 128,-1,15
 262 394 262 394 232 404 c 128,-1,16
 202 414 202 414 190 417 c 0,17,18
 171 422 171 422 154 409 c 128,-1,19
 137 396 137 396 121.5 374.5 c 128,-1,20
 106 353 106 353 92 329.5 c 128,-1,21
 78 306 78 306 65.5 290.5 c 128,-1,22
 53 275 53 275 40.5 273.5 c 128,-1,23
 28 272 28 272 17 295 c 1,24,25
 22 308 22 308 31 335 c 128,-1,26
 40 362 40 362 52 396.5 c 128,-1,27
 64 431 64 431 77.5 468.5 c 128,-1,28
 91 506 91 506 103 540.5 c 128,-1,29
 115 575 115 575 124.5 602 c 128,-1,30
 134 629 134 629 139 642 c 0,31,32
 142 651 142 651 149.5 665 c 128,-1,33
 157 679 157 679 167 688 c 128,-1,34
 177 697 177 697 188 696.5 c 128,-1,35
 199 696 199 696 208 677 c 1,36,37
 205 669 205 669 197.5 649.5 c 128,-1,38
 190 630 190 630 181.5 608 c 128,-1,39
 173 586 173 586 166 566 c 128,-1,40
 159 546 159 546 157 538 c 0,41,42
 155 533 155 533 155 520.5 c 128,-1,43
 155 508 155 508 157 504 c 1,44,45
 165 503 165 503 187.5 494.5 c 128,-1,46
 210 486 210 486 238 474 c 128,-1,47
 266 462 266 462 297 449 c 128,-1,48
 328 436 328 436 354 427 c 128,-1,49
 380 418 380 418 397.5 414 c 128,-1,50
 415 410 415 410 417 417 c 2,51,-1
 538 885 l 2,52,53
 541 898 541 898 550.5 901 c 128,-1,54
 560 904 560 904 570 900.5 c 128,-1,55
 580 897 580 897 586.5 888 c 128,-1,56
 593 879 593 879 590 867 c 2,57,-1
 504 486 l 1,58,-1
 504 434 l 1,59,60
 508 436 508 436 517.5 441 c 128,-1,61
 527 446 527 446 538 451.5 c 128,-1,62
 549 457 549 457 558.5 462 c 128,-1,63
 568 467 568 467 572 469 c 1,64,-1
 590 469 l 1,65,66
 564 449 564 449 544 432.5 c 128,-1,67
 524 416 524 416 509 398.5 c 128,-1,68
 494 381 494 381 484 360.5 c 128,-1,69
 474 340 474 340 469 312 c 0,70,71
 467 301 467 301 462.5 278 c 128,-1,72
 458 255 458 255 453 226 c 128,-1,73
 448 197 448 197 442.5 164.5 c 128,-1,74
 437 132 437 132 432 103 c 128,-1,75
 427 74 427 74 423 51 c 128,-1,76
 419 28 419 28 417 17 c 1,77,78
 413 14 413 14 407 10.5 c 128,-1,79
 401 7 401 7 393.5 4 c 128,-1,80
 386 1 386 1 378.5 -0.5 c 128,-1,81
 371 -2 371 -2 365 0 c 1,82,83
 365 3 365 3 364.5 10.5 c 128,-1,84
 364 18 364 18 364 26 c 128,-1,85
 364 34 364 34 364.5 41.5 c 128,-1,86
 365 49 365 49 365 52 c 0,0,1
EndSplineSet
EndChar

StartChar: five
Encoding: 53 53 24
Width: 555
Flags: W
LayerCount: 2
Fore
SplineSet
95 17 m 0,0,1
 66 39 66 39 51.5 75 c 128,-1,2
 37 111 37 111 33.5 151.5 c 128,-1,3
 30 192 30 192 34.5 232 c 128,-1,4
 39 272 39 272 48.5 301.5 c 128,-1,5
 58 331 58 331 70.5 345 c 128,-1,6
 83 359 83 359 95 347 c 1,7,8
 97 338 97 338 93 309.5 c 128,-1,9
 89 281 89 281 86 243.5 c 128,-1,10
 83 206 83 206 83 166.5 c 128,-1,11
 83 127 83 127 92 97.5 c 128,-1,12
 101 68 101 68 122 53.5 c 128,-1,13
 143 39 143 39 182 52 c 0,14,15
 240 72 240 72 258.5 103 c 128,-1,16
 277 134 277 134 269 172 c 128,-1,17
 261 210 261 210 234.5 251.5 c 128,-1,18
 208 293 208 293 177 333 c 128,-1,19
 146 373 146 373 117.5 408 c 128,-1,20
 89 443 89 443 78 469 c 0,21,22
 55 519 55 519 60 555 c 128,-1,23
 65 591 65 591 84 614.5 c 128,-1,24
 103 638 103 638 131.5 650 c 128,-1,25
 160 662 160 662 184.5 664.5 c 128,-1,26
 209 667 209 667 224 660.5 c 128,-1,27
 239 654 239 654 233 642 c 1,28,-1
 512 729 l 2,29,30
 531 735 531 735 538 726 c 128,-1,31
 545 717 545 717 543 703.5 c 128,-1,32
 541 690 541 690 532.5 676.5 c 128,-1,33
 524 663 524 663 512 659 c 2,34,-1
 199 555 l 2,35,36
 182 550 182 550 169 563.5 c 128,-1,37
 156 577 156 577 147 590 c 1,38,39
 130 586 130 586 126.5 569 c 128,-1,40
 123 552 123 552 126 532.5 c 128,-1,41
 129 513 129 513 136 494.5 c 128,-1,42
 143 476 143 476 147 469 c 1,43,44
 153 461 153 461 165.5 445 c 128,-1,45
 178 429 178 429 193.5 408.5 c 128,-1,46
 209 388 209 388 226 365.5 c 128,-1,47
 243 343 243 343 258 322 c 128,-1,48
 273 301 273 301 285 284.5 c 128,-1,49
 297 268 297 268 303 260 c 0,50,51
 325 229 325 229 327.5 192 c 128,-1,52
 330 155 330 155 318 119.5 c 128,-1,53
 306 84 306 84 282 54.5 c 128,-1,54
 258 25 258 25 227.5 8.5 c 128,-1,55
 197 -8 197 -8 162.5 -8 c 128,-1,56
 128 -8 128 -8 95 17 c 0,0,1
EndSplineSet
EndChar

StartChar: six
Encoding: 54 54 25
Width: 460
Flags: W
LayerCount: 2
Fore
SplineSet
95 17 m 0,0,1
 67 24 67 24 51 46 c 128,-1,2
 35 68 35 68 27.5 99 c 128,-1,3
 20 130 20 130 19.5 165.5 c 128,-1,4
 19 201 19 201 22.5 235.5 c 128,-1,5
 26 270 26 270 32 299.5 c 128,-1,6
 38 329 38 329 43 347 c 0,7,8
 45 356 45 356 53.5 382.5 c 128,-1,9
 62 409 62 409 73 445 c 128,-1,10
 84 481 84 481 97.5 522.5 c 128,-1,11
 111 564 111 564 123.5 603.5 c 128,-1,12
 136 643 136 643 147 676 c 128,-1,13
 158 709 158 709 165 729 c 0,14,15
 167 736 167 736 170.5 745.5 c 128,-1,16
 174 755 174 755 180 762 c 128,-1,17
 186 769 186 769 194.5 770.5 c 128,-1,18
 203 772 203 772 216 764 c 1,19,-1
 216 712 l 1,20,-1
 95 312 l 1,21,-1
 95 122 l 2,22,23
 95 112 95 112 106 99 c 128,-1,24
 117 86 117 86 130 77.5 c 128,-1,25
 143 69 143 69 154 69.5 c 128,-1,26
 165 70 165 70 165 87 c 1,27,28
 168 100 168 100 177.5 132 c 128,-1,29
 187 164 187 164 198 200 c 128,-1,30
 209 236 209 236 219 268 c 128,-1,31
 229 300 229 300 233 312 c 0,32,33
 235 319 235 319 248.5 339 c 128,-1,34
 262 359 262 359 280.5 382.5 c 128,-1,35
 299 406 299 406 321.5 428 c 128,-1,36
 344 450 344 450 364.5 461.5 c 128,-1,37
 385 473 385 473 401 468.5 c 128,-1,38
 417 464 417 464 425 434 c 1,39,40
 432 385 432 385 426.5 331.5 c 128,-1,41
 421 278 421 278 403 226.5 c 128,-1,42
 385 175 385 175 356.5 131 c 128,-1,43
 328 87 328 87 289 56.5 c 128,-1,44
 250 26 250 26 201 14.5 c 128,-1,45
 152 3 152 3 95 17 c 0,0,1
233 157 m 0,46,47
 232 152 232 152 231.5 142 c 128,-1,48
 231 132 231 132 231 121 c 128,-1,49
 231 110 231 110 231.5 100.5 c 128,-1,50
 232 91 232 91 233 87 c 1,51,52
 268 99 268 99 300 134 c 128,-1,53
 332 169 332 169 354.5 212.5 c 128,-1,54
 377 256 377 256 387 301.5 c 128,-1,55
 397 347 397 347 390 382 c 1,56,-1
 338 382 l 2,57,58
 337 382 337 382 330.5 372 c 128,-1,59
 324 362 324 362 315.5 348.5 c 128,-1,60
 307 335 307 335 298.5 320 c 128,-1,61
 290 305 290 305 286 295 c 1,62,63
 281 286 281 286 273 265.5 c 128,-1,64
 265 245 265 245 257 223 c 128,-1,65
 249 201 249 201 242 182 c 128,-1,66
 235 163 235 163 233 157 c 0,46,47
EndSplineSet
EndChar

StartChar: seven
Encoding: 55 55 26
Width: 538
Flags: W
LayerCount: 2
Fore
SplineSet
449 716 m 1,0,-1
 122 625 l 2,1,2
 121 624 121 624 110 610 c 128,-1,3
 99 596 99 596 84.5 578 c 128,-1,4
 70 560 70 560 54.5 544 c 128,-1,5
 39 528 39 528 28 524 c 128,-1,6
 17 520 17 520 13 534 c 128,-1,7
 9 548 9 548 17 590 c 0,8,9
 19 600 19 600 28 614.5 c 128,-1,10
 37 629 37 629 48 642.5 c 128,-1,11
 59 656 59 656 70 665.5 c 128,-1,12
 81 675 81 675 87 677 c 2,13,-1
 504 771 l 1,14,-1
 504 712 l 1,15,16
 497 691 497 691 484.5 646 c 128,-1,17
 472 601 472 601 456.5 544.5 c 128,-1,18
 441 488 441 488 424 425.5 c 128,-1,19
 407 363 407 363 391.5 306.5 c 128,-1,20
 376 250 376 250 364 205 c 128,-1,21
 352 160 352 160 347 139 c 0,22,23
 345 132 345 132 342.5 115 c 128,-1,24
 340 98 340 98 337.5 78.5 c 128,-1,25
 335 59 335 59 332.5 41.5 c 128,-1,26
 330 24 330 24 330 17 c 1,27,28
 322 12 322 12 306.5 3.5 c 128,-1,29
 291 -5 291 -5 278 0 c 1,30,-1
 278 70 l 1,31,-1
 449 716 l 1,0,-1
EndSplineSet
EndChar

StartChar: eight
Encoding: 56 56 27
Width: 590
Flags: W
LayerCount: 2
Fore
SplineSet
52 17 m 0,0,1
 32 32 32 32 30 62 c 128,-1,2
 28 92 28 92 34.5 124 c 128,-1,3
 41 156 41 156 52.5 184 c 128,-1,4
 64 212 64 212 70 225 c 0,5,6
 75 236 75 236 89.5 263.5 c 128,-1,7
 104 291 104 291 120.5 321.5 c 128,-1,8
 137 352 137 352 152.5 379 c 128,-1,9
 168 406 168 406 174 417 c 1,10,11
 184 454 184 454 174 493.5 c 128,-1,12
 164 533 164 533 150 574.5 c 128,-1,13
 136 616 136 616 125 659 c 128,-1,14
 114 702 114 702 122 746 c 1,15,16
 129 750 129 750 140.5 756 c 128,-1,17
 152 762 152 762 164.5 767 c 128,-1,18
 177 772 177 772 189 776 c 128,-1,19
 201 780 201 780 208 781 c 0,20,21
 223 782 223 782 246.5 782.5 c 128,-1,22
 270 783 270 783 292 783 c 128,-1,23
 314 783 314 783 330 782.5 c 128,-1,24
 346 782 346 782 347 781 c 2,25,-1
 399 712 l 2,26,27
 401 710 401 710 394 703 c 128,-1,28
 387 696 387 696 382 694 c 0,29,30
 380 693 380 693 373.5 693 c 128,-1,31
 367 693 367 693 365 694 c 256,32,33
 363 695 363 695 355 700.5 c 128,-1,34
 347 706 347 706 338.5 712 c 128,-1,35
 330 718 330 718 322 723.5 c 128,-1,36
 314 729 314 729 312 729 c 0,37,38
 305 730 305 730 288 730.5 c 128,-1,39
 271 731 271 731 251.5 731 c 128,-1,40
 232 731 232 731 215 730.5 c 128,-1,41
 198 730 198 730 191 729 c 1,42,43
 176 721 176 721 173.5 704 c 128,-1,44
 171 687 171 687 174.5 667.5 c 128,-1,45
 178 648 178 648 183.5 631 c 128,-1,46
 189 614 189 614 191 607 c 0,47,48
 194 596 194 596 200 578.5 c 128,-1,49
 206 561 206 561 211 544.5 c 128,-1,50
 216 528 216 528 220 516 c 2,51,-1
 225 504 l 1,52,-1
 243 504 l 1,53,-1
 521 764 l 2,54,55
 542 783 542 783 553.5 782 c 128,-1,56
 565 781 565 781 568 769 c 128,-1,57
 571 757 571 757 567 740 c 128,-1,58
 563 723 563 723 555 712 c 0,59,60
 546 700 546 700 530 688 c 128,-1,61
 514 676 514 676 496 665 c 128,-1,62
 478 654 478 654 461 644 c 128,-1,63
 444 634 444 634 434 625 c 0,64,65
 421 613 421 613 403 595.5 c 128,-1,66
 385 578 385 578 365.5 559.5 c 128,-1,67
 346 541 346 541 327.5 522 c 128,-1,68
 309 503 309 503 294 487.5 c 128,-1,69
 279 472 279 472 269.5 462.5 c 128,-1,70
 260 453 260 453 260 452 c 2,71,-1
 260 157 l 2,72,73
 260 127 260 127 238 93.5 c 128,-1,74
 216 60 216 60 184 36 c 128,-1,75
 152 12 152 12 116 4 c 128,-1,76
 80 -4 80 -4 52 17 c 0,0,1
87 87 m 0,77,78
 92 65 92 65 111.5 64.5 c 128,-1,79
 131 64 131 64 152.5 75 c 128,-1,80
 174 86 174 86 191 104.5 c 128,-1,81
 208 123 208 123 208 139 c 2,82,-1
 208 330 l 1,83,-1
 191 365 l 1,84,85
 171 339 171 339 149.5 305 c 128,-1,86
 128 271 128 271 111.5 233.5 c 128,-1,87
 95 196 95 196 87 158 c 128,-1,88
 79 120 79 120 87 87 c 0,77,78
EndSplineSet
EndChar

StartChar: nine
Encoding: 57 57 28
Width: 408
Flags: W
LayerCount: 2
Fore
SplineSet
268 555 m 1,0,-1
 268 677 l 1,1,2
 248 662 248 662 221 646 c 128,-1,3
 194 630 194 630 164 618.5 c 128,-1,4
 134 607 134 607 103 602.5 c 128,-1,5
 72 598 72 598 43 607 c 1,6,7
 24 647 24 647 27 692 c 128,-1,8
 30 737 30 737 50 777 c 128,-1,9
 70 817 70 817 103.5 847.5 c 128,-1,10
 137 878 137 878 178 889.5 c 128,-1,11
 219 901 219 901 264.5 889.5 c 128,-1,12
 310 878 310 878 355 834 c 0,13,14
 366 823 366 823 375 821 c 128,-1,15
 384 819 384 819 389 816.5 c 128,-1,16
 394 814 394 814 394.5 807.5 c 128,-1,17
 395 801 395 801 390 781 c 2,18,-1
 199 52 l 1,19,20
 210 35 210 35 204 24 c 128,-1,21
 198 13 198 13 184.5 7 c 128,-1,22
 171 1 171 1 155 -0.5 c 128,-1,23
 139 -2 139 -2 130 0 c 1,24,-1
 130 35 l 1,25,-1
 268 555 l 1,0,-1
95 729 m 0,26,27
 94 725 94 725 93.5 715.5 c 128,-1,28
 93 706 93 706 93 694.5 c 128,-1,29
 93 683 93 683 93.5 673 c 128,-1,30
 94 663 94 663 95 659 c 1,31,32
 115 653 115 653 140.5 657 c 128,-1,33
 166 661 166 661 191.5 672 c 128,-1,34
 217 683 217 683 239.5 700.5 c 128,-1,35
 262 718 262 718 276.5 739.5 c 128,-1,36
 291 761 291 761 294.5 785 c 128,-1,37
 298 809 298 809 286 834 c 1,38,39
 260 852 260 852 228.5 848.5 c 128,-1,40
 197 845 197 845 169.5 828 c 128,-1,41
 142 811 142 811 121 784 c 128,-1,42
 100 757 100 757 95 729 c 0,26,27
EndSplineSet
EndChar

StartChar: colon
Encoding: 58 58 29
Width: 269
Flags: W
LayerCount: 2
Fore
SplineSet
95 147 m 0,0,1
 91 172 91 172 97.5 197 c 128,-1,2
 104 222 104 222 117 242.5 c 128,-1,3
 130 263 130 263 147.5 278 c 128,-1,4
 165 293 165 293 181.5 298 c 128,-1,5
 198 303 198 303 212 297 c 128,-1,6
 226 291 226 291 233 269 c 0,7,8
 239 252 239 252 232 231.5 c 128,-1,9
 225 211 225 211 210.5 192.5 c 128,-1,10
 196 174 196 174 177 158.5 c 128,-1,11
 158 143 158 143 140.5 135.5 c 128,-1,12
 123 128 123 128 110 129.5 c 128,-1,13
 97 131 97 131 95 147 c 0,0,1
43 529 m 0,14,15
 19 545 19 545 15.5 560.5 c 128,-1,16
 12 576 12 576 22.5 589.5 c 128,-1,17
 33 603 33 603 54 613.5 c 128,-1,18
 75 624 75 624 98.5 631 c 128,-1,19
 122 638 122 638 144.5 640.5 c 128,-1,20
 167 643 167 643 181 639.5 c 128,-1,21
 195 636 195 636 197 626 c 128,-1,22
 199 616 199 616 182 599 c 2,23,-1
 95 512 l 2,24,25
 94 511 94 511 87.5 511 c 128,-1,26
 81 511 81 511 78 512 c 0,27,28
 74 514 74 514 60.5 520 c 128,-1,29
 47 526 47 526 43 529 c 0,14,15
EndSplineSet
EndChar

StartChar: semicolon
Encoding: 59 59 30
Width: 217
Flags: W
LayerCount: 2
Fore
SplineSet
-104 -295 m 1,0,1
 -49 -235 -49 -235 -5 -175 c 128,-1,2
 39 -115 39 -115 67.5 -49.5 c 128,-1,3
 96 16 96 16 106 88 c 128,-1,4
 116 160 116 160 103 243 c 1,5,6
 109 260 109 260 125.5 262.5 c 128,-1,7
 142 265 142 265 156 260 c 1,8,9
 175 210 175 210 175.5 159.5 c 128,-1,10
 176 109 176 109 163.5 60 c 128,-1,11
 151 11 151 11 128 -36.5 c 128,-1,12
 105 -84 105 -84 77 -129 c 128,-1,13
 49 -174 49 -174 19.5 -215.5 c 128,-1,14
 -10 -257 -10 -257 -35 -295 c 1,15,16
 -48 -312 -48 -312 -69.5 -312 c 128,-1,17
 -91 -312 -91 -312 -104 -295 c 1,0,1
35 452 m 0,18,19
 41 471 41 471 58 482.5 c 128,-1,20
 75 494 75 494 95.5 499.5 c 128,-1,21
 116 505 116 505 137 505.5 c 128,-1,22
 158 506 158 506 173 504 c 1,23,24
 183 478 183 478 171.5 453 c 128,-1,25
 160 428 160 428 137 409.5 c 128,-1,26
 114 391 114 391 85.5 382.5 c 128,-1,27
 57 374 57 374 35 382 c 1,28,29
 33 386 33 386 32.5 395.5 c 128,-1,30
 32 405 32 405 32 416.5 c 128,-1,31
 32 428 32 428 32.5 438 c 128,-1,32
 33 448 33 448 35 452 c 0,18,19
103 460 m 0,33,34
 97 460 97 460 97 451 c 128,-1,35
 97 442 97 442 103 442 c 0,36,37
 111 442 111 442 111 451 c 128,-1,38
 111 460 111 460 103 460 c 0,33,34
EndSplineSet
EndChar

StartChar: less
Encoding: 60 60 31
Width: 807
Flags: W
LayerCount: 2
Fore
SplineSet
382 157 m 1,0,1
 349 167 349 167 305 175 c 128,-1,2
 261 183 261 183 213 187.5 c 128,-1,3
 165 192 165 192 118.5 193 c 128,-1,4
 72 194 72 194 35 190 c 1,5,6
 9 203 9 203 14.5 215 c 128,-1,7
 20 227 20 227 38 236.5 c 128,-1,8
 56 246 56 246 77 252 c 128,-1,9
 98 258 98 258 104 260 c 1,10,11
 117 267 117 267 144.5 283.5 c 128,-1,12
 172 300 172 300 206.5 320 c 128,-1,13
 241 340 241 340 278.5 363 c 128,-1,14
 316 386 316 386 350.5 406.5 c 128,-1,15
 385 427 385 427 412 443.5 c 128,-1,16
 439 460 439 460 452 469 c 0,17,18
 463 476 463 476 478 491.5 c 128,-1,19
 493 507 493 507 511 521 c 128,-1,20
 529 535 529 535 549 541.5 c 128,-1,21
 569 548 569 548 590 538 c 1,22,23
 597 527 597 527 583 510 c 128,-1,24
 569 493 569 493 541.5 472 c 128,-1,25
 514 451 514 451 477 428 c 128,-1,26
 440 405 440 405 400.5 382 c 128,-1,27
 361 359 361 359 323.5 337 c 128,-1,28
 286 315 286 315 258 296 c 128,-1,29
 230 277 230 277 215.5 263.5 c 128,-1,30
 201 250 201 250 208 243 c 1,31,32
 272 238 272 238 345.5 218.5 c 128,-1,33
 419 199 419 199 491.5 173 c 128,-1,34
 564 147 564 147 630 119.5 c 128,-1,35
 696 92 696 92 746 70 c 0,36,37
 758 64 758 64 761.5 53 c 128,-1,38
 765 42 765 42 761.5 32 c 128,-1,39
 758 22 758 22 749.5 17 c 128,-1,40
 741 12 741 12 729 17 c 0,41,42
 717 23 717 23 690 35 c 128,-1,43
 663 47 663 47 628.5 61 c 128,-1,44
 594 75 594 75 556.5 90 c 128,-1,45
 519 105 519 105 484.5 118.5 c 128,-1,46
 450 132 450 132 422.5 142 c 128,-1,47
 395 152 395 152 382 157 c 1,0,1
EndSplineSet
EndChar

StartChar: equal
Encoding: 61 61 32
Width: 937
Flags: W
LayerCount: 2
Fore
SplineSet
51 168 m 0,0,1
 45 180 45 180 58 190.5 c 128,-1,2
 71 201 71 201 90 208 c 128,-1,3
 109 215 109 215 128.5 218.5 c 128,-1,4
 148 222 148 222 155 221 c 1,5,-1
 798 308 l 1,6,-1
 918 308 l 1,7,8
 925 297 925 297 924 287.5 c 128,-1,9
 923 278 923 278 917 270.5 c 128,-1,10
 911 263 911 263 902.5 259 c 128,-1,11
 894 255 894 255 885 255 c 2,12,-1
 658 255 l 1,13,-1
 103 151 l 2,14,15
 86 148 86 148 72.5 149.5 c 128,-1,16
 59 151 59 151 51 168 c 0,0,1
34 376 m 0,17,18
 36 379 36 379 42.5 386 c 128,-1,19
 49 393 49 393 51 394 c 0,20,21
 129 421 129 421 220 443 c 128,-1,22
 311 465 311 465 405 479.5 c 128,-1,23
 499 494 499 494 591 499.5 c 128,-1,24
 683 505 683 505 763 498 c 1,25,26
 767 485 767 485 764 468 c 128,-1,27
 761 451 761 451 745 446 c 1,28,29
 668 456 668 456 580.5 450.5 c 128,-1,30
 493 445 493 445 405.5 431 c 128,-1,31
 318 417 318 417 235.5 397 c 128,-1,32
 153 377 153 377 86 359 c 1,33,-1
 34 359 l 1,34,35
 33 361 33 361 33 367.5 c 128,-1,36
 33 374 33 374 34 376 c 0,17,18
EndSplineSet
EndChar

StartChar: greater
Encoding: 62 62 33
Width: 781
Flags: W
LayerCount: 2
Fore
SplineSet
122 17 m 2,0,1
 118 18 118 18 119 33 c 128,-1,2
 120 48 120 48 124.5 63.5 c 128,-1,3
 129 79 129 79 137.5 88 c 128,-1,4
 146 97 146 97 157 87 c 1,5,6
 169 97 169 97 194.5 116.5 c 128,-1,7
 220 136 220 136 252 160 c 128,-1,8
 284 184 284 184 320 210.5 c 128,-1,9
 356 237 356 237 388.5 260.5 c 128,-1,10
 421 284 421 284 447 302.5 c 128,-1,11
 473 321 473 321 486 330 c 0,12,13
 493 335 493 335 513 345 c 2,14,-1
 555 366 l 2,15,16
 577 377 577 377 597 386 c 0,17,18
 616 395 616 395 624 399 c 1,19,20
 559 410 559 410 482 418 c 0,21,22
 404 427 404 427 323 441 c 128,-1,23
 242 455 242 455 163 477.5 c 128,-1,24
 84 500 84 500 17 538 c 1,25,26
 11 550 11 550 16 557.5 c 128,-1,27
 21 565 21 565 31 569 c 128,-1,28
 41 573 41 573 52 574 c 128,-1,29
 63 575 63 575 70 572 c 0,30,31
 74 571 74 571 84 566.5 c 128,-1,32
 94 562 94 562 105 556.5 c 128,-1,33
 116 551 116 551 125.5 546 c 128,-1,34
 135 541 135 541 139 538 c 1,35,-1
 746 417 l 2,36,37
 750 416 750 416 750 409 c 128,-1,38
 750 402 750 402 746 399 c 0,39,40
 716 369 716 369 666 342 c 128,-1,41
 616 315 616 315 558.5 288 c 128,-1,42
 501 261 501 261 440.5 232 c 128,-1,43
 380 203 380 203 328 168.5 c 128,-1,44
 276 134 276 134 239 93 c 128,-1,45
 202 52 202 52 190 0 c 1,46,-1
 122 17 l 2,0,1
EndSplineSet
EndChar

StartChar: question
Encoding: 63 63 34
Width: 642
Flags: W
LayerCount: 2
Fore
SplineSet
347 17 m 0,0,1
 331 42 331 42 336 62.5 c 128,-1,2
 341 83 341 83 357.5 93 c 128,-1,3
 374 103 374 103 395.5 99 c 128,-1,4
 417 95 417 95 434 70 c 0,5,6
 443 57 443 57 434.5 40.5 c 128,-1,7
 426 24 426 24 410.5 13.5 c 128,-1,8
 395 3 395 3 377 1.5 c 128,-1,9
 359 0 359 0 347 17 c 0,0,1
70 382 m 0,10,11
 59 387 59 387 46.5 399.5 c 128,-1,12
 34 412 34 412 26 428 c 128,-1,13
 18 444 18 444 18.5 459.5 c 128,-1,14
 19 475 19 475 35 486 c 2,15,-1
 469 781 l 2,16,17
 502 803 502 803 511 819 c 128,-1,18
 520 835 520 835 512 846 c 128,-1,19
 504 857 504 857 482.5 863.5 c 128,-1,20
 461 870 461 870 432.5 873.5 c 128,-1,21
 404 877 404 877 371.5 877 c 128,-1,22
 339 877 339 877 310 876 c 128,-1,23
 281 875 281 875 258 872.5 c 128,-1,24
 235 870 235 870 225 867 c 0,25,26
 195 859 195 859 189.5 868.5 c 128,-1,27
 184 878 184 878 195 892.5 c 128,-1,28
 206 907 206 907 229 921 c 128,-1,29
 252 935 252 935 278 937 c 0,30,31
 291 938 291 938 319.5 939 c 128,-1,32
 348 940 348 940 382.5 938 c 128,-1,33
 417 936 417 936 452.5 929.5 c 128,-1,34
 488 923 488 923 514.5 909 c 128,-1,35
 541 895 541 895 553.5 872.5 c 128,-1,36
 566 850 566 850 555 816 c 0,37,38
 554 812 554 812 549.5 804 c 128,-1,39
 545 796 545 796 539.5 787.5 c 128,-1,40
 534 779 534 779 528.5 772 c 128,-1,41
 523 765 523 765 521 764 c 2,42,-1
 139 504 l 2,43,44
 131 498 131 498 119.5 483 c 128,-1,45
 108 468 108 468 103.5 453 c 128,-1,46
 99 438 99 438 105.5 426.5 c 128,-1,47
 112 415 112 415 139 417 c 1,48,49
 152 415 152 415 184 414.5 c 128,-1,50
 216 414 216 414 252 414 c 128,-1,51
 288 414 288 414 320 414.5 c 128,-1,52
 352 415 352 415 365 417 c 0,53,54
 370 417 370 417 386 421 c 128,-1,55
 402 425 402 425 423 430.5 c 128,-1,56
 444 436 444 436 468.5 442 c 128,-1,57
 493 448 493 448 514 453.5 c 128,-1,58
 535 459 535 459 551 463.5 c 128,-1,59
 567 468 567 468 572 469 c 1,60,-1
 607 469 l 1,61,62
 611 456 611 456 608.5 439 c 128,-1,63
 606 422 606 422 590 417 c 0,64,65
 545 405 545 405 477.5 388.5 c 128,-1,66
 410 372 410 372 336 362 c 128,-1,67
 262 352 262 352 191.5 354 c 128,-1,68
 121 356 121 356 70 382 c 0,10,11
EndSplineSet
EndChar

StartChar: at
Encoding: 64 64 35
Width: 1016
Flags: W
LayerCount: 2
Fore
SplineSet
113 70 m 0,0,1
 73 92 73 92 52.5 136 c 128,-1,2
 32 180 32 180 26 231 c 128,-1,3
 20 282 20 282 25.5 332.5 c 128,-1,4
 31 383 31 383 43 417 c 0,5,6
 70 498 70 498 108 568.5 c 128,-1,7
 146 639 146 639 196.5 698 c 128,-1,8
 247 757 247 757 312 804 c 128,-1,9
 377 851 377 851 460 885 c 0,10,11
 491 898 491 898 529.5 904.5 c 128,-1,12
 568 911 568 911 607.5 911 c 128,-1,13
 647 911 647 911 685 904.5 c 128,-1,14
 723 898 723 898 755 885 c 0,15,16
 840 850 840 850 890 799.5 c 128,-1,17
 940 749 940 749 960 690.5 c 128,-1,18
 980 632 980 632 972.5 570 c 128,-1,19
 965 508 965 508 934.5 448.5 c 128,-1,20
 904 389 904 389 853.5 335.5 c 128,-1,21
 803 282 803 282 737 243 c 0,22,23
 701 221 701 221 671 215 c 128,-1,24
 641 209 641 209 612.5 214 c 128,-1,25
 584 219 584 219 555.5 231.5 c 128,-1,26
 527 244 527 244 495 260 c 0,27,28
 479 268 479 268 462.5 265.5 c 128,-1,29
 446 263 446 263 428.5 256 c 128,-1,30
 411 249 411 249 393 240 c 128,-1,31
 375 231 375 231 357 226.5 c 128,-1,32
 339 222 339 222 321 224.5 c 128,-1,33
 303 227 303 227 286 243 c 1,34,35
 277 282 277 282 293.5 329.5 c 128,-1,36
 310 377 310 377 342.5 424 c 128,-1,37
 375 471 375 471 418.5 511 c 128,-1,38
 462 551 462 551 507.5 575 c 128,-1,39
 553 599 553 599 595.5 600.5 c 128,-1,40
 638 602 638 602 668 572 c 0,41,42
 674 566 674 566 659 557 c 128,-1,43
 644 548 644 548 617.5 536 c 128,-1,44
 591 524 591 524 557.5 510 c 128,-1,45
 524 496 524 496 491 481 c 128,-1,46
 458 466 458 466 430.5 449.5 c 128,-1,47
 403 433 403 433 390 417 c 0,48,49
 356 374 356 374 347.5 342 c 128,-1,50
 339 310 339 310 352 296 c 128,-1,51
 365 282 365 282 397.5 288.5 c 128,-1,52
 430 295 430 295 477 330 c 0,53,54
 488 338 488 338 497 359.5 c 128,-1,55
 506 381 506 381 517 400 c 128,-1,56
 528 419 528 419 543 427 c 128,-1,57
 558 435 558 435 581 417 c 1,58,59
 584 403 584 403 578.5 386.5 c 128,-1,60
 573 370 573 370 567 353.5 c 128,-1,61
 561 337 561 337 558 322 c 128,-1,62
 555 307 555 307 563 295 c 0,63,64
 574 278 574 278 594 272.5 c 128,-1,65
 614 267 614 267 637.5 270 c 128,-1,66
 661 273 661 273 686.5 282 c 128,-1,67
 712 291 712 291 735.5 302.5 c 128,-1,68
 759 314 759 314 777.5 326 c 128,-1,69
 796 338 796 338 807 347 c 0,70,71
 877 407 877 407 906 468.5 c 128,-1,72
 935 530 935 530 932 587 c 128,-1,73
 929 644 929 644 899 693.5 c 128,-1,74
 869 743 869 743 820.5 780.5 c 128,-1,75
 772 818 772 818 710 839.5 c 128,-1,76
 648 861 648 861 581 862 c 128,-1,77
 514 863 514 863 446.5 839.5 c 128,-1,78
 379 816 379 816 321 764 c 0,79,80
 287 733 287 733 245 684.5 c 128,-1,81
 203 636 203 636 166 578 c 128,-1,82
 129 520 129 520 101.5 456.5 c 128,-1,83
 74 393 74 393 68 332 c 128,-1,84
 62 271 62 271 83.5 216.5 c 128,-1,85
 105 162 105 162 165 122 c 0,86,87
 167 120 167 120 176 115 c 128,-1,88
 185 110 185 110 196 104.5 c 128,-1,89
 207 99 207 99 217.5 94 c 128,-1,90
 228 89 228 89 233 87 c 0,91,92
 286 64 286 64 299 45 c 128,-1,93
 312 26 312 26 292.5 19 c 128,-1,94
 273 12 273 12 226 22.5 c 128,-1,95
 179 33 179 33 113 70 c 0,0,1
EndSplineSet
EndChar

StartChar: A
Encoding: 65 65 36
Width: 764
Flags: W
LayerCount: 2
Fore
SplineSet
592 191 m 0,0,1
 591 196 591 196 584.5 209 c 128,-1,2
 578 222 578 222 574 226 c 1,3,4
 563 230 563 230 533.5 239.5 c 128,-1,5
 504 249 504 249 471 260.5 c 128,-1,6
 438 272 438 272 408.5 282 c 128,-1,7
 379 292 379 292 367 296 c 0,8,9
 364 297 364 297 354 302.5 c 128,-1,10
 344 308 344 308 332 314.5 c 128,-1,11
 320 321 320 321 310 326 c 128,-1,12
 300 331 300 331 297 331 c 0,13,14
 278 331 278 331 261 308 c 128,-1,15
 244 285 244 285 227 251 c 128,-1,16
 210 217 210 217 191 178.5 c 128,-1,17
 172 140 172 140 149 109 c 128,-1,18
 126 78 126 78 98.5 60.5 c 128,-1,19
 71 43 71 43 37 52 c 1,20,-1
 37 87 l 1,21,22
 44 96 44 96 59.5 115 c 128,-1,23
 75 134 75 134 93.5 158 c 128,-1,24
 112 182 112 182 133 208.5 c 128,-1,25
 154 235 154 235 172.5 259 c 128,-1,26
 191 283 191 283 205.5 302 c 128,-1,27
 220 321 220 321 227 331 c 0,28,29
 240 348 240 348 231.5 378.5 c 128,-1,30
 223 409 223 409 206.5 444 c 128,-1,31
 190 479 190 479 171 514 c 128,-1,32
 152 549 152 549 144 574 c 128,-1,33
 136 599 136 599 145 610 c 128,-1,34
 154 621 154 621 194 608 c 1,35,36
 208 566 208 566 233 522 c 128,-1,37
 258 478 258 478 297 452 c 1,38,39
 329 473 329 473 357.5 509 c 128,-1,40
 386 545 386 545 410.5 590 c 128,-1,41
 435 635 435 635 455.5 685.5 c 128,-1,42
 476 736 476 736 492.5 785.5 c 128,-1,43
 509 835 509 835 521 879 c 128,-1,44
 533 923 533 923 541 955 c 1,45,46
 549 969 549 969 563.5 977 c 128,-1,47
 578 985 578 985 592 990 c 1,48,49
 599 981 599 981 601 946 c 128,-1,50
 603 911 603 911 603 860.5 c 128,-1,51
 603 810 603 810 601.5 748.5 c 128,-1,52
 600 687 600 687 599.5 624.5 c 128,-1,53
 599 562 599 562 600 502.5 c 128,-1,54
 601 443 601 443 605.5 397.5 c 128,-1,55
 610 352 610 352 619 324 c 128,-1,56
 628 296 628 296 644 296 c 2,57,-1
 749 296 l 1,58,-1
 749 234 l 1,59,-1
 662 234 l 2,60,61
 644 234 644 234 648 211.5 c 128,-1,62
 652 189 652 189 666.5 154 c 128,-1,63
 681 119 681 119 700.5 76.5 c 128,-1,64
 720 34 720 34 733.5 -5 c 128,-1,65
 747 -44 747 -44 749 -76 c 128,-1,66
 751 -108 751 -108 731 -121 c 0,67,68
 727 -123 727 -123 713.5 -123 c 128,-1,69
 700 -123 700 -123 696 -121 c 1,70,71
 691 -103 691 -103 676 -59 c 128,-1,72
 661 -15 661 -15 644.5 35 c 128,-1,73
 628 85 628 85 613 129 c 128,-1,74
 598 173 598 173 592 191 c 0,0,1
419 348 m 0,75,76
 425 345 425 345 441.5 337.5 c 128,-1,77
 458 330 458 330 477.5 321.5 c 128,-1,78
 497 313 497 313 515 306 c 128,-1,79
 533 299 533 299 541 296 c 0,80,81
 543 295 543 295 549 295 c 128,-1,82
 555 295 555 295 557 296 c 1,83,84
 561 337 561 337 557 399 c 128,-1,85
 553 461 553 461 546.5 526 c 128,-1,86
 540 591 540 591 533 650.5 c 128,-1,87
 526 710 526 710 523 746 c 1,88,-1
 332 399 l 1,89,90
 336 396 336 396 348.5 388.5 c 128,-1,91
 361 381 361 381 374.5 372.5 c 128,-1,92
 388 364 388 364 400.5 357 c 128,-1,93
 413 350 413 350 419 348 c 0,75,76
EndSplineSet
EndChar

StartChar: B
Encoding: 66 66 37
Width: 859
Flags: W
LayerCount: 2
Fore
SplineSet
251 17 m 0,0,1
 249 23 249 23 249 36 c 128,-1,2
 249 49 249 49 251 52 c 0,3,4
 252 53 252 53 256.5 55.5 c 128,-1,5
 261 58 261 58 266.5 61 c 128,-1,6
 272 64 272 64 277.5 66.5 c 128,-1,7
 283 69 283 69 286 70 c 0,8,9
 330 82 330 82 373.5 96 c 128,-1,10
 417 110 417 110 459 128 c 128,-1,11
 501 146 501 146 540 169.5 c 128,-1,12
 579 193 579 193 615 225 c 0,13,14
 701 303 701 303 738.5 359.5 c 128,-1,15
 776 416 776 416 778 455 c 128,-1,16
 780 494 780 494 753.5 517.5 c 128,-1,17
 727 541 727 541 686.5 552.5 c 128,-1,18
 646 564 646 564 597.5 565 c 128,-1,19
 549 566 549 566 507.5 560 c 128,-1,20
 466 554 466 554 437.5 543 c 128,-1,21
 409 532 409 532 408 520 c 2,22,-1
 373 173 l 2,23,24
 372 164 372 164 363.5 159.5 c 128,-1,25
 355 155 355 155 345.5 155 c 128,-1,26
 336 155 336 155 328.5 159.5 c 128,-1,27
 321 164 321 164 321 173 c 2,28,-1
 321 452 l 1,29,-1
 251 452 l 1,30,31
 250 454 250 454 250 460.5 c 128,-1,32
 250 467 250 467 251 469 c 0,33,34
 255 474 255 474 264.5 486.5 c 128,-1,35
 274 499 274 499 285 513 c 128,-1,36
 296 527 296 527 306 539 c 128,-1,37
 316 551 316 551 321 555 c 1,38,39
 322 568 322 568 324.5 600 c 128,-1,40
 327 632 327 632 329.5 668 c 128,-1,41
 332 704 332 704 334.5 736.5 c 128,-1,42
 337 769 337 769 338 781 c 0,43,44
 340 808 340 808 332.5 819.5 c 128,-1,45
 325 831 325 831 312 831.5 c 128,-1,46
 299 832 299 832 283 824.5 c 128,-1,47
 267 817 267 817 251 806 c 128,-1,48
 235 795 235 795 221 783 c 128,-1,49
 207 771 207 771 199 764 c 0,50,51
 191 756 191 756 171 736.5 c 128,-1,52
 151 717 151 717 129 694.5 c 128,-1,53
 107 672 107 672 87 652.5 c 128,-1,54
 67 633 67 633 60 625 c 1,55,-1
 8 625 l 1,56,57
 -1 653 -1 653 19.5 684.5 c 128,-1,58
 40 716 40 716 81 749 c 128,-1,59
 122 782 122 782 178.5 815 c 128,-1,60
 235 848 235 848 298 877.5 c 128,-1,61
 361 907 361 907 424.5 932 c 128,-1,62
 488 957 488 957 543.5 974.5 c 128,-1,63
 599 992 599 992 641 1001 c 128,-1,64
 683 1010 683 1010 702 1007 c 1,65,66
 720 1003 720 1003 725 987 c 128,-1,67
 730 971 730 971 727 951.5 c 128,-1,68
 724 932 724 932 716.5 913 c 128,-1,69
 709 894 709 894 702 885 c 0,70,71
 671 841 671 841 645 805.5 c 128,-1,72
 619 770 619 770 591.5 738.5 c 128,-1,73
 564 707 564 707 532.5 675.5 c 128,-1,74
 501 644 501 644 460 607 c 1,75,76
 494 601 494 601 525.5 605 c 128,-1,77
 557 609 557 609 587.5 613.5 c 128,-1,78
 618 618 618 618 650.5 618.5 c 128,-1,79
 683 619 683 619 720 607 c 0,80,81
 742 600 742 600 759 592 c 128,-1,82
 776 584 776 584 788.5 573 c 128,-1,83
 801 562 801 562 809.5 545.5 c 128,-1,84
 818 529 818 529 824 504 c 0,85,86
 837 444 837 444 814 387 c 128,-1,87
 791 330 791 330 744.5 279 c 128,-1,88
 698 228 698 228 636 183.5 c 128,-1,89
 574 139 574 139 510 103 c 128,-1,90
 446 67 446 67 386.5 41 c 128,-1,91
 327 15 327 15 286 0 c 0,92,93
 275 -5 275 -5 265 1.5 c 128,-1,94
 255 8 255 8 251 17 c 0,0,1
408 625 m 1,95,96
 415 631 415 631 428.5 644.5 c 128,-1,97
 442 658 442 658 459.5 675 c 128,-1,98
 477 692 477 692 496 710.5 c 128,-1,99
 515 729 515 729 531.5 746.5 c 128,-1,100
 548 764 548 764 561.5 778 c 128,-1,101
 575 792 575 792 581 799 c 0,102,103
 591 809 591 809 605.5 828.5 c 128,-1,104
 620 848 620 848 634 867.5 c 128,-1,105
 648 887 648 887 658 902 c 128,-1,106
 668 917 668 917 668 920 c 2,107,-1
 668 972 l 1,108,109
 638 977 638 977 597.5 967 c 128,-1,110
 557 957 557 957 517 941.5 c 128,-1,111
 477 926 477 926 442.5 909.5 c 128,-1,112
 408 893 408 893 390 885 c 1,113,-1
 408 851 l 1,114,-1
 408 625 l 1,95,96
EndSplineSet
EndChar

StartChar: C
Encoding: 67 67 38
Width: 634
Flags: W
LayerCount: 2
Fore
SplineSet
139 17 m 0,0,1
 98 33 98 33 72.5 74.5 c 128,-1,2
 47 116 47 116 36 171.5 c 128,-1,3
 25 227 25 227 28 292 c 128,-1,4
 31 357 31 357 45.5 422 c 128,-1,5
 60 487 60 487 85 546 c 128,-1,6
 110 605 110 605 144 648.5 c 128,-1,7
 178 692 178 692 220.5 714.5 c 128,-1,8
 263 737 263 737 312 729 c 1,9,10
 314 719 314 719 319.5 694.5 c 128,-1,11
 325 670 325 670 330.5 642 c 128,-1,12
 336 614 336 614 340.5 589.5 c 128,-1,13
 345 565 345 565 347 555 c 0,14,15
 349 544 349 544 340 531 c 128,-1,16
 331 518 331 518 318.5 510 c 128,-1,17
 306 502 306 502 294 502.5 c 128,-1,18
 282 503 282 503 278 520 c 0,19,20
 275 530 275 530 273 549 c 128,-1,21
 271 568 271 568 268 589 c 128,-1,22
 265 610 265 610 260 628.5 c 128,-1,23
 255 647 255 647 246 655 c 128,-1,24
 237 663 237 663 223.5 657.5 c 128,-1,25
 210 652 210 652 191 625 c 0,26,27
 185 617 185 617 176.5 603.5 c 128,-1,28
 168 590 168 590 159.5 576 c 128,-1,29
 151 562 151 562 145 551 c 128,-1,30
 139 540 139 540 139 538 c 2,31,-1
 87 260 l 2,32,33
 78 214 78 214 88 177.5 c 128,-1,34
 98 141 98 141 120 115.5 c 128,-1,35
 142 90 142 90 174 75.5 c 128,-1,36
 206 61 206 61 241.5 59.5 c 128,-1,37
 277 58 277 58 313.5 68.5 c 128,-1,38
 350 79 350 79 382 104 c 0,39,40
 394 113 394 113 413.5 138 c 128,-1,41
 433 163 433 163 455 194.5 c 128,-1,42
 477 226 477 226 501 260.5 c 128,-1,43
 525 295 525 295 546 322.5 c 128,-1,44
 567 350 567 350 583 367 c 128,-1,45
 599 384 599 384 607 382 c 1,46,47
 622 338 622 338 605.5 289 c 128,-1,48
 589 240 589 240 551.5 193.5 c 128,-1,49
 514 147 514 147 461.5 107 c 128,-1,50
 409 67 409 67 352 41 c 128,-1,51
 295 15 295 15 239 7 c 128,-1,52
 183 -1 183 -1 139 17 c 0,0,1
EndSplineSet
EndChar

StartChar: D
Encoding: 68 68 39
Width: 702
Flags: W
LayerCount: 2
Fore
SplineSet
275 80 m 2,0,1
 277 81 277 81 279.5 105.5 c 128,-1,2
 282 130 282 130 285 163 c 128,-1,3
 288 196 288 196 290 231 c 128,-1,4
 292 266 292 266 293 289 c 0,5,6
 293 302 293 302 293.5 326 c 128,-1,7
 294 350 294 350 294 379.5 c 128,-1,8
 294 409 294 409 294.5 441 c 128,-1,9
 295 473 295 473 294.5 501.5 c 128,-1,10
 294 530 294 530 293.5 552 c 128,-1,11
 293 574 293 574 293 584 c 0,12,13
 293 588 293 588 290.5 598 c 128,-1,14
 288 608 288 608 285.5 619 c 128,-1,15
 283 630 283 630 280 639.5 c 128,-1,16
 277 649 277 649 275 653 c 1,17,18
 240 656 240 656 204 649 c 128,-1,19
 168 642 168 642 133 633 c 128,-1,20
 98 624 98 624 63.5 618 c 128,-1,21
 29 612 29 612 -2 618 c 1,22,23
 -10 635 -10 635 13.5 652.5 c 128,-1,24
 37 670 37 670 82 683.5 c 128,-1,25
 127 697 127 697 187 705.5 c 128,-1,26
 247 714 247 714 311 713 c 128,-1,27
 375 712 375 712 437 699.5 c 128,-1,28
 499 687 499 687 548 659.5 c 128,-1,29
 597 632 597 632 627 588 c 128,-1,30
 657 544 657 544 657 479 c 0,31,32
 657 456 657 456 649 430 c 128,-1,33
 641 404 641 404 628.5 378 c 128,-1,34
 616 352 616 352 600.5 328.5 c 128,-1,35
 585 305 585 305 570 289 c 0,36,37
 563 281 563 281 547 264.5 c 128,-1,38
 531 248 531 248 510.5 227 c 128,-1,39
 490 206 490 206 467 183.5 c 128,-1,40
 444 161 444 161 423.5 140.5 c 128,-1,41
 403 120 403 120 386.5 104 c 128,-1,42
 370 88 370 88 362 80 c 1,43,44
 359 56 359 56 354 36 c 128,-1,45
 349 16 349 16 339 5 c 128,-1,46
 329 -6 329 -6 313.5 -5.5 c 128,-1,47
 298 -5 298 -5 275 11 c 1,48,49
 253 -4 253 -4 228.5 -31.5 c 128,-1,50
 204 -59 204 -59 178 -84.5 c 128,-1,51
 152 -110 152 -110 124 -125 c 128,-1,52
 96 -140 96 -140 68 -128 c 1,53,-1
 68 -93 l 1,54,-1
 275 80 l 2,0,1
362 150 m 1,55,56
 425 176 425 176 473.5 226.5 c 128,-1,57
 522 277 522 277 550.5 337 c 128,-1,58
 579 397 579 397 585 458.5 c 128,-1,59
 591 520 591 520 570 567 c 128,-1,60
 549 614 549 614 498.5 639.5 c 128,-1,61
 448 665 448 665 362 653 c 1,62,-1
 362 150 l 1,55,56
EndSplineSet
EndChar

StartChar: E
Encoding: 69 69 40
Width: 477
Flags: W
LayerCount: 2
Fore
SplineSet
87 17 m 0,0,1
 48 46 48 46 35.5 86 c 128,-1,2
 23 126 23 126 17 173 c 1,3,4
 19 187 19 187 22 217 c 128,-1,5
 25 247 25 247 29 284.5 c 128,-1,6
 33 322 33 322 36.5 364 c 128,-1,7
 40 406 40 406 43.5 443.5 c 128,-1,8
 47 481 47 481 49 511 c 128,-1,9
 51 541 51 541 52 555 c 0,10,11
 53 563 53 563 53 583 c 2,12,-1
 53 666 l 2,13,14
 53 686 53 686 52 694 c 1,15,-1
 70 712 l 1,16,-1
 382 816 l 1,17,-1
 417 816 l 1,18,19
 422 802 422 802 418.5 786 c 128,-1,20
 415 770 415 770 399 764 c 2,21,-1
 139 659 l 1,22,-1
 122 642 l 2,23,24
 121 641 121 641 119 621 c 128,-1,25
 117 601 117 601 114 573.5 c 128,-1,26
 111 546 111 546 108 517 c 128,-1,27
 105 488 105 488 104 469 c 0,28,29
 104 464 104 464 103.5 451.5 c 128,-1,30
 103 439 103 439 103 425.5 c 128,-1,31
 103 412 103 412 103.5 399.5 c 128,-1,32
 104 387 104 387 104 382 c 1,33,-1
 399 538 l 2,34,35
 406 542 406 542 409.5 536 c 128,-1,36
 413 530 413 530 413 520 c 128,-1,37
 413 510 413 510 409.5 500 c 128,-1,38
 406 490 406 490 399 486 c 0,39,40
 382 475 382 475 357.5 461 c 128,-1,41
 333 447 333 447 306.5 431.5 c 128,-1,42
 280 416 280 416 253.5 401 c 128,-1,43
 227 386 227 386 206 374 c 128,-1,44
 185 362 185 362 171.5 354.5 c 128,-1,45
 158 347 158 347 157 347 c 2,46,-1
 87 347 l 1,47,-1
 87 122 l 2,48,49
 87 76 87 76 107.5 63 c 128,-1,50
 128 50 128 50 159.5 57.5 c 128,-1,51
 191 65 191 65 228 87 c 128,-1,52
 265 109 265 109 297.5 134 c 128,-1,53
 330 159 330 159 353.5 180.5 c 128,-1,54
 377 202 377 202 382 208 c 1,55,56
 386 233 386 233 393 249 c 0,57,58
 399 263 399 263 409 269 c 128,-1,59
 419 275 419 275 434 260 c 1,60,61
 440 229 440 229 424.5 193 c 128,-1,62
 409 157 409 157 380 123 c 128,-1,63
 351 89 351 89 311.5 60.5 c 128,-1,64
 272 32 272 32 231.5 15.5 c 128,-1,65
 191 -1 191 -1 153 -2.5 c 128,-1,66
 115 -4 115 -4 87 17 c 0,0,1
EndSplineSet
EndChar

StartChar: F
Encoding: 70 70 41
Width: 677
Flags: W
LayerCount: 2
Fore
SplineSet
338 17 m 2,0,1
 337 18 337 18 336.5 34 c 128,-1,2
 336 50 336 50 336 72.5 c 128,-1,3
 336 95 336 95 336.5 118.5 c 128,-1,4
 337 142 337 142 338 157 c 0,5,6
 338 159 338 159 341 179.5 c 128,-1,7
 344 200 344 200 348 228 c 128,-1,8
 352 256 352 256 354 284.5 c 128,-1,9
 356 313 356 313 355 330 c 1,10,11
 353 331 353 331 346.5 331 c 128,-1,12
 340 331 340 331 338 330 c 0,13,14
 330 327 330 327 310 317 c 128,-1,15
 290 307 290 307 268 295.5 c 128,-1,16
 246 284 246 284 226 274 c 128,-1,17
 206 264 206 264 199 260 c 1,18,19
 175 272 175 272 178.5 286 c 128,-1,20
 182 300 182 300 201.5 314.5 c 128,-1,21
 221 329 221 329 251.5 345 c 128,-1,22
 282 361 282 361 311.5 378 c 128,-1,23
 341 395 341 395 363.5 413.5 c 128,-1,24
 386 432 386 432 390 452 c 2,25,-1
 460 781 l 2,26,27
 463 794 463 794 458 802.5 c 128,-1,28
 453 811 453 811 444.5 815 c 128,-1,29
 436 819 436 819 425.5 819 c 128,-1,30
 415 819 415 819 408 816 c 0,31,32
 394 811 394 811 371.5 800.5 c 128,-1,33
 349 790 349 790 326.5 779 c 128,-1,34
 304 768 304 768 287 758.5 c 128,-1,35
 270 749 270 749 268 746 c 2,36,-1
 43 504 l 2,37,38
 34 493 34 493 28 497 c 128,-1,39
 22 501 22 501 19.5 511.5 c 128,-1,40
 17 522 17 522 18.5 535 c 128,-1,41
 20 548 20 548 26 555 c 1,42,43
 32 564 32 564 45.5 582 c 128,-1,44
 59 600 59 600 76 622 c 128,-1,45
 93 644 93 644 112 669 c 128,-1,46
 131 694 131 694 148 716 c 128,-1,47
 165 738 165 738 178.5 755.5 c 128,-1,48
 192 773 192 773 199 781 c 1,49,50
 239 785 239 785 274.5 804 c 128,-1,51
 310 823 310 823 345 841.5 c 128,-1,52
 380 860 380 860 416.5 870 c 128,-1,53
 453 880 453 880 495 867 c 1,54,55
 518 844 518 844 523.5 811 c 128,-1,56
 529 778 529 778 523.5 739.5 c 128,-1,57
 518 701 518 701 505.5 660 c 128,-1,58
 493 619 493 619 481.5 580.5 c 128,-1,59
 470 542 470 542 462.5 508.5 c 128,-1,60
 455 475 455 475 460 452 c 1,61,62
 484 444 484 444 507 453.5 c 128,-1,63
 530 463 530 463 553.5 476.5 c 128,-1,64
 577 490 577 490 601 500.5 c 128,-1,65
 625 511 625 511 650 504 c 1,66,67
 655 490 655 490 646.5 475 c 128,-1,68
 638 460 638 460 633 452 c 1,69,70
 623 449 623 449 598 439.5 c 128,-1,71
 573 430 573 430 545.5 418.5 c 128,-1,72
 518 407 518 407 493.5 397 c 128,-1,73
 469 387 469 387 460 382 c 0,74,75
 457 380 457 380 452 375.5 c 128,-1,76
 447 371 447 371 441 365.5 c 128,-1,77
 435 360 435 360 430.5 355 c 128,-1,78
 426 350 426 350 425 347 c 0,79,80
 422 334 422 334 417 302 c 128,-1,81
 412 270 412 270 406 234.5 c 128,-1,82
 400 199 400 199 395.5 167 c 128,-1,83
 391 135 391 135 390 122 c 0,84,85
 388 109 388 109 390.5 90.5 c 128,-1,86
 393 72 393 72 392.5 54 c 128,-1,87
 392 36 392 36 384.5 21 c 128,-1,88
 377 6 377 6 355 0 c 1,89,-1
 338 17 l 2,0,1
EndSplineSet
EndChar

StartChar: G
Encoding: 71 71 42
Width: 599
Flags: W
LayerCount: 2
Fore
SplineSet
104 52 m 0,0,1
 73 75 73 75 57.5 116 c 128,-1,2
 42 157 42 157 36 203 c 128,-1,3
 30 249 30 249 31 292.5 c 128,-1,4
 32 336 32 336 35 365 c 0,5,6
 36 376 36 376 40.5 405.5 c 128,-1,7
 45 435 45 435 50.5 468.5 c 128,-1,8
 56 502 56 502 61.5 531.5 c 128,-1,9
 67 561 67 561 70 572 c 0,10,11
 96 680 96 680 127.5 746 c 128,-1,12
 159 812 159 812 191.5 846.5 c 128,-1,13
 224 881 224 881 256 888 c 128,-1,14
 288 895 288 895 313.5 884.5 c 128,-1,15
 339 874 339 874 356.5 851 c 128,-1,16
 374 828 374 828 378.5 801.5 c 128,-1,17
 383 775 383 775 372 750 c 128,-1,18
 361 725 361 725 330 712 c 0,19,20
 325 710 325 710 317.5 708.5 c 128,-1,21
 310 707 310 707 303 707 c 128,-1,22
 296 707 296 707 291.5 708.5 c 128,-1,23
 287 710 287 710 287 712 c 2,24,-1
 287 816 l 2,25,26
 287 819 287 819 276.5 819 c 128,-1,27
 266 819 266 819 260 816 c 0,28,29
 227 797 227 797 200 753.5 c 128,-1,30
 173 710 173 710 152.5 659.5 c 128,-1,31
 132 609 132 609 119.5 561.5 c 128,-1,32
 107 514 107 514 104 486 c 0,33,34
 103 475 103 475 102 452 c 128,-1,35
 101 429 101 429 100.5 399.5 c 128,-1,36
 100 370 100 370 100 338 c 128,-1,37
 100 306 100 306 100.5 277 c 128,-1,38
 101 248 101 248 102 224.5 c 128,-1,39
 103 201 103 201 104 190 c 1,40,41
 104 173 104 173 113 154.5 c 128,-1,42
 122 136 122 136 135 119.5 c 128,-1,43
 148 103 148 103 163 89.5 c 128,-1,44
 178 76 178 76 191 70 c 0,45,46
 225 53 225 53 264.5 62 c 128,-1,47
 304 71 304 71 342.5 98 c 128,-1,48
 381 125 381 125 416 164 c 128,-1,49
 451 203 451 203 476.5 245 c 128,-1,50
 502 287 502 287 514.5 328 c 128,-1,51
 527 369 527 369 521 399 c 1,52,53
 484 404 484 404 447 397.5 c 128,-1,54
 410 391 410 391 373.5 382 c 128,-1,55
 337 373 337 373 300 366.5 c 128,-1,56
 263 360 263 360 225 365 c 1,57,58
 223 371 223 371 222.5 379 c 128,-1,59
 222 387 222 387 224 394.5 c 128,-1,60
 226 402 226 402 230.5 408 c 128,-1,61
 235 414 235 414 243 417 c 1,62,63
 279 417 279 417 323 431 c 128,-1,64
 367 445 367 445 412 460 c 128,-1,65
 457 475 457 475 499 485 c 128,-1,66
 541 495 541 495 572 486 c 1,67,68
 578 430 578 430 562 363 c 128,-1,69
 546 296 546 296 514 233 c 128,-1,70
 482 170 482 170 436.5 117 c 128,-1,71
 391 64 391 64 337 34.5 c 128,-1,72
 283 5 283 5 223.5 6 c 128,-1,73
 164 7 164 7 104 52 c 0,0,1
EndSplineSet
EndChar

StartChar: H
Encoding: 72 72 43
Width: 772
Flags: W
LayerCount: 2
Fore
SplineSet
442 486 m 2,0,1
 442 487 442 487 435.5 487 c 128,-1,2
 429 487 429 487 425 486 c 0,3,4
 390 473 390 473 368.5 463.5 c 128,-1,5
 347 454 347 454 332 447 c 128,-1,6
 317 440 317 440 305 434.5 c 128,-1,7
 293 429 293 429 278 423.5 c 128,-1,8
 263 418 263 418 240.5 412.5 c 128,-1,9
 218 407 218 407 182 399 c 1,10,-1
 182 52 l 2,11,12
 182 34 182 34 174 33 c 128,-1,13
 166 32 166 32 156.5 40.5 c 128,-1,14
 147 49 147 49 138.5 62.5 c 128,-1,15
 130 76 130 76 130 87 c 0,16,17
 129 110 129 110 127 142.5 c 128,-1,18
 125 175 125 175 123.5 209.5 c 128,-1,19
 122 244 122 244 120 278 c 128,-1,20
 118 312 118 312 116.5 339 c 128,-1,21
 115 366 115 366 114 382 c 2,22,-1
 113 399 l 1,23,-1
 26 434 l 2,24,25
 24 435 24 435 24 441 c 128,-1,26
 24 447 24 447 26 452 c 0,27,28
 31 462 31 462 42.5 468.5 c 128,-1,29
 54 475 54 475 67 478.5 c 128,-1,30
 80 482 80 482 92.5 483.5 c 128,-1,31
 105 485 105 485 113 486 c 1,32,33
 113 501 113 501 115 538 c 128,-1,34
 117 575 117 575 120 616.5 c 128,-1,35
 123 658 123 658 125.5 695 c 128,-1,36
 128 732 128 732 130 746 c 0,37,38
 130 749 130 749 135.5 761.5 c 128,-1,39
 141 774 141 774 148.5 789 c 128,-1,40
 156 804 156 804 165 817 c 128,-1,41
 174 830 174 830 181.5 835 c 128,-1,42
 189 840 189 840 194 832.5 c 128,-1,43
 199 825 199 825 199 799 c 0,44,45
 199 793 199 793 196.5 772.5 c 128,-1,46
 194 752 194 752 190.5 729 c 128,-1,47
 187 706 187 706 184.5 685.5 c 128,-1,48
 182 665 182 665 182 659 c 0,49,50
 181 648 181 648 180.5 621.5 c 128,-1,51
 180 595 180 595 180 564.5 c 128,-1,52
 180 534 180 534 180.5 507 c 128,-1,53
 181 480 181 480 182 469 c 1,54,55
 207 463 207 463 248 467 c 128,-1,56
 289 471 289 471 330.5 483.5 c 128,-1,57
 372 496 372 496 408 514.5 c 128,-1,58
 444 533 444 533 460 555 c 0,59,60
 479 583 479 583 489 619 c 128,-1,61
 499 655 499 655 507 692.5 c 128,-1,62
 515 730 515 730 527 767 c 128,-1,63
 539 804 539 804 563 834 c 0,64,65
 592 869 592 869 620.5 882 c 128,-1,66
 649 895 649 895 673 891.5 c 128,-1,67
 697 888 697 888 714.5 870.5 c 128,-1,68
 732 853 732 853 737.5 828 c 128,-1,69
 743 803 743 803 735.5 772.5 c 128,-1,70
 728 742 728 742 702 712 c 0,71,72
 695 704 695 704 680.5 689 c 128,-1,73
 666 674 666 674 647.5 655 c 128,-1,74
 629 636 629 636 608.5 615 c 128,-1,75
 588 594 588 594 569 575.5 c 128,-1,76
 550 557 550 557 534.5 542 c 128,-1,77
 519 527 519 527 512 520 c 1,78,79
 506 460 506 460 508 395 c 128,-1,80
 510 330 510 330 518 265 c 128,-1,81
 526 200 526 200 538 137 c 128,-1,82
 550 74 550 74 563 17 c 1,83,-1
 495 17 l 1,84,-1
 442 486 l 2,0,1
563 729 m 0,85,86
 561 722 561 722 556 705 c 128,-1,87
 551 688 551 688 545.5 668.5 c 128,-1,88
 540 649 540 649 535.5 631.5 c 128,-1,89
 531 614 531 614 529 607 c 1,90,91
 559 622 559 622 584.5 649 c 128,-1,92
 610 676 610 676 629 706 c 128,-1,93
 648 736 648 736 660.5 765 c 128,-1,94
 673 794 673 794 676.5 814 c 128,-1,95
 680 834 680 834 674 841 c 128,-1,96
 668 848 668 848 650 834 c 0,97,98
 624 812 624 812 599.5 787 c 128,-1,99
 575 762 575 762 563 729 c 0,85,86
EndSplineSet
EndChar

StartChar: I
Encoding: 73 73 44
Width: 807
Flags: W
LayerCount: 2
Fore
SplineSet
8 -93 m 1,0,1
 4 -86 4 -86 8 -77.5 c 128,-1,2
 12 -69 12 -69 18.5 -61.5 c 128,-1,3
 25 -54 25 -54 32.5 -48.5 c 128,-1,4
 40 -43 40 -43 43 -41 c 2,5,-1
 303 62 l 1,6,-1
 321 80 l 1,7,8
 320 97 320 97 319.5 132.5 c 128,-1,9
 319 168 319 168 319 212 c 2,10,-1
 319 399 l 2,11,12
 319 444 319 444 319.5 479 c 128,-1,13
 320 514 320 514 321 531 c 0,14,15
 321 537 321 537 323.5 552 c 128,-1,16
 326 567 326 567 328.5 584 c 128,-1,17
 331 601 331 601 333.5 615.5 c 128,-1,18
 336 630 336 630 338 636 c 1,19,-1
 113 636 l 2,20,21
 100 636 100 636 96.5 643 c 128,-1,22
 93 650 93 650 95 659 c 128,-1,23
 97 668 97 668 102.5 676.5 c 128,-1,24
 108 685 108 685 113 688 c 1,25,26
 235 679 235 679 355 706 c 1,27,28
 376 754 376 754 413 780 c 128,-1,29
 450 806 450 806 495 815 c 128,-1,30
 540 824 540 824 588.5 818.5 c 128,-1,31
 637 813 637 813 679.5 799 c 128,-1,32
 722 785 722 785 754.5 765 c 128,-1,33
 787 745 787 745 800 724.5 c 128,-1,34
 813 704 813 704 803 686.5 c 128,-1,35
 793 669 793 669 750.5 659.5 c 128,-1,36
 708 650 708 650 629 651.5 c 128,-1,37
 550 653 550 653 425 671 c 1,38,39
 400 635 400 635 386.5 589 c 128,-1,40
 373 543 373 543 368.5 492 c 128,-1,41
 364 441 364 441 366.5 387.5 c 128,-1,42
 369 334 369 334 375.5 282.5 c 128,-1,43
 382 231 382 231 391 183.5 c 128,-1,44
 400 136 400 136 408 97 c 1,45,46
 438 91 438 91 468.5 95.5 c 128,-1,47
 499 100 499 100 529.5 110 c 128,-1,48
 560 120 560 120 590 132.5 c 128,-1,49
 620 145 620 145 650.5 155 c 128,-1,50
 681 165 681 165 711 169.5 c 128,-1,51
 741 174 741 174 772 167 c 1,52,53
 777 154 777 154 774 137 c 128,-1,54
 771 120 771 120 755 115 c 1,55,56
 674 100 674 100 579.5 79.5 c 128,-1,57
 485 59 485 59 387.5 31 c 128,-1,58
 290 3 290 3 197 -32 c 128,-1,59
 104 -67 104 -67 26 -111 c 1,60,-1
 8 -93 l 1,0,1
425 723 m 1,61,62
 537 702 537 702 603.5 697 c 128,-1,63
 670 692 670 692 701 696.5 c 128,-1,64
 732 701 732 701 733 712.5 c 128,-1,65
 734 724 734 724 714 736 c 128,-1,66
 694 748 694 748 659 757.5 c 128,-1,67
 624 767 624 767 583 768.5 c 128,-1,68
 542 770 542 770 500 760 c 128,-1,69
 458 750 458 750 425 723 c 1,61,62
EndSplineSet
EndChar

StartChar: J
Encoding: 74 74 45
Width: 633
Flags: W
LayerCount: 2
Fore
SplineSet
191 -155 m 0,0,1
 155 -131 155 -131 151 -82 c 128,-1,2
 147 -33 147 -33 163.5 27 c 128,-1,3
 180 87 180 87 210.5 152.5 c 128,-1,4
 241 218 241 218 274.5 275 c 128,-1,5
 308 332 308 332 338 375.5 c 128,-1,6
 368 419 368 419 383 435 c 1,7,8
 384 439 384 439 384 452.5 c 128,-1,9
 384 466 384 466 383 470 c 0,10,11
 381 482 381 482 376.5 511.5 c 128,-1,12
 372 541 372 541 366.5 574.5 c 128,-1,13
 361 608 361 608 355.5 637.5 c 128,-1,14
 350 667 350 667 348 679 c 1,15,16
 343 688 343 688 333.5 694 c 128,-1,17
 324 700 324 700 313 695 c 2,18,-1
 36 592 l 2,19,20
 24 587 24 587 15 593 c 128,-1,21
 6 599 6 599 2 609 c 128,-1,22
 -2 619 -2 619 1.5 629 c 128,-1,23
 5 639 5 639 18 644 c 2,24,-1
 591 835 l 1,25,-1
 643 835 l 1,26,27
 650 814 650 814 647 804.5 c 128,-1,28
 644 795 644 795 635.5 791 c 128,-1,29
 627 787 627 787 615 786 c 128,-1,30
 603 785 603 785 591 782 c 0,31,32
 581 779 581 779 556.5 772 c 128,-1,33
 532 765 532 765 504 756.5 c 128,-1,34
 476 748 476 748 451.5 740.5 c 128,-1,35
 427 733 427 733 418 730 c 1,36,37
 412 673 412 673 421 615.5 c 128,-1,38
 430 558 430 558 453 505 c 1,39,-1
 626 592 l 2,40,41
 640 599 640 599 653.5 594 c 128,-1,42
 667 589 667 589 673.5 579 c 128,-1,43
 680 569 680 569 678 557.5 c 128,-1,44
 676 546 676 546 660 540 c 0,45,46
 637 531 637 531 605.5 521.5 c 128,-1,47
 574 512 574 512 543 499 c 128,-1,48
 512 486 512 486 487 467 c 128,-1,49
 462 448 462 448 453 418 c 0,50,51
 449 408 449 408 446 371.5 c 128,-1,52
 443 335 443 335 438.5 283 c 128,-1,53
 434 231 434 231 426.5 170 c 128,-1,54
 419 109 419 109 407 50.5 c 128,-1,55
 395 -8 395 -8 377 -59 c 128,-1,56
 359 -110 359 -110 333 -141.5 c 128,-1,57
 307 -173 307 -173 272 -179 c 128,-1,58
 237 -185 237 -185 191 -155 c 0,0,1
226 -102 m 1,59,60
 240 -130 240 -130 257 -121.5 c 128,-1,61
 274 -113 274 -113 291.5 -83.5 c 128,-1,62
 309 -54 309 -54 325 -10.5 c 128,-1,63
 341 33 341 33 353.5 75 c 128,-1,64
 366 117 366 117 374 150 c 128,-1,65
 382 183 382 183 383 193 c 0,66,67
 384 202 384 202 384 226 c 2,68,-1
 384 331 l 2,69,70
 384 356 384 356 383 366 c 1,71,72
 341 322 341 322 308.5 265.5 c 128,-1,73
 276 209 276 209 255 147.5 c 128,-1,74
 234 86 234 86 226 22 c 128,-1,75
 218 -42 218 -42 226 -102 c 1,59,60
EndSplineSet
EndChar

StartChar: K
Encoding: 75 75 46
Width: 669
Flags: W
LayerCount: 2
Fore
SplineSet
572 17 m 1,0,1
 567 46 567 46 562.5 85.5 c 128,-1,2
 558 125 558 125 550.5 168 c 128,-1,3
 543 211 543 211 531.5 254 c 128,-1,4
 520 297 520 297 500.5 333.5 c 128,-1,5
 481 370 481 370 452 396.5 c 128,-1,6
 423 423 423 423 382 434 c 0,7,8
 374 436 374 436 362.5 437 c 128,-1,9
 351 438 351 438 339.5 438 c 128,-1,10
 328 438 328 438 320 437 c 128,-1,11
 312 436 312 436 312 434 c 2,12,-1
 278 122 l 2,13,14
 277 113 277 113 272.5 104 c 128,-1,15
 268 95 268 95 261.5 88.5 c 128,-1,16
 255 82 255 82 245.5 80.5 c 128,-1,17
 236 79 236 79 225 87 c 1,18,-1
 225 445 l 1,19,-1
 70 347 l 2,20,21
 58 340 58 340 40 345.5 c 128,-1,22
 22 351 22 351 17 365 c 1,23,24
 31 383 31 383 64.5 405 c 128,-1,25
 98 427 98 427 133 450 c 128,-1,26
 168 473 168 473 195.5 495.5 c 128,-1,27
 223 518 223 518 225 538 c 2,28,-1
 260 902 l 2,29,30
 261 911 261 911 268 915.5 c 128,-1,31
 275 920 275 920 283.5 921.5 c 128,-1,32
 292 923 292 923 300.5 922 c 128,-1,33
 309 921 309 921 312 920 c 1,34,-1
 312 590 l 1,35,-1
 365 625 l 1,36,-1
 572 885 l 1,37,-1
 607 885 l 1,38,39
 613 862 613 862 600.5 832 c 128,-1,40
 588 802 588 802 568.5 774 c 128,-1,41
 549 746 549 746 529.5 723.5 c 128,-1,42
 510 701 510 701 504 694 c 0,43,44
 497 687 497 687 482 673 c 128,-1,45
 467 659 467 659 448.5 641.5 c 128,-1,46
 430 624 430 624 409 605.5 c 128,-1,47
 388 587 388 587 369 570 c 128,-1,48
 350 553 350 553 335 539.5 c 128,-1,49
 320 526 320 526 312 520 c 1,50,51
 358 508 358 508 401.5 491.5 c 128,-1,52
 445 475 445 475 486 452 c 0,53,54
 511 437 511 437 530.5 404.5 c 128,-1,55
 550 372 550 372 565 330 c 128,-1,56
 580 288 580 288 590 241 c 128,-1,57
 600 194 600 194 605.5 150.5 c 128,-1,58
 611 107 611 107 611.5 70.5 c 128,-1,59
 612 34 612 34 608 13 c 128,-1,60
 604 -8 604 -8 595 -9 c 128,-1,61
 586 -10 586 -10 572 17 c 1,0,1
EndSplineSet
EndChar

StartChar: L
Encoding: 76 76 47
Width: 651
Flags: W
LayerCount: 2
Fore
SplineSet
17 729 m 2,0,1
 17 732 17 732 21 735 c 128,-1,2
 25 738 25 738 30.5 741 c 128,-1,3
 36 744 36 744 42 745.5 c 128,-1,4
 48 747 48 747 52 746 c 256,5,6
 56 745 56 745 62 740.5 c 128,-1,7
 68 736 68 736 73.5 731 c 128,-1,8
 79 726 79 726 83 720.5 c 128,-1,9
 87 715 87 715 87 712 c 2,10,-1
 87 157 l 1,11,12
 99 172 99 172 127.5 177.5 c 128,-1,13
 156 183 156 183 195 185 c 128,-1,14
 234 187 234 187 280.5 187.5 c 128,-1,15
 327 188 327 188 375 192.5 c 128,-1,16
 423 197 423 197 469.5 208.5 c 128,-1,17
 516 220 516 220 555 243 c 0,18,19
 592 265 592 265 605.5 265.5 c 128,-1,20
 619 266 619 266 615 253 c 128,-1,21
 611 240 611 240 591 219 c 128,-1,22
 571 198 571 198 541.5 177 c 128,-1,23
 512 156 512 156 475 140 c 128,-1,24
 438 124 438 124 399 122 c 0,25,26
 389 121 389 121 369 121 c 128,-1,27
 349 121 349 121 323 120.5 c 128,-1,28
 297 120 297 120 269 120.5 c 128,-1,29
 241 121 241 121 215 121 c 2,30,-1
 169 121 l 2,31,32
 149 121 149 121 139 122 c 1,33,34
 127 113 127 113 114.5 91.5 c 128,-1,35
 102 70 102 70 87.5 50 c 128,-1,36
 73 30 73 30 56 18 c 128,-1,37
 39 6 39 6 17 17 c 1,38,-1
 17 729 l 2,0,1
EndSplineSet
EndChar

StartChar: M
Encoding: 77 77 48
Width: 998
Flags: W
LayerCount: 2
Fore
SplineSet
807 17 m 0,0,1
 773 30 773 30 749.5 58.5 c 128,-1,2
 726 87 726 87 709.5 121.5 c 128,-1,3
 693 156 693 156 683.5 193 c 128,-1,4
 674 230 674 230 668 260 c 0,5,6
 665 276 665 276 660.5 310.5 c 128,-1,7
 656 345 656 345 650.5 387.5 c 128,-1,8
 645 430 645 430 639.5 477.5 c 128,-1,9
 634 525 634 525 629 567 c 2,10,-1
 620 644 l 2,11,12
 616 678 616 678 615 694 c 1,13,-1
 495 208 l 1,14,-1
 489 197 l 2,15,16
 485 188 485 188 477.5 177.5 c 128,-1,17
 470 167 470 167 461 157 c 128,-1,18
 452 147 452 147 442.5 142.5 c 128,-1,19
 433 138 433 138 424 140 c 128,-1,20
 415 142 415 142 408 157 c 2,21,-1
 147 677 l 1,22,-1
 78 157 l 2,23,24
 76 143 76 143 67 139.5 c 128,-1,25
 58 136 58 136 48.5 139.5 c 128,-1,26
 39 143 39 143 31.5 152 c 128,-1,27
 24 161 24 161 26 173 c 2,28,-1
 113 816 l 2,29,30
 113 820 113 820 120 826 c 128,-1,31
 127 832 127 832 136 836 c 128,-1,32
 145 840 145 840 153.5 840.5 c 128,-1,33
 162 841 162 841 165 834 c 2,34,-1
 438 227 l 1,35,-1
 598 834 l 2,36,37
 599 837 599 837 609 849.5 c 128,-1,38
 619 862 619 862 631 873 c 128,-1,39
 643 884 643 884 654 889.5 c 128,-1,40
 665 895 665 895 668 885 c 2,41,-1
 685 816 l 1,42,43
 688 748 688 748 690 658 c 128,-1,44
 692 568 692 568 701 473 c 128,-1,45
 710 378 710 378 730 286 c 128,-1,46
 750 194 750 194 790 122 c 0,47,48
 793 117 793 117 800 108.5 c 128,-1,49
 807 100 807 100 815 92 c 128,-1,50
 823 84 823 84 831 77.5 c 128,-1,51
 839 71 839 71 842 70 c 0,52,53
 852 66 852 66 869 69 c 128,-1,54
 886 72 886 72 904 73.5 c 128,-1,55
 922 75 922 75 938.5 71.5 c 128,-1,56
 955 68 955 68 963 52 c 256,57,58
 971 36 971 36 964.5 26.5 c 128,-1,59
 958 17 958 17 943 12 c 128,-1,60
 928 7 928 7 908 6 c 128,-1,61
 888 5 888 5 868 6.5 c 128,-1,62
 848 8 848 8 831 11 c 128,-1,63
 814 14 814 14 807 17 c 0,0,1
EndSplineSet
EndChar

StartChar: N
Encoding: 78 78 49
Width: 599
Flags: W
LayerCount: 2
Fore
SplineSet
35 17 m 1,0,1
 21 169 21 169 16.5 321 c 128,-1,2
 12 473 12 473 17 625 c 1,3,4
 19 630 19 630 25.5 643.5 c 128,-1,5
 32 657 32 657 41.5 668.5 c 128,-1,6
 51 680 51 680 63 684.5 c 128,-1,7
 75 689 75 689 87 677 c 2,8,-1
 174 590 l 1,9,-1
 417 190 l 1,10,-1
 422 183 l 2,11,12
 428 176 428 176 436 168.5 c 128,-1,13
 444 161 444 161 452.5 156.5 c 128,-1,14
 461 152 461 152 469 157 c 1,15,16
 468 173 468 173 465 207 c 128,-1,17
 462 241 462 241 458.5 283.5 c 128,-1,18
 455 326 455 326 451 373 c 128,-1,19
 447 420 447 420 443.5 463 c 128,-1,20
 440 506 440 506 437.5 540 c 128,-1,21
 435 574 435 574 434 590 c 0,22,23
 433 603 433 603 433 633.5 c 128,-1,24
 433 664 433 664 436.5 702 c 128,-1,25
 440 740 440 740 447.5 780 c 128,-1,26
 455 820 455 820 469 850.5 c 128,-1,27
 483 881 483 881 504 896.5 c 128,-1,28
 525 912 525 912 555 902 c 1,29,30
 559 902 559 902 565.5 895.5 c 128,-1,31
 572 889 572 889 572 885 c 1,32,33
 565 876 565 876 555 863.5 c 128,-1,34
 545 851 545 851 535.5 837 c 128,-1,35
 526 823 526 823 517 808.5 c 128,-1,36
 508 794 508 794 504 781 c 1,37,38
 503 768 503 768 503 741 c 128,-1,39
 503 714 503 714 502.5 679.5 c 128,-1,40
 502 645 502 645 502.5 607.5 c 128,-1,41
 503 570 503 570 503 535 c 2,42,-1
 503 474 l 2,43,44
 503 447 503 447 504 434 c 0,45,46
 504 426 504 426 506.5 395.5 c 128,-1,47
 509 365 509 365 512 330 c 128,-1,48
 515 295 515 295 518 264 c 128,-1,49
 521 233 521 233 521 225 c 0,50,51
 521 215 521 215 521.5 194 c 128,-1,52
 522 173 522 173 522 151 c 128,-1,53
 522 129 522 129 521.5 110.5 c 128,-1,54
 521 92 521 92 521 87 c 0,55,56
 520 82 520 82 516 72 c 128,-1,57
 512 62 512 62 505 54 c 128,-1,58
 498 46 498 46 489 43.5 c 128,-1,59
 480 41 480 41 469 52 c 2,60,-1
 347 173 l 1,61,-1
 122 538 l 1,62,-1
 95 555 l 1,63,-1
 95 17 l 2,64,65
 95 3 95 3 86.5 -0.5 c 128,-1,66
 78 -4 78 -4 67.5 -1.5 c 128,-1,67
 57 1 57 1 47 6.5 c 128,-1,68
 37 12 37 12 35 17 c 1,0,1
EndSplineSet
EndChar

StartChar: O
Encoding: 79 79 50
Width: 477
Flags: W
LayerCount: 2
Fore
SplineSet
95 35 m 0,0,1
 45 85 45 85 32.5 146 c 128,-1,2
 20 207 20 207 26.5 271.5 c 128,-1,3
 33 336 33 336 50.5 400 c 128,-1,4
 68 464 68 464 78 520 c 0,5,6
 82 542 82 542 84 573 c 128,-1,7
 86 604 86 604 89 638 c 128,-1,8
 92 672 92 672 97 705 c 128,-1,9
 102 738 102 738 113 764 c 0,10,11
 114 766 114 766 120 772.5 c 128,-1,12
 126 779 126 779 130 781 c 0,13,14
 199 822 199 822 254 812.5 c 128,-1,15
 309 803 309 803 349 758.5 c 128,-1,16
 389 714 389 714 413.5 642.5 c 128,-1,17
 438 571 438 571 446 489.5 c 128,-1,18
 454 408 454 408 445.5 324.5 c 128,-1,19
 437 241 437 241 411 171.5 c 128,-1,20
 385 102 385 102 340.5 55 c 128,-1,21
 296 8 296 8 233 0 c 0,22,23
 209 -3 209 -3 191 -4 c 128,-1,24
 173 -5 173 -5 157 -2 c 128,-1,25
 141 1 141 1 126.5 9.5 c 128,-1,26
 112 18 112 18 95 35 c 0,0,1
147 70 m 0,27,28
 197 36 197 36 235.5 40.5 c 128,-1,29
 274 45 274 45 302 76 c 128,-1,30
 330 107 330 107 348 159 c 128,-1,31
 366 211 366 211 375.5 272.5 c 128,-1,32
 385 334 385 334 386 400 c 128,-1,33
 387 466 387 466 382 524 c 128,-1,34
 377 582 377 582 365.5 627.5 c 128,-1,35
 354 673 354 673 338 694 c 0,36,37
 301 743 301 743 273.5 759 c 128,-1,38
 246 775 246 775 225.5 768.5 c 128,-1,39
 205 762 205 762 191.5 736.5 c 128,-1,40
 178 711 178 711 170.5 675.5 c 128,-1,41
 163 640 163 640 160.5 599.5 c 128,-1,42
 158 559 158 559 160 522.5 c 128,-1,43
 162 486 162 486 168 457 c 128,-1,44
 174 428 174 428 182 417 c 0,45,46
 185 413 185 413 197 404 c 128,-1,47
 209 395 209 395 224 383.5 c 128,-1,48
 239 372 239 372 253.5 358 c 128,-1,49
 268 344 268 344 276.5 329.5 c 128,-1,50
 285 315 285 315 284.5 302 c 128,-1,51
 284 289 284 289 268 278 c 0,52,53
 255 269 255 269 239.5 273 c 128,-1,54
 224 277 224 277 208 288 c 128,-1,55
 192 299 192 299 177 316 c 128,-1,56
 162 333 162 333 149 349 c 128,-1,57
 136 365 136 365 126.5 379 c 128,-1,58
 117 393 117 393 113 399 c 1,59,-1
 95 365 l 1,60,-1
 95 157 l 2,61,62
 95 151 95 151 100 139 c 128,-1,63
 105 127 105 127 112.5 113.5 c 128,-1,64
 120 100 120 100 129 88 c 128,-1,65
 138 76 138 76 147 70 c 0,27,28
EndSplineSet
EndChar

StartChar: P
Encoding: 80 80 51
Width: 634
Flags: W
LayerCount: 2
Fore
SplineSet
243 295 m 1,0,1
 236 289 236 289 220.5 275.5 c 128,-1,2
 205 262 205 262 185.5 248.5 c 128,-1,3
 166 235 166 235 144.5 227 c 128,-1,4
 123 219 123 219 104 225 c 0,5,6
 96 228 96 228 91.5 234 c 128,-1,7
 87 240 87 240 85.5 247.5 c 128,-1,8
 84 255 84 255 84.5 263 c 128,-1,9
 85 271 85 271 87 278 c 1,10,-1
 269 382 l 1,11,-1
 269 677 l 2,12,13
 269 686 269 686 280 690.5 c 128,-1,14
 291 695 291 695 304 695 c 128,-1,15
 317 695 317 695 328 690.5 c 128,-1,16
 339 686 339 686 339 677 c 2,17,-1
 339 434 l 1,18,19
 381 456 381 456 421.5 488.5 c 128,-1,20
 462 521 462 521 491.5 556.5 c 128,-1,21
 521 592 521 592 534 626 c 128,-1,22
 547 660 547 660 534 685.5 c 128,-1,23
 521 711 521 711 476.5 723.5 c 128,-1,24
 432 736 432 736 347 729 c 0,25,26
 329 727 329 727 301 718 c 128,-1,27
 273 709 273 709 240 696 c 128,-1,28
 207 683 207 683 172.5 669 c 128,-1,29
 138 655 138 655 107 643.5 c 128,-1,30
 76 632 76 632 52 626.5 c 128,-1,31
 28 621 28 621 17 625 c 1,32,33
 20 642 20 642 31 655.5 c 128,-1,34
 42 669 42 669 57.5 680 c 128,-1,35
 73 691 73 691 90 699 c 128,-1,36
 107 707 107 707 122 712 c 0,37,38
 183 732 183 732 227 746 c 128,-1,39
 271 760 271 760 313.5 767 c 128,-1,40
 356 774 356 774 404 773.5 c 128,-1,41
 452 773 452 773 521 764 c 1,42,43
 577 750 577 750 598.5 726 c 128,-1,44
 620 702 620 702 617 672 c 128,-1,45
 614 642 614 642 592 608.5 c 128,-1,46
 570 575 570 575 538.5 541.5 c 128,-1,47
 507 508 507 508 470.5 476 c 128,-1,48
 434 444 434 444 403 418 c 128,-1,49
 372 392 372 392 351.5 373 c 128,-1,50
 331 354 331 354 330 347 c 2,51,-1
 295 35 l 1,52,-1
 289 27 l 2,53,54
 284 20 284 20 276.5 12.5 c 128,-1,55
 269 5 269 5 259.5 0 c 128,-1,56
 250 -5 250 -5 243 0 c 1,57,-1
 243 295 l 1,0,1
EndSplineSet
EndChar

StartChar: Q
Encoding: 81 81 52
Width: 685
Flags: W
LayerCount: 2
Fore
SplineSet
460 17 m 0,0,1
 454 21 454 21 441.5 30.5 c 128,-1,2
 429 40 429 40 415.5 51.5 c 128,-1,3
 402 63 402 63 389.5 73 c 128,-1,4
 377 83 377 83 373 87 c 1,5,6
 331 46 331 46 288.5 32 c 128,-1,7
 246 18 246 18 207.5 25 c 128,-1,8
 169 32 169 32 136 57 c 128,-1,9
 103 82 103 82 78.5 118.5 c 128,-1,10
 54 155 54 155 40 200.5 c 128,-1,11
 26 246 26 246 26 295 c 0,12,13
 26 362 26 362 32.5 432.5 c 128,-1,14
 39 503 39 503 53.5 572 c 128,-1,15
 68 641 68 641 91 707.5 c 128,-1,16
 114 774 114 774 147 834 c 1,17,18
 145 835 145 835 138.5 835 c 128,-1,19
 132 835 132 835 130 834 c 0,20,21
 127 832 127 832 119 827 c 128,-1,22
 111 822 111 822 103 816.5 c 128,-1,23
 95 811 95 811 88 806 c 128,-1,24
 81 801 81 801 78 799 c 1,25,26
 62 830 62 830 74.5 849.5 c 128,-1,27
 87 869 87 869 117 875 c 128,-1,28
 147 881 147 881 189.5 872 c 128,-1,29
 232 863 232 863 277 836.5 c 128,-1,30
 322 810 322 810 365 766 c 128,-1,31
 408 722 408 722 438 657.5 c 128,-1,32
 468 593 468 593 480.5 507 c 128,-1,33
 493 421 493 421 477 312 c 0,34,35
 475 302 475 302 468.5 277.5 c 128,-1,36
 462 253 462 253 454 225 c 128,-1,37
 446 197 446 197 437.5 172.5 c 128,-1,38
 429 148 429 148 425 139 c 1,39,40
 459 98 459 98 485.5 78 c 128,-1,41
 512 58 512 58 537.5 58 c 128,-1,42
 563 58 563 58 589.5 78 c 128,-1,43
 616 98 616 98 650 139 c 1,44,45
 662 112 662 112 657.5 88.5 c 128,-1,46
 653 65 653 65 638 47 c 128,-1,47
 623 29 623 29 600.5 17 c 128,-1,48
 578 5 578 5 553 0.5 c 128,-1,49
 528 -4 528 -4 503 0 c 128,-1,50
 478 4 478 4 460 17 c 0,0,1
199 87 m 0,51,52
 214 74 214 74 240.5 74 c 128,-1,53
 267 74 267 74 291.5 84.5 c 128,-1,54
 316 95 316 95 331 113.5 c 128,-1,55
 346 132 346 132 338 157 c 2,56,-1
 251 417 l 2,57,58
 241 446 241 446 226.5 451 c 128,-1,59
 212 456 212 456 197 448 c 128,-1,60
 182 440 182 440 168.5 425 c 128,-1,61
 155 410 155 410 147 399 c 1,62,63
 143 399 143 399 136.5 406 c 128,-1,64
 130 413 130 413 130 417 c 0,65,66
 130 431 130 431 136.5 447 c 128,-1,67
 143 463 143 463 153 477 c 128,-1,68
 163 491 163 491 175 502.5 c 128,-1,69
 187 514 187 514 199 520 c 0,70,71
 225 533 225 533 248.5 518.5 c 128,-1,72
 272 504 272 504 292 473 c 128,-1,73
 312 442 312 442 329 401.5 c 128,-1,74
 346 361 346 361 358.5 322 c 128,-1,75
 371 283 371 283 379 251.5 c 128,-1,76
 387 220 387 220 390 208 c 1,77,78
 413 219 413 219 424 255 c 128,-1,79
 435 291 435 291 437 340 c 128,-1,80
 439 389 439 389 432.5 445 c 128,-1,81
 426 501 426 501 414.5 553.5 c 128,-1,82
 403 606 403 606 387.5 648 c 128,-1,83
 372 690 372 690 355 712 c 0,84,85
 344 726 344 726 322.5 743 c 128,-1,86
 301 760 301 760 277.5 778 c 128,-1,87
 254 796 254 796 232.5 814.5 c 128,-1,88
 211 833 211 833 199 851 c 1,89,-1
 195 844 l 2,90,91
 193 839 193 839 190 833.5 c 128,-1,92
 187 828 187 828 184.5 823 c 128,-1,93
 182 818 182 818 182 816 c 0,94,95
 167 761 167 761 147 698 c 128,-1,96
 127 635 127 635 111 569 c 128,-1,97
 95 503 95 503 86.5 436 c 128,-1,98
 78 369 78 369 85 306.5 c 128,-1,99
 92 244 92 244 118.5 188 c 128,-1,100
 145 132 145 132 199 87 c 0,51,52
EndSplineSet
EndChar

StartChar: R
Encoding: 82 82 53
Width: 720
Flags: W
LayerCount: 2
Fore
SplineSet
190 17 m 1,0,1
 189 35 189 35 187.5 71.5 c 128,-1,2
 186 108 186 108 184.5 154.5 c 128,-1,3
 183 201 183 201 181 252 c 128,-1,4
 179 303 179 303 177.5 349 c 128,-1,5
 176 395 176 395 175 431.5 c 128,-1,6
 174 468 174 468 174 486 c 0,7,8
 174 492 174 492 173.5 506.5 c 128,-1,9
 173 521 173 521 173 537.5 c 128,-1,10
 173 554 173 554 173.5 569 c 128,-1,11
 174 584 174 584 174 590 c 1,12,13
 162 584 162 584 145.5 569 c 128,-1,14
 129 554 129 554 110 536.5 c 128,-1,15
 91 519 91 519 71.5 504.5 c 128,-1,16
 52 490 52 490 35 486 c 1,17,18
 12 500 12 500 14 520.5 c 128,-1,19
 16 541 16 541 36.5 564.5 c 128,-1,20
 57 588 57 588 91.5 613 c 128,-1,21
 126 638 126 638 167.5 661 c 128,-1,22
 209 684 209 684 253 703 c 128,-1,23
 297 722 297 722 336.5 734.5 c 128,-1,24
 376 747 376 747 406.5 750.5 c 128,-1,25
 437 754 437 754 452 746 c 1,26,27
 480 717 480 717 479 674 c 128,-1,28
 478 631 478 631 460 582 c 128,-1,29
 442 533 442 533 413 480 c 128,-1,30
 384 427 384 427 357 377.5 c 128,-1,31
 330 328 330 328 311 284.5 c 128,-1,32
 292 241 292 241 293 210 c 128,-1,33
 294 179 294 179 322 164 c 128,-1,34
 350 149 350 149 417 157 c 1,35,36
 451 165 451 165 488 182.5 c 128,-1,37
 525 200 525 200 560 221.5 c 128,-1,38
 595 243 595 243 625.5 267 c 128,-1,39
 656 291 656 291 677 312 c 1,40,41
 712 303 712 303 716 286 c 128,-1,42
 720 269 720 269 702.5 248 c 128,-1,43
 685 227 685 227 650 204 c 128,-1,44
 615 181 615 181 571 159.5 c 128,-1,45
 527 138 527 138 479.5 121 c 128,-1,46
 432 104 432 104 388.5 95 c 128,-1,47
 345 86 345 86 310.5 87 c 128,-1,48
 276 88 276 88 260 104 c 1,49,50
 260 98 260 98 259 83 c 128,-1,51
 258 68 258 68 255 51.5 c 128,-1,52
 252 35 252 35 245 20.5 c 128,-1,53
 238 6 238 6 225 0 c 0,54,55
 214 -5 214 -5 204.5 2 c 128,-1,56
 195 9 195 9 190 17 c 1,0,1
243 237 m 1,57,-1
 427 648 l 1,58,59
 420 671 420 671 403.5 680.5 c 128,-1,60
 387 690 387 690 366 689.5 c 128,-1,61
 345 689 345 689 323 680 c 128,-1,62
 301 671 301 671 282.5 658.5 c 128,-1,63
 264 646 264 646 252 631.5 c 128,-1,64
 240 617 240 617 240 605 c 2,65,-1
 243 237 l 1,57,-1
EndSplineSet
EndChar

StartChar: S
Encoding: 83 83 54
Width: 555
Flags: W
LayerCount: 2
Fore
SplineSet
157 17 m 1,0,1
 100 40 100 40 70 77.5 c 128,-1,2
 40 115 40 115 29 155.5 c 128,-1,3
 18 196 18 196 22 234 c 128,-1,4
 26 272 26 272 37 295.5 c 128,-1,5
 48 319 48 319 62.5 321.5 c 128,-1,6
 77 324 77 324 87 295 c 1,7,8
 76 232 76 232 87 185.5 c 128,-1,9
 98 139 98 139 123 108.5 c 128,-1,10
 148 78 148 78 184 63.5 c 128,-1,11
 220 49 220 49 258 48.5 c 128,-1,12
 296 48 296 48 332 62 c 128,-1,13
 368 76 368 76 394 102.5 c 128,-1,14
 420 129 420 129 432 169 c 128,-1,15
 444 209 444 209 434 260 c 0,16,17
 429 283 429 283 407.5 316.5 c 128,-1,18
 386 350 386 350 358.5 388 c 128,-1,19
 331 426 331 426 302 465.5 c 128,-1,20
 273 505 273 505 253.5 541.5 c 128,-1,21
 234 578 234 578 228.5 608.5 c 128,-1,22
 223 639 223 639 243 659 c 1,23,24
 259 672 259 672 290.5 698.5 c 128,-1,25
 322 725 322 725 359 751 c 128,-1,26
 396 777 396 777 434.5 796.5 c 128,-1,27
 473 816 473 816 504 816 c 0,28,29
 527 816 527 816 528.5 809 c 128,-1,30
 530 802 530 802 518 790.5 c 128,-1,31
 506 779 506 779 483.5 763 c 128,-1,32
 461 747 461 747 435 728.5 c 128,-1,33
 409 710 409 710 382.5 689.5 c 128,-1,34
 356 669 356 669 337.5 648.5 c 128,-1,35
 319 628 319 628 310.5 608.5 c 128,-1,36
 302 589 302 589 312 572 c 1,37,38
 348 521 348 521 384.5 469 c 128,-1,39
 421 417 421 417 448 366.5 c 128,-1,40
 475 316 475 316 488.5 267.5 c 128,-1,41
 502 219 502 219 492 174.5 c 128,-1,42
 482 130 482 130 443.5 90 c 128,-1,43
 405 50 405 50 330 17 c 0,44,45
 285 -2 285 -2 243.5 -1 c 128,-1,46
 202 0 202 0 157 17 c 1,0,1
EndSplineSet
EndChar

StartChar: T
Encoding: 84 84 55
Width: 712
Flags: W
LayerCount: 2
Fore
SplineSet
365 35 m 1,0,1
 367 104 367 104 363.5 173.5 c 128,-1,2
 360 243 360 243 355.5 312.5 c 128,-1,3
 351 382 351 382 347.5 451.5 c 128,-1,4
 344 521 344 521 347 590 c 1,5,6
 336 587 336 587 313 581.5 c 128,-1,7
 290 576 290 576 261 569 c 128,-1,8
 232 562 232 562 199.5 554.5 c 128,-1,9
 167 547 167 547 138 540 c 128,-1,10
 109 533 109 533 86 527.5 c 128,-1,11
 63 522 63 522 52 520 c 0,12,13
 38 517 38 517 24.5 523.5 c 128,-1,14
 11 530 11 530 0 538 c 1,15,-1
 35 572 l 1,16,17
 193 587 193 587 346 633.5 c 128,-1,18
 499 680 499 680 642 746 c 1,19,-1
 694 746 l 1,20,21
 699 738 699 738 694.5 729 c 128,-1,22
 690 720 690 720 682 712.5 c 128,-1,23
 674 705 674 705 666 699 c 2,24,-1
 659 694 l 1,25,-1
 417 607 l 2,26,27
 416 607 416 607 415.5 583 c 128,-1,28
 415 559 415 559 415 526 c 128,-1,29
 415 493 415 493 415.5 457.5 c 128,-1,30
 416 422 416 422 417 399 c 0,31,32
 417 391 417 391 418.5 364 c 128,-1,33
 420 337 420 337 421.5 301.5 c 128,-1,34
 423 266 423 266 425 226 c 128,-1,35
 427 186 427 186 429 150 c 128,-1,36
 431 114 431 114 432 87.5 c 128,-1,37
 433 61 433 61 434 52 c 1,38,39
 434 35 434 35 424.5 21 c 128,-1,40
 415 7 415 7 403 2 c 128,-1,41
 391 -3 391 -3 379.5 3.5 c 128,-1,42
 368 10 368 10 365 35 c 1,0,1
EndSplineSet
EndChar

StartChar: U
Encoding: 85 85 56
Width: 622
Flags: W
LayerCount: 2
Fore
SplineSet
60 35 m 0,0,1
 46 53 46 53 38.5 79.5 c 128,-1,2
 31 106 31 106 27.5 135 c 128,-1,3
 24 164 24 164 24 192.5 c 128,-1,4
 24 221 24 221 26 243 c 0,5,6
 27 258 27 258 29.5 291 c 128,-1,7
 32 324 32 324 35.5 365 c 128,-1,8
 39 406 39 406 42.5 451 c 128,-1,9
 46 496 46 496 49.5 537 c 128,-1,10
 53 578 53 578 55.5 610.5 c 128,-1,11
 58 643 58 643 60 659 c 1,12,13
 65 668 65 668 74.5 675 c 128,-1,14
 84 682 84 682 95 677 c 1,15,16
 109 669 109 669 113.5 656 c 128,-1,17
 118 643 118 643 118 627.5 c 128,-1,18
 118 612 118 612 115.5 597 c 128,-1,19
 113 582 113 582 113 572 c 0,20,21
 110 520 110 520 100 456.5 c 128,-1,22
 90 393 90 393 84.5 327 c 128,-1,23
 79 261 79 261 83.5 198.5 c 128,-1,24
 88 136 88 136 113 87 c 0,25,26
 127 59 127 59 147 60.5 c 128,-1,27
 167 62 167 62 189.5 81 c 128,-1,28
 212 100 212 100 235 131 c 128,-1,29
 258 162 258 162 276.5 194.5 c 128,-1,30
 295 227 295 227 307 254.5 c 128,-1,31
 319 282 319 282 321 295 c 1,32,-1
 321 314 l 2,33,34
 321 329 321 329 320.5 347 c 128,-1,35
 320 365 320 365 320 380 c 128,-1,36
 320 395 320 395 321 399 c 0,37,38
 322 414 322 414 327 451 c 128,-1,39
 332 488 332 488 337 529.5 c 128,-1,40
 342 571 342 571 347 608 c 128,-1,41
 352 645 352 645 355 659 c 1,42,43
 360 675 360 675 377 678 c 128,-1,44
 394 681 394 681 408 677 c 1,45,46
 411 620 411 620 405.5 563.5 c 128,-1,47
 400 507 400 507 394 450.5 c 128,-1,48
 388 394 388 394 385 337.5 c 128,-1,49
 382 281 382 281 390 225 c 0,50,51
 398 174 398 174 415.5 148 c 128,-1,52
 433 122 433 122 456 114.5 c 128,-1,53
 479 107 479 107 506.5 114.5 c 128,-1,54
 534 122 534 122 562 137.5 c 128,-1,55
 590 153 590 153 616.5 172.5 c 128,-1,56
 643 192 643 192 664.5 208.5 c 128,-1,57
 686 225 686 225 700.5 235.5 c 128,-1,58
 715 246 715 246 720 243 c 1,59,60
 729 215 729 215 710.5 183.5 c 128,-1,61
 692 152 692 152 657.5 125.5 c 128,-1,62
 623 99 623 99 577 82.5 c 128,-1,63
 531 66 531 66 485.5 67.5 c 128,-1,64
 440 69 440 69 400.5 93 c 128,-1,65
 361 117 361 117 338 173 c 1,66,67
 322 160 322 160 302.5 136 c 128,-1,68
 283 112 283 112 261 86 c 128,-1,69
 239 60 239 60 214.5 36.5 c 128,-1,70
 190 13 190 13 164.5 2 c 128,-1,71
 139 -9 139 -9 112.5 -3 c 128,-1,72
 86 3 86 3 60 35 c 0,0,1
EndSplineSet
EndChar

StartChar: V
Encoding: 86 86 57
Width: 659
Flags: W
LayerCount: 2
Fore
SplineSet
60 538 m 1,0,1
 57 542 57 542 47 554 c 128,-1,2
 37 566 37 566 30.5 579.5 c 128,-1,3
 24 593 24 593 24.5 606 c 128,-1,4
 25 619 25 619 43 625 c 0,5,6
 50 628 50 628 63.5 628 c 128,-1,7
 77 628 77 628 78 625 c 2,8,-1
 251 208 l 1,9,10
 259 274 259 274 272.5 342 c 128,-1,11
 286 410 286 410 308 475.5 c 128,-1,12
 330 541 330 541 362.5 601.5 c 128,-1,13
 395 662 395 662 442 712 c 0,14,15
 456 728 456 728 479 751.5 c 128,-1,16
 502 775 502 775 524.5 797 c 128,-1,17
 547 819 547 819 563.5 835 c 128,-1,18
 580 851 580 851 581 851 c 2,19,-1
 633 851 l 1,20,21
 641 839 641 839 629.5 825 c 128,-1,22
 618 811 618 811 600.5 798.5 c 128,-1,23
 583 786 583 786 566 776.5 c 128,-1,24
 549 767 549 767 546 764 c 0,25,26
 466 684 466 684 420 599 c 128,-1,27
 374 514 374 514 349 421.5 c 128,-1,28
 324 329 324 329 315.5 228.5 c 128,-1,29
 307 128 307 128 303 17 c 1,30,-1
 296 13 l 2,31,32
 291 11 291 11 285.5 8 c 128,-1,33
 280 5 280 5 275 3 c 128,-1,34
 270 1 270 1 268 0 c 0,35,36
 265 -2 265 -2 258.5 -2 c 128,-1,37
 252 -2 252 -2 251 0 c 2,38,-1
 60 538 l 1,0,1
EndSplineSet
EndChar

StartChar: W
Encoding: 87 87 58
Width: 755
Flags: W
LayerCount: 2
Fore
SplineSet
87 17 m 0,0,1
 65 32 65 32 51.5 58.5 c 128,-1,2
 38 85 38 85 30.5 115 c 128,-1,3
 23 145 23 145 20.5 174.5 c 128,-1,4
 18 204 18 204 17 225 c 0,5,6
 16 237 16 237 16 263 c 128,-1,7
 16 289 16 289 15.5 321.5 c 128,-1,8
 15 354 15 354 15.5 390 c 128,-1,9
 16 426 16 426 16 458 c 2,10,-1
 16 517 l 2,11,12
 16 543 16 543 17 555 c 1,13,14
 23 572 23 572 39.5 574.5 c 128,-1,15
 56 577 56 577 70 572 c 1,16,17
 70 557 70 557 71 526 c 128,-1,18
 72 495 72 495 74 455.5 c 128,-1,19
 76 416 76 416 77.5 372.5 c 128,-1,20
 79 329 79 329 81 290 c 128,-1,21
 83 251 83 251 84.5 219.5 c 128,-1,22
 86 188 86 188 87 173 c 0,23,24
 88 160 88 160 91.5 143 c 128,-1,25
 95 126 95 126 101 108.5 c 128,-1,26
 107 91 107 91 116.5 76 c 128,-1,27
 126 61 126 61 139 52 c 1,28,29
 162 70 162 70 180 109 c 128,-1,30
 198 148 198 148 212.5 197 c 128,-1,31
 227 246 227 246 239 300 c 128,-1,32
 251 354 251 354 262.5 402 c 128,-1,33
 274 450 274 450 284.5 487 c 128,-1,34
 295 524 295 524 307.5 540 c 128,-1,35
 320 556 320 556 334 545 c 128,-1,36
 348 534 348 534 365 486 c 0,37,38
 367 481 367 481 372 465 c 128,-1,39
 377 449 377 449 384 427.5 c 128,-1,40
 391 406 391 406 399 382 c 128,-1,41
 407 358 407 358 414 336.5 c 128,-1,42
 421 315 421 315 426.5 299 c 128,-1,43
 432 283 432 283 434 278 c 0,44,45
 445 250 445 250 460.5 217 c 128,-1,46
 476 184 476 184 495 155 c 128,-1,47
 514 126 514 126 535.5 106 c 128,-1,48
 557 86 557 86 578.5 83.5 c 128,-1,49
 600 81 600 81 620.5 101 c 128,-1,50
 641 121 641 121 659 173 c 1,51,52
 660 186 660 186 661 211.5 c 128,-1,53
 662 237 662 237 662.5 270 c 128,-1,54
 663 303 663 303 663 338.5 c 128,-1,55
 663 374 663 374 662.5 407 c 128,-1,56
 662 440 662 440 661 465.5 c 128,-1,57
 660 491 660 491 659 504 c 0,58,59
 659 510 659 510 654 535 c 128,-1,60
 649 560 649 560 643 589.5 c 128,-1,61
 637 619 637 619 631.5 644.5 c 128,-1,62
 626 670 626 670 625 677 c 0,63,64
 624 686 624 686 627.5 704 c 128,-1,65
 631 722 631 722 638 736 c 128,-1,66
 645 750 645 750 655 751.5 c 128,-1,67
 665 753 665 753 677 729 c 1,68,69
 692 662 692 662 706.5 585 c 128,-1,70
 721 508 721 508 727 428.5 c 128,-1,71
 733 349 733 349 726.5 270.5 c 128,-1,72
 720 192 720 192 694 122 c 0,73,74
 672 64 672 64 646.5 40 c 128,-1,75
 621 16 621 16 593 17 c 128,-1,76
 565 18 565 18 536.5 39 c 128,-1,77
 508 60 508 60 481 93.5 c 128,-1,78
 454 127 454 127 429 168 c 128,-1,79
 404 209 404 209 384 249.5 c 128,-1,80
 364 290 364 290 350 325 c 128,-1,81
 336 360 336 360 330 382 c 1,82,-1
 312 382 l 1,83,84
 310 372 310 372 305.5 347 c 128,-1,85
 301 322 301 322 295.5 294.5 c 128,-1,86
 290 267 290 267 285 242.5 c 128,-1,87
 280 218 280 218 278 208 c 0,88,89
 273 191 273 191 265 165.5 c 128,-1,90
 257 140 257 140 244.5 112.5 c 128,-1,91
 232 85 232 85 216 60 c 128,-1,92
 200 35 200 35 180 19.5 c 128,-1,93
 160 4 160 4 137 1.5 c 128,-1,94
 114 -1 114 -1 87 17 c 0,0,1
EndSplineSet
EndChar

StartChar: X
Encoding: 88 88 59
Width: 729
Flags: W
LayerCount: 2
Fore
SplineSet
122 17 m 0,0,1
 114 59 114 59 127 101.5 c 128,-1,2
 140 144 140 144 155.5 186.5 c 128,-1,3
 171 229 171 229 180.5 269.5 c 128,-1,4
 190 310 190 310 174 347 c 0,5,6
 155 391 155 391 126 432.5 c 128,-1,7
 97 474 97 474 72.5 517.5 c 128,-1,8
 48 561 48 561 35 608.5 c 128,-1,9
 22 656 22 656 35 712 c 1,10,11
 78 721 78 721 100 707.5 c 128,-1,12
 122 694 122 694 132 667.5 c 128,-1,13
 142 641 142 641 144.5 605.5 c 128,-1,14
 147 570 147 570 152 534.5 c 128,-1,15
 157 499 157 499 168.5 467.5 c 128,-1,16
 180 436 180 436 208 417 c 1,17,18
 211 418 211 418 217.5 424.5 c 128,-1,19
 224 431 224 431 225 434 c 0,20,21
 251 475 251 475 269 506 c 128,-1,22
 287 537 287 537 302 562.5 c 128,-1,23
 317 588 317 588 331 610 c 128,-1,24
 345 632 345 632 363.5 655 c 128,-1,25
 382 678 382 678 407 704 c 128,-1,26
 432 730 432 730 469 764 c 0,27,28
 521 812 521 812 565 817 c 128,-1,29
 609 822 609 822 639.5 797.5 c 128,-1,30
 670 773 670 773 685 726 c 128,-1,31
 700 679 700 679 695 622.5 c 128,-1,32
 690 566 690 566 662.5 507 c 128,-1,33
 635 448 635 448 580.5 400.5 c 128,-1,34
 526 353 526 353 443 323 c 128,-1,35
 360 293 360 293 243 295 c 1,36,37
 227 266 227 266 215.5 230 c 128,-1,38
 204 194 204 194 195.5 156.5 c 128,-1,39
 187 119 187 119 182 82.5 c 128,-1,40
 177 46 177 46 174 17 c 1,41,42
 171 10 171 10 163 5 c 128,-1,43
 155 0 155 0 147 -1.5 c 128,-1,44
 139 -3 139 -3 131.5 1 c 128,-1,45
 124 5 124 5 122 17 c 0,0,1
278 382 m 1,46,47
 276 380 276 380 276 373.5 c 128,-1,48
 276 367 276 367 278 365 c 1,49,50
 366 351 366 351 431 367 c 128,-1,51
 496 383 496 383 540.5 416.5 c 128,-1,52
 585 450 585 450 610 495 c 128,-1,53
 635 540 635 540 643.5 585 c 128,-1,54
 652 630 652 630 644 669.5 c 128,-1,55
 636 709 636 709 615 730 c 128,-1,56
 594 751 594 751 561 749 c 128,-1,57
 528 747 528 747 484.5 709.5 c 128,-1,58
 441 672 441 672 389 593 c 128,-1,59
 337 514 337 514 278 382 c 1,46,47
EndSplineSet
EndChar

StartChar: Y
Encoding: 89 89 60
Width: 612
Flags: W
LayerCount: 2
Fore
SplineSet
190 -252 m 0,0,1
 166 -221 166 -221 161 -179.5 c 128,-1,2
 156 -138 156 -138 163.5 -92 c 128,-1,3
 171 -46 171 -46 188.5 1.5 c 128,-1,4
 206 49 206 49 227 92.5 c 128,-1,5
 248 136 248 136 271 172.5 c 128,-1,6
 294 209 294 209 312 233 c 0,7,8
 355 290 355 290 382 331 c 128,-1,9
 409 372 409 372 418.5 412.5 c 128,-1,10
 428 453 428 453 419.5 499.5 c 128,-1,11
 411 546 411 546 382 615 c 1,12,13
 350 479 350 479 303 378 c 128,-1,14
 256 277 256 277 207.5 218 c 128,-1,15
 159 159 159 159 114.5 146 c 128,-1,16
 70 133 70 133 42.5 172.5 c 128,-1,17
 15 212 15 212 10 308 c 128,-1,18
 5 404 5 404 35 564 c 1,19,20
 40 580 40 580 57 582.5 c 128,-1,21
 74 585 74 585 87 581 c 1,22,-1
 87 251 l 2,23,24
 87 208 87 208 99.5 198.5 c 128,-1,25
 112 189 112 189 130.5 200.5 c 128,-1,26
 149 212 149 212 170.5 238 c 128,-1,27
 192 264 192 264 211.5 292 c 128,-1,28
 231 320 231 320 244.5 343 c 128,-1,29
 258 366 258 366 260 373 c 0,30,31
 265 387 265 387 273.5 416.5 c 128,-1,32
 282 446 282 446 292.5 483.5 c 128,-1,33
 303 521 303 521 314.5 562.5 c 128,-1,34
 326 604 326 604 336 642 c 128,-1,35
 346 680 346 680 353.5 710 c 128,-1,36
 361 740 361 740 365 755 c 1,37,38
 368 762 368 762 375.5 767 c 128,-1,39
 383 772 383 772 391.5 773 c 128,-1,40
 400 774 400 774 407 770 c 128,-1,41
 414 766 414 766 417 755 c 2,42,-1
 486 425 l 2,43,44
 488 418 488 418 501.5 422 c 128,-1,45
 515 426 515 426 535 436.5 c 128,-1,46
 555 447 555 447 578 461 c 128,-1,47
 601 475 601 475 621.5 489 c 128,-1,48
 642 503 642 503 657.5 514 c 128,-1,49
 673 525 673 525 677 529 c 1,50,51
 709 524 709 524 710 510.5 c 128,-1,52
 711 497 711 497 694 478 c 128,-1,53
 677 459 677 459 647 437.5 c 128,-1,54
 617 416 617 416 587.5 396.5 c 128,-1,55
 558 377 558 377 534 361 c 128,-1,56
 510 345 510 345 504 338 c 1,57,58
 504 328 504 328 503 308 c 128,-1,59
 502 288 502 288 500.5 262 c 128,-1,60
 499 236 499 236 497 208 c 128,-1,61
 495 180 495 180 493 154 c 128,-1,62
 491 128 491 128 489 108 c 2,63,-1
 486 78 l 2,64,65
 484 65 484 65 476.5 36 c 128,-1,66
 469 7 469 7 456 -29.5 c 128,-1,67
 443 -66 443 -66 425.5 -106.5 c 128,-1,68
 408 -147 408 -147 387.5 -183 c 128,-1,69
 367 -219 367 -219 343.5 -247.5 c 128,-1,70
 320 -276 320 -276 294.5 -288.5 c 128,-1,71
 269 -301 269 -301 242.5 -294 c 128,-1,72
 216 -287 216 -287 190 -252 c 0,0,1
243 -217 m 0,73,74
 258 -239 258 -239 276 -233 c 128,-1,75
 294 -227 294 -227 313 -204 c 128,-1,76
 332 -181 332 -181 350 -147.5 c 128,-1,77
 368 -114 368 -114 382.5 -81.5 c 128,-1,78
 397 -49 397 -49 406 -23.5 c 128,-1,79
 415 2 415 2 417 8 c 0,80,81
 431 75 431 75 434.5 147 c 128,-1,82
 438 219 438 219 434 286 c 1,83,84
 406 262 406 262 374 225.5 c 128,-1,85
 342 189 342 189 312.5 145.5 c 128,-1,86
 283 102 283 102 259 54 c 128,-1,87
 235 6 235 6 223 -41.5 c 128,-1,88
 211 -89 211 -89 214.5 -134 c 128,-1,89
 218 -179 218 -179 243 -217 c 0,73,74
EndSplineSet
EndChar

StartChar: Z
Encoding: 90 90 61
Width: 669
Flags: W
LayerCount: 2
Fore
SplineSet
650 417 m 1,0,1
 646 370 646 370 621 314 c 128,-1,2
 596 258 596 258 558.5 204 c 128,-1,3
 521 150 521 150 474.5 103 c 128,-1,4
 428 56 428 56 381.5 26.5 c 128,-1,5
 335 -3 335 -3 293 -10 c 128,-1,6
 251 -17 251 -17 221.5 9.5 c 128,-1,7
 192 36 192 36 180 100.5 c 128,-1,8
 168 165 168 165 182 278 c 1,9,-1
 293 665 l 1,10,-1
 43 452 l 2,11,12
 42 452 42 452 37 456 c 128,-1,13
 32 460 32 460 28 465 c 128,-1,14
 24 470 24 470 22.5 476 c 128,-1,15
 21 482 21 482 26 486 c 2,16,-1
 321 746 l 2,17,18
 334 757 334 757 345.5 759.5 c 128,-1,19
 357 762 357 762 365 756.5 c 128,-1,20
 373 751 373 751 375.5 739.5 c 128,-1,21
 378 728 378 728 373 712 c 0,22,23
 350 643 350 643 328.5 581 c 128,-1,24
 307 519 307 519 288.5 458 c 128,-1,25
 270 397 270 397 256 336 c 128,-1,26
 242 275 242 275 233 208 c 1,27,28
 224 132 224 132 237.5 99.5 c 128,-1,29
 251 67 251 67 278.5 63.5 c 128,-1,30
 306 60 306 60 342.5 80 c 128,-1,31
 379 100 379 100 415 129 c 128,-1,32
 451 158 451 158 482 189.5 c 128,-1,33
 513 221 513 221 529 243 c 0,34,35
 537 254 537 254 542.5 274 c 128,-1,36
 548 294 548 294 553 317.5 c 128,-1,37
 558 341 558 341 564 364.5 c 128,-1,38
 570 388 570 388 579 405.5 c 128,-1,39
 588 423 588 423 600.5 431.5 c 128,-1,40
 613 440 613 440 633 434 c 0,41,42
 636 433 636 433 642.5 426.5 c 128,-1,43
 649 420 649 420 650 417 c 1,0,1
EndSplineSet
EndChar

StartChar: bracketleft
Encoding: 91 91 62
Width: 651
Flags: W
LayerCount: 2
Fore
SplineSet
26 17 m 0,0,1
 25 19 25 19 25 26 c 128,-1,2
 25 33 25 33 26 35 c 0,3,4
 45 138 45 138 67.5 244.5 c 128,-1,5
 90 351 90 351 107 458.5 c 128,-1,6
 124 566 124 566 132 673 c 128,-1,7
 140 780 140 780 130 885 c 1,8,9
 131 888 131 888 150 895 c 128,-1,10
 169 902 169 902 198 911 c 128,-1,11
 227 920 227 920 262 930 c 128,-1,12
 297 940 297 940 329.5 950.5 c 128,-1,13
 362 961 362 961 388 971 c 128,-1,14
 414 981 414 981 425 989 c 0,15,16
 431 993 431 993 446 1005 c 128,-1,17
 461 1017 461 1017 477.5 1031 c 128,-1,18
 494 1045 494 1045 508.5 1057.5 c 128,-1,19
 523 1070 523 1070 529 1076 c 1,20,-1
 581 1076 l 1,21,-1
 581 1059 l 1,22,-1
 495 972 l 1,23,-1
 216 851 l 1,24,-1
 113 122 l 1,25,26
 172 116 172 116 236 118.5 c 128,-1,27
 300 121 300 121 365 126.5 c 128,-1,28
 430 132 430 132 493.5 136.5 c 128,-1,29
 557 141 557 141 615 139 c 1,30,31
 620 126 620 126 617.5 109 c 128,-1,32
 615 92 615 92 598 87 c 1,33,34
 587 87 587 87 564 87.5 c 128,-1,35
 541 88 541 88 512 88 c 2,36,-1
 389 88 l 2,37,38
 360 88 360 88 337 87.5 c 128,-1,39
 314 87 314 87 303 87 c 0,40,41
 282 86 282 86 255.5 76.5 c 128,-1,42
 229 67 229 67 200.5 55 c 128,-1,43
 172 43 172 43 143.5 30.5 c 128,-1,44
 115 18 115 18 91 10.5 c 128,-1,45
 67 3 67 3 49.5 3.5 c 128,-1,46
 32 4 32 4 26 17 c 0,0,1
EndSplineSet
EndChar

StartChar: backslash
Encoding: 92 92 63
Width: 538
Flags: W
LayerCount: 2
Fore
SplineSet
286 122 m 0,0,1
 228 169 228 169 176 229.5 c 128,-1,2
 124 290 124 290 87 359.5 c 128,-1,3
 50 429 50 429 32.5 505 c 128,-1,4
 15 581 15 581 26 659 c 1,5,6
 39 664 39 664 56 661.5 c 128,-1,7
 73 659 73 659 78 642 c 1,8,9
 91 546 91 546 119 463 c 128,-1,10
 147 380 147 380 193.5 308.5 c 128,-1,11
 240 237 240 237 305.5 177.5 c 128,-1,12
 371 118 371 118 460 70 c 1,13,14
 494 64 494 64 509.5 49.5 c 128,-1,15
 525 35 525 35 524 21.5 c 128,-1,16
 523 8 523 8 506.5 0.5 c 128,-1,17
 490 -7 490 -7 460 0 c 1,18,19
 449 6 449 6 424 23 c 128,-1,20
 399 40 399 40 371.5 59.5 c 128,-1,21
 344 79 344 79 319.5 96.5 c 128,-1,22
 295 114 295 114 286 122 c 0,0,1
EndSplineSet
EndChar

StartChar: bracketright
Encoding: 93 93 64
Width: 599
Flags: W
LayerCount: 2
Fore
SplineSet
347 17 m 256,0,1
 308 33 308 33 273 40 c 128,-1,2
 238 47 238 47 202 49 c 128,-1,3
 166 51 166 51 125.5 51 c 128,-1,4
 85 51 85 51 35 52 c 1,5,6
 30 55 30 55 24.5 63.5 c 128,-1,7
 19 72 19 72 17 81 c 128,-1,8
 15 90 15 90 18.5 97 c 128,-1,9
 22 104 22 104 35 104 c 2,10,-1
 365 104 l 1,11,12
 366 196 366 196 370.5 298 c 128,-1,13
 375 400 375 400 386 503.5 c 128,-1,14
 397 607 397 607 417 708.5 c 128,-1,15
 437 810 437 810 469 902 c 1,16,-1
 104 902 l 1,17,-1
 35 920 l 2,18,19
 25 923 25 923 30.5 928.5 c 128,-1,20
 36 934 36 934 47.5 940 c 128,-1,21
 59 946 59 946 71.5 950 c 128,-1,22
 84 954 84 954 87 954 c 0,23,24
 92 954 92 954 112.5 951 c 128,-1,25
 133 948 133 948 156 945 c 128,-1,26
 179 942 179 942 199.5 939.5 c 128,-1,27
 220 937 220 937 225 937 c 0,28,29
 238 937 238 937 269 936.5 c 128,-1,30
 300 936 300 936 333.5 936 c 128,-1,31
 367 936 367 936 395.5 936.5 c 128,-1,32
 424 937 424 937 434 937 c 0,33,34
 451 938 451 938 465.5 945 c 128,-1,35
 480 952 480 952 494.5 959.5 c 128,-1,36
 509 967 509 967 523.5 971.5 c 128,-1,37
 538 976 538 976 555 972 c 1,38,-1
 555 937 l 1,39,40
 511 844 511 844 489.5 757.5 c 128,-1,41
 468 671 468 671 458 584 c 128,-1,42
 448 497 448 497 444.5 405 c 128,-1,43
 441 313 441 313 434 208 c 0,44,45
 432 183 432 183 436 155 c 128,-1,46
 440 127 440 127 443.5 100.5 c 128,-1,47
 447 74 447 74 447 51.5 c 128,-1,48
 447 29 447 29 438 16 c 128,-1,49
 429 3 429 3 407.5 2 c 128,-1,50
 386 1 386 1 347 17 c 256,0,1
EndSplineSet
EndChar

StartChar: asciicircum
Encoding: 94 94 65
Width: 853
Flags: W
LayerCount: 2
Fore
SplineSet
702 559 m 1,0,1
 666 584 666 584 629 596 c 128,-1,2
 592 608 592 608 562.5 623 c 128,-1,3
 533 638 533 638 514.5 665.5 c 128,-1,4
 496 693 496 693 497 750 c 1,5,-1
 282 547 l 1,6,7
 269 544 269 544 262 550 c 128,-1,8
 255 556 255 556 252.5 566.5 c 128,-1,9
 250 577 250 577 251.5 587.5 c 128,-1,10
 253 598 253 598 256 604 c 0,11,12
 257 607 257 607 256 607 c 128,-1,13
 255 607 255 607 258.5 612 c 128,-1,14
 262 617 262 617 273.5 630 c 128,-1,15
 285 643 285 643 312 672 c 128,-1,16
 339 701 339 701 384.5 749 c 128,-1,17
 430 797 430 797 501 872 c 1,18,19
 503 876 503 876 509.5 874 c 128,-1,20
 516 872 516 872 518 869 c 0,21,22
 542 834 542 834 554 807.5 c 128,-1,23
 566 781 566 781 573.5 761 c 128,-1,24
 581 741 581 741 588.5 724.5 c 128,-1,25
 596 708 596 708 611.5 692.5 c 128,-1,26
 627 677 627 677 654.5 660.5 c 128,-1,27
 682 644 682 644 731 624 c 1,28,-1
 702 559 l 1,0,1
EndSplineSet
EndChar

StartChar: underscore
Encoding: 95 95 66
Width: 929
Flags: W
LayerCount: 2
Fore
SplineSet
17 17 m 0,0,1
 13 26 13 26 16 32 c 128,-1,2
 19 38 19 38 25 42.5 c 128,-1,3
 31 47 31 47 38.5 49 c 128,-1,4
 46 51 46 51 52 52 c 0,5,6
 71 57 71 57 111.5 66 c 128,-1,7
 152 75 152 75 203.5 86 c 128,-1,8
 255 97 255 97 311.5 108 c 128,-1,9
 368 119 368 119 419.5 129 c 128,-1,10
 471 139 471 139 511.5 146.5 c 128,-1,11
 552 154 552 154 572 157 c 0,12,13
 590 159 590 159 617.5 160.5 c 128,-1,14
 645 162 645 162 676.5 162.5 c 128,-1,15
 708 163 708 163 740 163 c 128,-1,16
 772 163 772 163 799 162.5 c 128,-1,17
 826 162 826 162 844.5 160.5 c 128,-1,18
 863 159 863 159 868 157 c 2,19,-1
 902 139 l 1,20,21
 903 120 903 120 887 112 c 128,-1,22
 871 104 871 104 845.5 102.5 c 128,-1,23
 820 101 820 101 789 104 c 128,-1,24
 758 107 758 107 728.5 111.5 c 128,-1,25
 699 116 699 116 675.5 119.5 c 128,-1,26
 652 123 652 123 642 122 c 0,27,28
 625 119 625 119 588 112.5 c 128,-1,29
 551 106 551 106 505 97.5 c 128,-1,30
 459 89 459 89 408 79.5 c 128,-1,31
 357 70 357 70 311 61.5 c 128,-1,32
 265 53 265 53 228 45.5 c 128,-1,33
 191 38 191 38 174 35 c 0,34,35
 169 34 169 34 147.5 23.5 c 128,-1,36
 126 13 126 13 100.5 5 c 128,-1,37
 75 -3 75 -3 51 -3 c 128,-1,38
 27 -3 27 -3 17 17 c 0,0,1
EndSplineSet
EndChar

StartChar: grave
Encoding: 96 96 67
Width: 232
Flags: W
LayerCount: 2
Fore
SplineSet
36 712 m 1,0,1
 27 751 27 751 29.5 764.5 c 128,-1,2
 32 778 32 778 42.5 775 c 128,-1,3
 53 772 53 772 70 757 c 128,-1,4
 87 742 87 742 106.5 725 c 128,-1,5
 126 708 126 708 147 693.5 c 128,-1,6
 168 679 168 679 187 677 c 1,7,8
 189 653 189 653 180.5 644 c 128,-1,9
 172 635 172 635 157.5 636 c 128,-1,10
 143 637 143 637 125 645.5 c 128,-1,11
 107 654 107 654 89.5 666 c 128,-1,12
 72 678 72 678 57.5 690.5 c 128,-1,13
 43 703 43 703 36 712 c 1,0,1
EndSplineSet
EndChar

StartChar: a
Encoding: 97 97 68
Width: 507
Flags: W
LayerCount: 2
Fore
SplineSet
43 17 m 0,0,1
 23 59 23 59 21.5 102 c 128,-1,2
 20 145 20 145 26 190 c 0,3,4
 27 204 27 204 31 232 c 128,-1,5
 35 260 35 260 40 294 c 128,-1,6
 45 328 45 328 51 366 c 128,-1,7
 57 404 57 404 62 438 c 128,-1,8
 67 472 67 472 71.5 498.5 c 128,-1,9
 76 525 76 525 78 538 c 0,10,11
 86 580 86 580 95.5 609.5 c 128,-1,12
 105 639 105 639 121.5 655 c 128,-1,13
 138 671 138 671 164.5 672 c 128,-1,14
 191 673 191 673 233 659 c 0,15,16
 238 658 238 658 244 651.5 c 128,-1,17
 250 645 250 645 251 642 c 0,18,19
 253 629 253 629 258.5 602 c 128,-1,20
 264 575 264 575 271 540.5 c 128,-1,21
 278 506 278 506 285.5 468.5 c 128,-1,22
 293 431 293 431 300 396.5 c 128,-1,23
 307 362 307 362 312.5 335 c 128,-1,24
 318 308 318 308 321 295 c 0,25,26
 336 224 336 224 358 196.5 c 128,-1,27
 380 169 380 169 405 168 c 128,-1,28
 430 167 430 167 456.5 184.5 c 128,-1,29
 483 202 483 202 509 221.5 c 128,-1,30
 535 241 535 241 558 255 c 128,-1,31
 581 269 581 269 598 260 c 1,32,33
 598 241 598 241 589 223 c 128,-1,34
 580 205 580 205 567.5 189.5 c 128,-1,35
 555 174 555 174 540 161 c 128,-1,36
 525 148 525 148 512 139 c 0,37,38
 456 102 456 102 418.5 100 c 128,-1,39
 381 98 381 98 355 117 c 128,-1,40
 329 136 329 136 313 169 c 128,-1,41
 297 202 297 202 284.5 236 c 128,-1,42
 272 270 272 270 260.5 296.5 c 128,-1,43
 249 323 249 323 233 330 c 1,44,45
 230 317 230 317 220.5 285 c 128,-1,46
 211 253 211 253 200 217 c 128,-1,47
 189 181 189 181 179 149 c 128,-1,48
 169 117 169 117 165 104 c 0,49,50
 163 99 163 99 156.5 85 c 128,-1,51
 150 71 150 71 140 54.5 c 128,-1,52
 130 38 130 38 117.5 22.5 c 128,-1,53
 105 7 105 7 92 -1.5 c 128,-1,54
 79 -10 79 -10 66 -7 c 128,-1,55
 53 -4 53 -4 43 17 c 0,0,1
95 312 m 0,56,57
 93 300 93 300 92.5 268 c 128,-1,58
 92 236 92 236 92 200 c 128,-1,59
 92 164 92 164 92.5 132 c 128,-1,60
 93 100 93 100 95 87 c 1,61,62
 130 140 130 140 158 210.5 c 128,-1,63
 186 281 186 281 200.5 356.5 c 128,-1,64
 215 432 215 432 212 506.5 c 128,-1,65
 209 581 209 581 182 642 c 1,66,67
 165 611 165 611 150 564 c 128,-1,68
 135 517 135 517 124 468.5 c 128,-1,69
 113 420 113 420 105.5 377.5 c 128,-1,70
 98 335 98 335 95 312 c 0,56,57
EndSplineSet
EndChar

StartChar: b
Encoding: 98 98 69
Width: 477
Flags: W
LayerCount: 2
Fore
SplineSet
132 9 m 0,0,1
 127 24 127 24 139 41 c 128,-1,2
 151 58 151 58 173 75.5 c 128,-1,3
 195 93 195 93 222.5 111 c 128,-1,4
 250 129 250 129 275.5 146 c 128,-1,5
 301 163 301 163 320.5 178.5 c 128,-1,6
 340 194 340 194 347 208 c 0,7,8
 362 238 362 238 372.5 278 c 128,-1,9
 383 318 383 318 386.5 355.5 c 128,-1,10
 390 393 390 393 386 423.5 c 128,-1,11
 382 454 382 454 367 465 c 128,-1,12
 352 476 352 476 326 462 c 128,-1,13
 300 448 300 448 260 399 c 0,14,15
 249 385 249 385 234 349.5 c 128,-1,16
 219 314 219 314 202 271 c 128,-1,17
 185 228 185 228 167 184.5 c 128,-1,18
 149 141 149 141 131.5 111 c 128,-1,19
 114 81 114 81 98 71.5 c 128,-1,20
 82 62 82 62 70 87 c 1,21,22
 70 94 70 94 70.5 111 c 128,-1,23
 71 128 71 128 71 147.5 c 128,-1,24
 71 167 71 167 70.5 184 c 128,-1,25
 70 201 70 201 70 208 c 0,26,27
 67 276 67 276 63 341 c 128,-1,28
 59 406 59 406 54.5 470 c 128,-1,29
 50 534 50 534 45 598 c 128,-1,30
 40 662 40 662 35 729 c 0,31,32
 33 758 33 758 37 768 c 128,-1,33
 41 778 41 778 48 774.5 c 128,-1,34
 55 771 55 771 64.5 756 c 128,-1,35
 74 741 74 741 82.5 720 c 128,-1,36
 91 699 91 699 97 674 c 128,-1,37
 103 649 103 649 104 625 c 0,38,39
 104 613 104 613 105.5 587 c 128,-1,40
 107 561 107 561 109 528.5 c 128,-1,41
 111 496 111 496 113 460 c 128,-1,42
 115 424 115 424 116.5 391.5 c 128,-1,43
 118 359 118 359 119.5 333 c 128,-1,44
 121 307 121 307 122 295 c 1,45,46
 144 311 144 311 159.5 334.5 c 128,-1,47
 175 358 175 358 189.5 382.5 c 128,-1,48
 204 407 204 407 220.5 430 c 128,-1,49
 237 453 237 453 260 469 c 1,50,51
 324 509 324 509 366 512.5 c 128,-1,52
 408 516 408 516 430.5 493.5 c 128,-1,53
 453 471 453 471 457 429 c 128,-1,54
 461 387 461 387 449 335.5 c 128,-1,55
 437 284 437 284 410.5 228.5 c 128,-1,56
 384 173 384 173 345.5 124.5 c 128,-1,57
 307 76 307 76 257 40 c 128,-1,58
 207 4 207 4 148 -8 c 1,59,-1
 139 0 l 1,60,61
 133 7 133 7 132 9 c 0,0,1
EndSplineSet
EndChar

StartChar: c
Encoding: 99 99 70
Width: 520
Flags: W
LayerCount: 2
Fore
SplineSet
87 35 m 0,0,1
 50 63 50 63 33.5 102.5 c 128,-1,2
 17 142 17 142 15.5 188.5 c 128,-1,3
 14 235 14 235 25.5 284 c 128,-1,4
 37 333 37 333 56 379 c 128,-1,5
 75 425 75 425 98.5 464.5 c 128,-1,6
 122 504 122 504 146 531.5 c 128,-1,7
 170 559 170 559 191 570.5 c 128,-1,8
 212 582 212 582 225 572 c 1,9,10
 227 561 227 561 232.5 531.5 c 128,-1,11
 238 502 238 502 243.5 468.5 c 128,-1,12
 249 435 249 435 253.5 405.5 c 128,-1,13
 258 376 258 376 260 365 c 0,14,15
 262 352 262 352 261 337.5 c 128,-1,16
 260 323 260 323 255 311.5 c 128,-1,17
 250 300 250 300 238.5 294.5 c 128,-1,18
 227 289 227 289 208 295 c 1,19,20
 207 302 207 302 202.5 319 c 128,-1,21
 198 336 198 336 192.5 355.5 c 128,-1,22
 187 375 187 375 181.5 392.5 c 128,-1,23
 176 410 176 410 174 417 c 1,24,-1
 157 434 l 1,25,26
 126 413 126 413 105.5 374 c 128,-1,27
 85 335 85 335 76 289.5 c 128,-1,28
 67 244 67 244 71.5 198.5 c 128,-1,29
 76 153 76 153 94.5 118.5 c 128,-1,30
 113 84 113 84 146.5 66.5 c 128,-1,31
 180 49 180 49 230.5 61 c 128,-1,32
 281 73 281 73 349 119.5 c 128,-1,33
 417 166 417 166 504 260 c 1,34,-1
 504 225 l 2,35,36
 504 222 504 222 492 207 c 128,-1,37
 480 192 480 192 463 172.5 c 128,-1,38
 446 153 446 153 428.5 134 c 128,-1,39
 411 115 411 115 399 104 c 0,40,41
 366 73 366 73 328.5 47 c 128,-1,42
 291 21 291 21 251 8 c 128,-1,43
 211 -5 211 -5 169.5 -0.5 c 128,-1,44
 128 4 128 4 87 35 c 0,0,1
EndSplineSet
EndChar

StartChar: d
Encoding: 100 100 71
Width: 530
Flags: W
LayerCount: 2
Fore
SplineSet
35 52 m 0,0,1
 23 75 23 75 20 115.5 c 128,-1,2
 17 156 17 156 21.5 206 c 128,-1,3
 26 256 26 256 37.5 310 c 128,-1,4
 49 364 49 364 66.5 413 c 128,-1,5
 84 462 84 462 106.5 502.5 c 128,-1,6
 129 543 129 543 156 565.5 c 128,-1,7
 183 588 183 588 214 587.5 c 128,-1,8
 245 587 245 587 278 555 c 1,9,-1
 312 834 l 2,10,11
 313 838 313 838 320 844.5 c 128,-1,12
 327 851 327 851 330 851 c 0,13,14
 334 851 334 851 340 849 c 128,-1,15
 346 847 346 847 351.5 844.5 c 128,-1,16
 357 842 357 842 361 839 c 128,-1,17
 365 836 365 836 365 834 c 2,18,-1
 365 347 l 2,19,20
 365 292 365 292 384 252 c 128,-1,21
 403 212 403 212 434 193 c 128,-1,22
 465 174 465 174 505.5 180.5 c 128,-1,23
 546 187 546 187 590 225 c 1,24,25
 604 225 604 225 603 212.5 c 128,-1,26
 602 200 602 200 591.5 183 c 128,-1,27
 581 166 581 166 561.5 148 c 128,-1,28
 542 130 542 130 518.5 118.5 c 128,-1,29
 495 107 495 107 468.5 106 c 128,-1,30
 442 105 442 105 417 122 c 0,31,32
 397 135 397 135 381 153 c 128,-1,33
 365 171 365 171 352.5 192 c 128,-1,34
 340 213 340 213 329.5 235 c 128,-1,35
 319 257 319 257 312 278 c 1,36,37
 308 269 308 269 298.5 251.5 c 128,-1,38
 289 234 289 234 277 211.5 c 128,-1,39
 265 189 265 189 252 164.5 c 128,-1,40
 239 140 239 140 227 117.5 c 128,-1,41
 215 95 215 95 205 77.5 c 128,-1,42
 195 60 195 60 190 52 c 0,43,44
 176 26 176 26 155 13 c 128,-1,45
 134 0 134 0 111.5 0 c 128,-1,46
 89 0 89 0 68.5 13 c 128,-1,47
 48 26 48 26 35 52 c 0,0,1
87 87 m 0,48,49
 88 84 88 84 92 79.5 c 128,-1,50
 96 75 96 75 101 71.5 c 128,-1,51
 106 68 106 68 111.5 67 c 128,-1,52
 117 66 117 66 122 70 c 0,53,54
 171 107 171 107 201.5 158 c 128,-1,55
 232 209 232 209 251 266 c 128,-1,56
 270 323 270 323 281 382.5 c 128,-1,57
 292 442 292 442 302 496 c 1,58,59
 248 503 248 503 209.5 487.5 c 128,-1,60
 171 472 171 472 145 441 c 128,-1,61
 119 410 119 410 104 367 c 128,-1,62
 89 324 89 324 83 276.5 c 128,-1,63
 77 229 77 229 78.5 179.5 c 128,-1,64
 80 130 80 130 87 87 c 0,48,49
EndSplineSet
EndChar

StartChar: e
Encoding: 101 101 72
Width: 524
Flags: W
LayerCount: 2
Fore
SplineSet
208 17 m 0,0,1
 166 50 166 50 141.5 94.5 c 128,-1,2
 117 139 117 139 104 190 c 1,3,4
 98 185 98 185 86 179 c 128,-1,5
 74 173 74 173 61.5 169 c 128,-1,6
 49 165 49 165 37 163.5 c 128,-1,7
 25 162 25 162 19.5 166 c 128,-1,8
 14 170 14 170 16.5 179.5 c 128,-1,9
 19 189 19 189 35 208 c 0,10,11
 37 211 37 211 47.5 221 c 128,-1,12
 58 231 58 231 70 242.5 c 128,-1,13
 82 254 82 254 92 264.5 c 128,-1,14
 102 275 102 275 104 278 c 0,15,16
 115 303 115 303 117.5 333 c 128,-1,17
 120 363 120 363 120.5 395.5 c 128,-1,18
 121 428 121 428 124 460 c 128,-1,19
 127 492 127 492 139 520 c 0,20,21
 146 536 146 536 165.5 559.5 c 128,-1,22
 185 583 185 583 209.5 605 c 128,-1,23
 234 627 234 627 259.5 644.5 c 128,-1,24
 285 662 285 662 303.5 666 c 128,-1,25
 322 670 322 670 330.5 657 c 128,-1,26
 339 644 339 644 330 607 c 0,27,28
 319 563 319 563 296.5 521.5 c 128,-1,29
 274 480 274 480 250 439.5 c 128,-1,30
 226 399 226 399 204.5 359 c 128,-1,31
 183 319 183 319 174 278 c 0,32,33
 169 256 169 256 169 224.5 c 128,-1,34
 169 193 169 193 176 162 c 128,-1,35
 183 131 183 131 199 105.5 c 128,-1,36
 215 80 215 80 243 70 c 0,37,38
 275 58 275 58 307 64 c 128,-1,39
 339 70 339 70 369.5 87 c 128,-1,40
 400 104 400 104 428 129.5 c 128,-1,41
 456 155 456 155 480 182 c 128,-1,42
 504 209 504 209 523 234.5 c 128,-1,43
 542 260 542 260 555 278 c 1,44,-1
 572 260 l 2,45,46
 579 254 579 254 563.5 226 c 128,-1,47
 548 198 548 198 518.5 162.5 c 128,-1,48
 489 127 489 127 449 90 c 128,-1,49
 409 53 409 53 366.5 28 c 128,-1,50
 324 3 324 3 282.5 -3 c 128,-1,51
 241 -9 241 -9 208 17 c 0,0,1
174 452 m 0,52,53
 173 447 173 447 172.5 434.5 c 128,-1,54
 172 422 172 422 172 408 c 128,-1,55
 172 394 172 394 172.5 382 c 128,-1,56
 173 370 173 370 174 365 c 1,57,58
 206 420 206 420 234 482 c 128,-1,59
 262 544 262 544 278 607 c 1,60,61
 255 599 255 599 236.5 582.5 c 128,-1,62
 218 566 218 566 205 544.5 c 128,-1,63
 192 523 192 523 184.5 499 c 128,-1,64
 177 475 177 475 174 452 c 0,52,53
EndSplineSet
EndChar

StartChar: f
Encoding: 102 102 73
Width: 538
Flags: W
LayerCount: 2
Fore
SplineSet
233 17 m 0,0,1
 231 21 231 21 228.5 28.5 c 128,-1,2
 226 36 226 36 223.5 44.5 c 128,-1,3
 221 53 221 53 218.5 60 c 128,-1,4
 216 67 216 67 216 70 c 0,5,6
 215 81 215 81 213.5 104 c 128,-1,7
 212 127 212 127 210 156 c 128,-1,8
 208 185 208 185 206.5 217.5 c 128,-1,9
 205 250 205 250 203 279 c 128,-1,10
 201 308 201 308 200 331 c 128,-1,11
 199 354 199 354 199 365 c 1,12,13
 197 366 197 366 190 366 c 128,-1,14
 183 366 183 366 181 365 c 0,15,16
 173 363 173 363 153.5 358 c 128,-1,17
 134 353 134 353 112 347 c 2,18,-1
 70 337 l 2,19,20
 50 332 50 332 43 330 c 1,21,-1
 -1 374 l 1,22,-1
 199 434 l 1,23,-1
 233 816 l 2,24,25
 237 853 237 853 256 879 c 128,-1,26
 275 905 275 905 301 920 c 128,-1,27
 327 935 327 935 354.5 938 c 128,-1,28
 382 941 382 941 402 932.5 c 128,-1,29
 422 924 422 924 430 903.5 c 128,-1,30
 438 883 438 883 425 851 c 1,31,32
 410 840 410 840 401.5 842 c 128,-1,33
 393 844 393 844 388.5 851.5 c 128,-1,34
 384 859 384 859 381 869 c 128,-1,35
 378 879 378 879 373 885 c 0,36,37
 354 904 354 904 339.5 897.5 c 128,-1,38
 325 891 325 891 314 866.5 c 128,-1,39
 303 842 303 842 295 805 c 128,-1,40
 287 768 287 768 282 725.5 c 128,-1,41
 277 683 277 683 274 639.5 c 128,-1,42
 271 596 271 596 269.5 560 c 128,-1,43
 268 524 268 524 268 499 c 2,44,-1
 268 469 l 1,45,46
 288 463 288 463 312.5 470 c 128,-1,47
 337 477 337 477 362.5 490 c 128,-1,48
 388 503 388 503 413 517.5 c 128,-1,49
 438 532 438 532 460 540 c 128,-1,50
 482 548 482 548 499.5 545 c 128,-1,51
 517 542 517 542 528 520 c 1,52,-1
 495 486 l 1,53,-1
 286 399 l 1,54,-1
 268 382 l 2,55,56
 267 380 267 380 266.5 354 c 128,-1,57
 266 328 266 328 266 292 c 128,-1,58
 266 256 266 256 266.5 218.5 c 128,-1,59
 267 181 267 181 268 157 c 0,60,61
 269 146 269 146 275.5 124 c 128,-1,62
 282 102 282 102 286.5 77 c 128,-1,63
 291 52 291 52 288.5 30.5 c 128,-1,64
 286 9 286 9 268 0 c 0,65,66
 257 -5 257 -5 247.5 2 c 128,-1,67
 238 9 238 9 233 17 c 0,0,1
EndSplineSet
EndChar

StartChar: g
Encoding: 103 103 74
Width: 540
Flags: W
LayerCount: 2
Fore
SplineSet
190 -295 m 0,0,1
 159 -264 159 -264 157.5 -218.5 c 128,-1,2
 156 -173 156 -173 173 -120.5 c 128,-1,3
 190 -68 190 -68 220 -13 c 128,-1,4
 250 42 250 42 282 93.5 c 128,-1,5
 314 145 314 145 341.5 188.5 c 128,-1,6
 369 232 369 232 382 260 c 0,7,8
 389 276 389 276 385.5 305.5 c 128,-1,9
 382 335 382 335 374.5 365.5 c 128,-1,10
 367 396 367 396 358.5 421 c 128,-1,11
 350 446 350 446 347 452 c 1,12,-1
 330 434 l 1,13,-1
 139 104 l 2,14,15
 137 102 137 102 130.5 97 c 128,-1,16
 124 92 124 92 116 87 c 128,-1,17
 108 82 108 82 99.5 77 c 128,-1,18
 91 72 91 72 87 70 c 0,19,20
 55 57 55 57 39.5 73 c 128,-1,21
 24 89 24 89 23.5 124.5 c 128,-1,22
 23 160 23 160 34.5 210.5 c 128,-1,23
 46 261 46 261 67.5 317 c 128,-1,24
 89 373 89 373 118 430 c 128,-1,25
 147 487 147 487 181.5 535.5 c 128,-1,26
 216 584 216 584 253.5 619 c 128,-1,27
 291 654 291 654 329 666 c 1,28,29
 348 660 348 660 348.5 650.5 c 128,-1,30
 349 641 349 641 338.5 629.5 c 128,-1,31
 328 618 328 618 310.5 605 c 128,-1,32
 293 592 293 592 274.5 579.5 c 128,-1,33
 256 567 256 567 240.5 556 c 128,-1,34
 225 545 225 545 220 537 c 1,35,36
 196 484 196 484 170 437 c 128,-1,37
 144 390 144 390 123.5 343 c 128,-1,38
 103 296 103 296 92 246.5 c 128,-1,39
 81 197 81 197 87 139 c 1,40,-1
 104 157 l 1,41,42
 141 201 141 201 171 258 c 128,-1,43
 201 315 201 315 226 372.5 c 128,-1,44
 251 430 251 430 272 482.5 c 128,-1,45
 293 535 293 535 311 570 c 128,-1,46
 329 605 329 605 346 617 c 128,-1,47
 363 629 363 629 379.5 605 c 128,-1,48
 396 581 396 581 414 515 c 128,-1,49
 432 449 432 449 452 330 c 1,50,51
 457 334 457 334 471.5 344.5 c 128,-1,52
 486 355 486 355 502.5 366 c 128,-1,53
 519 377 519 377 534 386.5 c 128,-1,54
 549 396 549 396 555 399 c 0,55,56
 560 401 560 401 573 401 c 128,-1,57
 586 401 586 401 590 399 c 1,58,59
 586 381 586 381 567.5 357.5 c 128,-1,60
 549 334 549 334 527.5 313 c 128,-1,61
 506 292 506 292 488 276.5 c 128,-1,62
 470 261 470 261 469 260 c 1,63,64
 469 250 469 250 468.5 230 c 128,-1,65
 468 210 468 210 466.5 184 c 128,-1,66
 465 158 465 158 463 130 c 128,-1,67
 461 102 461 102 459 76 c 128,-1,68
 457 50 457 50 455 30 c 2,69,-1
 452 0 l 2,70,71
 450 -13 450 -13 437.5 -47.5 c 128,-1,72
 425 -82 425 -82 406 -125 c 128,-1,73
 387 -168 387 -168 362 -211 c 128,-1,74
 337 -254 337 -254 309 -282.5 c 128,-1,75
 281 -311 281 -311 250.5 -318 c 128,-1,76
 220 -325 220 -325 190 -295 c 0,0,1
243 -122 m 0,77,78
 242 -130 242 -130 241.5 -149.5 c 128,-1,79
 241 -169 241 -169 241 -191 c 128,-1,80
 241 -213 241 -213 241.5 -233 c 128,-1,81
 242 -253 242 -253 243 -260 c 1,82,83
 296 -238 296 -238 331 -186 c 128,-1,84
 366 -134 366 -134 384 -70.5 c 128,-1,85
 402 -7 402 -7 405.5 59 c 128,-1,86
 409 125 409 125 399 174 c 1,87,88
 370 150 370 150 344 114.5 c 128,-1,89
 318 79 318 79 297 38.5 c 128,-1,90
 276 -2 276 -2 262 -44 c 128,-1,91
 248 -86 248 -86 243 -122 c 0,77,78
EndSplineSet
EndChar

StartChar: h
Encoding: 104 104 75
Width: 469
Flags: W
LayerCount: 2
Fore
SplineSet
104 35 m 1,0,1
 113 141 113 141 108.5 238 c 128,-1,2
 104 335 104 335 92 431 c 128,-1,3
 80 527 80 527 64 626 c 128,-1,4
 48 725 48 725 35 834 c 0,5,6
 35 837 35 837 34.5 844 c 128,-1,7
 34 851 34 851 34 859.5 c 128,-1,8
 34 868 34 868 34.5 875 c 128,-1,9
 35 882 35 882 35 885 c 1,10,-1
 70 885 l 1,11,12
 73 867 73 867 79.5 829 c 128,-1,13
 86 791 86 791 94.5 743 c 128,-1,14
 103 695 103 695 112.5 642 c 128,-1,15
 122 589 122 589 130.5 541 c 128,-1,16
 139 493 139 493 146 455 c 128,-1,17
 153 417 153 417 157 399 c 0,18,19
 157 396 157 396 159.5 388.5 c 128,-1,20
 162 381 162 381 164.5 373 c 128,-1,21
 167 365 167 365 169.5 357.5 c 128,-1,22
 172 350 172 350 174 347 c 1,23,24
 177 355 177 355 186.5 374.5 c 128,-1,25
 196 394 196 394 207 416.5 c 128,-1,26
 218 439 218 439 228 458.5 c 128,-1,27
 238 478 238 478 243 486 c 0,28,29
 259 515 259 515 284 539 c 128,-1,30
 309 563 309 563 333 569 c 128,-1,31
 357 575 357 575 375.5 557.5 c 128,-1,32
 394 540 394 540 399 486 c 0,33,34
 400 473 400 473 401.5 446 c 128,-1,35
 403 419 403 419 405 384.5 c 128,-1,36
 407 350 407 350 409 312 c 128,-1,37
 411 274 411 274 412.5 240 c 128,-1,38
 414 206 414 206 415.5 179 c 128,-1,39
 417 152 417 152 417 139 c 1,40,41
 428 125 428 125 433.5 106.5 c 128,-1,42
 439 88 439 88 434 70 c 1,43,44
 414 63 414 63 400 71 c 128,-1,45
 386 79 386 79 376 93.5 c 128,-1,46
 366 108 366 108 359 126 c 128,-1,47
 352 144 352 144 347 157 c 1,48,49
 349 195 349 195 350 239 c 128,-1,50
 351 283 351 283 349.5 328.5 c 128,-1,51
 348 374 348 374 343.5 419 c 128,-1,52
 339 464 339 464 330 504 c 1,53,54
 312 513 312 513 296.5 497 c 128,-1,55
 281 481 281 481 267.5 448.5 c 128,-1,56
 254 416 254 416 242 372 c 128,-1,57
 230 328 230 328 219 279.5 c 128,-1,58
 208 231 208 231 197.5 183 c 128,-1,59
 187 135 187 135 177.5 96 c 128,-1,60
 168 57 168 57 158.5 31 c 128,-1,61
 149 5 149 5 139 0 c 1,62,-1
 104 35 l 1,0,1
EndSplineSet
EndChar

StartChar: i
Encoding: 105 105 76
Width: 200
Flags: W
LayerCount: 2
Fore
SplineSet
35 52 m 0,0,1
 33 56 33 56 30 67.5 c 128,-1,2
 27 79 27 79 24 93 c 128,-1,3
 21 107 21 107 19 120 c 128,-1,4
 17 133 17 133 17 139 c 2,5,-1
 17 625 l 2,6,7
 17 635 17 635 26 639 c 128,-1,8
 35 643 35 643 46.5 643.5 c 128,-1,9
 58 644 58 644 67.5 643 c 128,-1,10
 77 642 77 642 78 642 c 1,11,-1
 78 104 l 2,12,13
 78 87 78 87 89 76 c 128,-1,14
 100 65 100 65 115 58.5 c 128,-1,15
 130 52 130 52 146 50.5 c 128,-1,16
 162 49 162 49 173 52 c 1,17,18
 187 31 187 31 172.5 18.5 c 128,-1,19
 158 6 158 6 131.5 4.5 c 128,-1,20
 105 3 105 3 76.5 14.5 c 128,-1,21
 48 26 48 26 35 52 c 0,0,1
0 799 m 0,22,23
 0 828 0 828 23 836.5 c 128,-1,24
 46 845 46 845 70 834 c 1,25,-1
 70 781 l 1,26,27
 67 780 67 780 59.5 779.5 c 128,-1,28
 52 779 52 779 43.5 779 c 128,-1,29
 35 779 35 779 27.5 779.5 c 128,-1,30
 20 780 20 780 17 781 c 0,31,32
 13 782 13 782 6.5 789 c 128,-1,33
 0 796 0 796 0 799 c 0,22,23
EndSplineSet
EndChar

StartChar: j
Encoding: 106 106 77
Width: 264
Flags: W
LayerCount: 2
Fore
SplineSet
-52 -590 m 0,0,1
 -67 -570 -67 -570 -72 -543 c 128,-1,2
 -77 -516 -77 -516 -75 -487 c 128,-1,3
 -73 -458 -73 -458 -66.5 -430.5 c 128,-1,4
 -60 -403 -60 -403 -52 -382 c 0,5,6
 -48 -370 -48 -370 -39 -345.5 c 128,-1,7
 -30 -321 -30 -321 -18 -290 c 128,-1,8
 -6 -259 -6 -259 7 -225 c 128,-1,9
 20 -191 20 -191 32.5 -160.5 c 128,-1,10
 45 -130 45 -130 55 -106 c 2,11,-1
 70 -70 l 1,12,13
 74 -30 74 -30 70 7.5 c 128,-1,14
 66 45 66 45 58 81 c 128,-1,15
 50 117 50 117 39 153 c 128,-1,16
 28 189 28 189 17 226 c 0,17,18
 13 239 13 239 18.5 247.5 c 128,-1,19
 24 256 24 256 33 258.5 c 128,-1,20
 42 261 42 261 52.5 257.5 c 128,-1,21
 63 254 63 254 70 243 c 0,22,23
 86 216 86 216 94 188.5 c 128,-1,24
 102 161 102 161 108 132.5 c 128,-1,25
 114 104 114 104 120 75 c 128,-1,26
 126 46 126 46 138 17 c 1,27,28
 149 26 149 26 173.5 46.5 c 128,-1,29
 198 67 198 67 228.5 86.5 c 128,-1,30
 259 106 259 106 290.5 118 c 128,-1,31
 322 130 322 130 347 122 c 0,32,33
 350 121 350 121 357 114.5 c 128,-1,34
 364 108 364 108 365 104 c 1,35,36
 357 91 357 91 338 79 c 128,-1,37
 319 67 319 67 294.5 54.5 c 128,-1,38
 270 42 270 42 244 30 c 128,-1,39
 218 18 218 18 196.5 5 c 128,-1,40
 175 -8 175 -8 161 -22.5 c 128,-1,41
 147 -37 147 -37 147 -52 c 2,42,-1
 147 -417 l 2,43,44
 147 -433 147 -433 138.5 -460 c 128,-1,45
 130 -487 130 -487 115.5 -516.5 c 128,-1,46
 101 -546 101 -546 81.5 -572.5 c 128,-1,47
 62 -599 62 -599 39.5 -613 c 128,-1,48
 17 -627 17 -627 -6.5 -623.5 c 128,-1,49
 -30 -620 -30 -620 -52 -590 c 0,0,1
0 -417 m 0,50,51
 -1 -425 -1 -425 -1.5 -444.5 c 128,-1,52
 -2 -464 -2 -464 -2 -486 c 128,-1,53
 -2 -508 -2 -508 -1.5 -528 c 128,-1,54
 -1 -548 -1 -548 0 -555 c 1,55,56
 2 -556 2 -556 8.5 -556 c 128,-1,57
 15 -556 15 -556 17 -555 c 0,58,59
 33 -547 33 -547 45.5 -520 c 128,-1,60
 58 -493 58 -493 67 -463.5 c 128,-1,61
 76 -434 76 -434 81.5 -409.5 c 128,-1,62
 87 -385 87 -385 87 -382 c 0,63,64
 88 -370 88 -370 88.5 -340.5 c 128,-1,65
 89 -311 89 -311 89 -277.5 c 128,-1,66
 89 -244 89 -244 88.5 -214.5 c 128,-1,67
 88 -185 88 -185 87 -173 c 1,68,69
 55 -230 55 -230 30 -290.5 c 128,-1,70
 5 -351 5 -351 0 -417 c 0,50,51
70 521 m 0,71,72
 63 534 63 534 70.5 543.5 c 128,-1,73
 78 553 78 553 91 556 c 128,-1,74
 104 559 104 559 118 555 c 128,-1,75
 132 551 132 551 138 539 c 0,76,77
 144 526 144 526 136.5 517.5 c 128,-1,78
 129 509 129 509 116 506 c 128,-1,79
 103 503 103 503 89.5 506 c 128,-1,80
 76 509 76 509 70 521 c 0,71,72
EndSplineSet
EndChar

StartChar: k
Encoding: 107 107 78
Width: 481
Flags: W
LayerCount: 2
Fore
SplineSet
90 70 m 0,0,1
 91 86 91 86 97.5 116.5 c 128,-1,2
 104 147 104 147 109.5 181.5 c 128,-1,3
 115 216 115 216 116.5 250 c 128,-1,4
 118 284 118 284 110 307.5 c 128,-1,5
 102 331 102 331 81.5 339 c 128,-1,6
 61 347 61 347 22 330 c 1,7,8
 0 336 0 336 -3 347 c 128,-1,9
 -6 358 -6 358 3 372 c 128,-1,10
 12 386 12 386 28.5 402.5 c 128,-1,11
 45 419 45 419 62 436.5 c 128,-1,12
 79 454 79 454 92.5 471 c 128,-1,13
 106 488 106 488 108 504 c 1,14,15
 107 512 107 512 104.5 539 c 128,-1,16
 102 566 102 566 98 601.5 c 128,-1,17
 94 637 94 637 90.5 677 c 128,-1,18
 87 717 87 717 83 753 c 128,-1,19
 79 789 79 789 76.5 815.5 c 128,-1,20
 74 842 74 842 73 851 c 0,21,22
 72 864 72 864 73.5 875.5 c 128,-1,23
 75 887 75 887 81 895 c 128,-1,24
 87 903 87 903 97.5 905.5 c 128,-1,25
 108 908 108 908 125 902 c 1,26,27
 130 864 130 864 135 816 c 128,-1,28
 140 768 140 768 146 717 c 128,-1,29
 152 666 152 666 159.5 615 c 128,-1,30
 167 564 167 564 177 520 c 1,31,32
 187 528 187 528 201 547.5 c 128,-1,33
 215 567 215 567 231 590.5 c 128,-1,34
 247 614 247 614 264.5 637.5 c 128,-1,35
 282 661 282 661 298 675.5 c 128,-1,36
 314 690 314 690 328 692.5 c 128,-1,37
 342 695 342 695 351 677 c 0,38,39
 352 675 352 675 352 668.5 c 128,-1,40
 352 662 352 662 351 659 c 0,41,42
 338 619 338 619 309.5 585 c 128,-1,43
 281 551 281 551 251.5 519 c 128,-1,44
 222 487 222 487 200 453.5 c 128,-1,45
 178 420 178 420 177 382 c 1,46,47
 186 374 186 374 203 356 c 2,48,-1
 290 269 l 2,49,50
 315 245 315 245 337 222.5 c 128,-1,51
 359 200 359 200 376 182 c 1,52,-1
 402 157 l 2,53,54
 408 151 408 151 421 137.5 c 128,-1,55
 434 124 434 124 444 108 c 128,-1,56
 454 92 454 92 455 77 c 128,-1,57
 456 62 456 62 437 52 c 0,58,59
 435 51 435 51 428.5 51 c 128,-1,60
 422 51 422 51 420 52 c 0,61,62
 369 116 369 116 307.5 181.5 c 128,-1,63
 246 247 246 247 177 295 c 1,64,65
 176 286 176 286 174 267 c 128,-1,66
 172 248 172 248 168.5 224 c 128,-1,67
 165 200 165 200 161.5 173.5 c 128,-1,68
 158 147 158 147 154 123 c 128,-1,69
 150 99 150 99 147 80 c 128,-1,70
 144 61 144 61 142 52 c 0,71,72
 141 47 141 47 136.5 36.5 c 128,-1,73
 132 26 132 26 125 16 c 128,-1,74
 118 6 118 6 109 0.5 c 128,-1,75
 100 -5 100 -5 90 0 c 1,76,77
 90 4 90 4 89.5 13.5 c 128,-1,78
 89 23 89 23 89 34.5 c 128,-1,79
 89 46 89 46 89.5 56 c 128,-1,80
 90 66 90 66 90 70 c 0,0,1
EndSplineSet
EndChar

StartChar: l
Encoding: 108 108 79
Width: 249
Flags: W
LayerCount: 2
Fore
SplineSet
78 17 m 0,0,1
 56 31 56 31 45.5 60.5 c 128,-1,2
 35 90 35 90 30.5 122.5 c 128,-1,3
 26 155 26 155 26 183 c 2,4,-1
 26 225 l 2,5,6
 26 236 26 236 27 269.5 c 128,-1,7
 28 303 28 303 30 347.5 c 128,-1,8
 32 392 32 392 34 442.5 c 128,-1,9
 36 493 36 493 38 537.5 c 128,-1,10
 40 582 40 582 41.5 615 c 128,-1,11
 43 648 43 648 43 659 c 0,12,13
 43 674 43 674 43.5 711 c 128,-1,14
 44 748 44 748 44 789.5 c 128,-1,15
 44 831 44 831 43.5 868 c 128,-1,16
 43 905 43 905 43 920 c 1,17,18
 58 931 58 931 69 935 c 0,19,20
 79 939 79 939 87 936.5 c 128,-1,21
 95 934 95 934 95 920 c 2,22,-1
 95 104 l 2,23,24
 95 97 95 97 99.5 87.5 c 128,-1,25
 104 78 104 78 111 71 c 128,-1,26
 118 64 118 64 127.5 62.5 c 128,-1,27
 137 61 137 61 147 70 c 2,28,-1
 268 173 l 1,29,30
 273 150 273 150 267 125 c 128,-1,31
 261 100 261 100 247.5 78 c 128,-1,32
 234 56 234 56 214 38 c 128,-1,33
 194 20 194 20 171 10.5 c 128,-1,34
 148 1 148 1 124 1.5 c 128,-1,35
 100 2 100 2 78 17 c 0,0,1
EndSplineSet
EndChar

StartChar: m
Encoding: 109 109 80
Width: 746
Flags: W
LayerCount: 2
Fore
SplineSet
321 17 m 1,0,1
 323 57 323 57 323.5 101.5 c 128,-1,2
 324 146 324 146 322 191 c 128,-1,3
 320 236 320 236 315.5 280.5 c 128,-1,4
 311 325 311 325 303 365 c 0,5,6
 289 438 289 438 267.5 476.5 c 128,-1,7
 246 515 246 515 222.5 517.5 c 128,-1,8
 199 520 199 520 178.5 486.5 c 128,-1,9
 158 453 158 453 147 382 c 0,10,11
 145 371 145 371 142 348 c 128,-1,12
 139 325 139 325 135.5 296 c 128,-1,13
 132 267 132 267 128.5 234.5 c 128,-1,14
 125 202 125 202 121.5 173 c 128,-1,15
 118 144 118 144 116 121 c 128,-1,16
 114 98 114 98 113 87 c 1,17,18
 107 71 107 71 90.5 68 c 128,-1,19
 74 65 74 65 60 70 c 1,20,-1
 26 590 l 2,21,22
 25 603 25 603 32 612.5 c 128,-1,23
 39 622 39 622 48 625.5 c 128,-1,24
 57 629 57 629 66 625 c 128,-1,25
 75 621 75 621 78 607 c 2,26,-1
 113 452 l 1,27,28
 144 527 144 527 170.5 558.5 c 128,-1,29
 197 590 197 590 220 591 c 128,-1,30
 243 592 243 592 264 569 c 128,-1,31
 285 546 285 546 303.5 513.5 c 128,-1,32
 322 481 322 481 339 444.5 c 128,-1,33
 356 408 356 408 373 382 c 1,34,35
 414 523 414 523 466.5 585.5 c 128,-1,36
 519 648 519 648 567.5 637 c 128,-1,37
 616 626 616 626 653 543.5 c 128,-1,38
 690 461 690 461 702 312 c 0,39,40
 704 289 704 289 705 251.5 c 128,-1,41
 706 214 706 214 706 178 c 128,-1,42
 706 142 706 142 705 115.5 c 128,-1,43
 704 89 704 89 702 87 c 2,44,-1
 685 70 l 1,45,-1
 650 104 l 1,46,47
 656 156 656 156 653.5 212.5 c 128,-1,48
 651 269 651 269 642.5 326 c 128,-1,49
 634 383 634 383 622 437 c 128,-1,50
 610 491 610 491 598 538 c 1,51,52
 584 578 584 578 564 584.5 c 128,-1,53
 544 591 544 591 523.5 577.5 c 128,-1,54
 503 564 503 564 486 537.5 c 128,-1,55
 469 511 469 511 460 486 c 0,56,57
 454 471 454 471 445.5 446 c 128,-1,58
 437 421 437 421 429 396 c 128,-1,59
 421 371 421 371 415 352 c 128,-1,60
 409 333 409 333 408 330 c 0,61,62
 404 312 404 312 398.5 268 c 128,-1,63
 393 224 393 224 387.5 174 c 128,-1,64
 382 124 382 124 378 79.5 c 128,-1,65
 374 35 374 35 373 17 c 0,66,67
 373 2 373 2 365 0 c 128,-1,68
 357 -2 357 -2 347 2 c 0,69,70
 336 6 336 6 321 17 c 1,0,1
EndSplineSet
EndChar

StartChar: n
Encoding: 110 110 81
Width: 507
Flags: W
LayerCount: 2
Fore
SplineSet
70 17 m 1,0,1
 71 30 71 30 71 62 c 2,2,-1
 71 198 l 2,3,4
 71 230 71 230 70 243 c 0,5,6
 69 249 69 249 66.5 269 c 128,-1,7
 64 289 64 289 60.5 316 c 128,-1,8
 57 343 57 343 53 373 c 128,-1,9
 49 403 49 403 45 430 c 128,-1,10
 41 457 41 457 38.5 477 c 128,-1,11
 36 497 36 497 35 504 c 0,12,13
 33 518 33 518 33.5 533 c 128,-1,14
 34 548 34 548 39 559 c 128,-1,15
 44 570 44 570 55 574.5 c 128,-1,16
 66 579 66 579 87 572 c 1,17,18
 88 551 88 551 90.5 522.5 c 128,-1,19
 93 494 93 494 97 463 c 128,-1,20
 101 432 101 432 107 402 c 128,-1,21
 113 372 113 372 122 347 c 1,22,23
 135 384 135 384 147.5 412.5 c 128,-1,24
 160 441 160 441 176 465 c 128,-1,25
 192 489 192 489 212 510.5 c 128,-1,26
 232 532 232 532 260 555 c 0,27,28
 295 584 295 584 318.5 578.5 c 128,-1,29
 342 573 342 573 357.5 544.5 c 128,-1,30
 373 516 373 516 383 471 c 128,-1,31
 393 426 393 426 401 375.5 c 128,-1,32
 409 325 409 325 417.5 276.5 c 128,-1,33
 426 228 426 228 439 192.5 c 128,-1,34
 452 157 452 157 471.5 140.5 c 128,-1,35
 491 124 491 124 521 139 c 1,36,37
 530 112 530 112 523.5 99.5 c 128,-1,38
 517 87 517 87 501.5 85.5 c 128,-1,39
 486 84 486 84 465 93.5 c 128,-1,40
 444 103 444 103 423.5 119.5 c 128,-1,41
 403 136 403 136 387 159 c 128,-1,42
 371 182 371 182 365 208 c 0,43,44
 361 226 361 226 358 267 c 128,-1,45
 355 308 355 308 349 355 c 128,-1,46
 343 402 343 402 330.5 447.5 c 128,-1,47
 318 493 318 493 295 520 c 1,48,-1
 225 452 l 2,49,50
 222 448 222 448 210.5 416 c 128,-1,51
 199 384 199 384 185 342.5 c 128,-1,52
 171 301 171 301 158 258.5 c 128,-1,53
 145 216 145 216 139 190 c 0,54,55
 137 181 137 181 134 156.5 c 128,-1,56
 131 132 131 132 128 104 c 128,-1,57
 125 76 125 76 123.5 51.5 c 128,-1,58
 122 27 122 27 122 17 c 1,59,60
 113 -1 113 -1 96 -1 c 128,-1,61
 79 -1 79 -1 70 17 c 1,0,1
EndSplineSet
EndChar

StartChar: o
Encoding: 111 111 82
Width: 344
Flags: W
LayerCount: 2
Fore
SplineSet
101 52 m 0,0,1
 76 89 76 89 71 134.5 c 128,-1,2
 66 180 66 180 71 230 c 128,-1,3
 76 280 76 280 87 331 c 128,-1,4
 98 382 98 382 106 429.5 c 128,-1,5
 114 477 114 477 115 518.5 c 128,-1,6
 116 560 116 560 101 590 c 0,7,8
 93 606 93 606 79.5 605.5 c 128,-1,9
 66 605 66 605 50.5 601.5 c 128,-1,10
 35 598 35 598 19.5 599 c 128,-1,11
 4 600 4 600 -8 618 c 1,12,13
 -7 622 -7 622 -0.5 628.5 c 128,-1,14
 6 635 6 635 9 636 c 0,15,16
 99 649 99 649 159.5 617.5 c 128,-1,17
 220 586 220 586 256 528.5 c 128,-1,18
 292 471 292 471 305.5 397 c 128,-1,19
 319 323 319 323 315 250 c 128,-1,20
 311 177 311 177 292 114.5 c 128,-1,21
 273 52 273 52 244 18 c 128,-1,22
 215 -16 215 -16 178 -12 c 128,-1,23
 141 -8 141 -8 101 52 c 0,0,1
153 87 m 0,24,25
 154 84 154 84 159 79 c 128,-1,26
 164 74 164 74 169.5 68 c 128,-1,27
 175 62 175 62 180 57.5 c 128,-1,28
 185 53 185 53 187 52 c 1,29,30
 224 73 224 73 242 109 c 128,-1,31
 260 145 260 145 263.5 189 c 128,-1,32
 267 233 267 233 259.5 281.5 c 128,-1,33
 252 330 252 330 238 375 c 128,-1,34
 224 420 224 420 205.5 458 c 128,-1,35
 187 496 187 496 170 520 c 1,36,37
 169 507 169 507 166 480 c 128,-1,38
 163 453 163 453 160 419 c 128,-1,39
 157 385 157 385 153 347 c 128,-1,40
 149 309 149 309 145.5 274.5 c 128,-1,41
 142 240 142 240 139 213 c 128,-1,42
 136 186 136 186 135 173 c 0,43,44
 134 163 134 163 135.5 150.5 c 128,-1,45
 137 138 137 138 140 126 c 128,-1,46
 143 114 143 114 146.5 103.5 c 128,-1,47
 150 93 150 93 153 87 c 0,24,25
EndSplineSet
EndChar

StartChar: p
Encoding: 112 112 83
Width: 564
Flags: W
LayerCount: 2
Fore
SplineSet
78 -503 m 0,0,1
 58 -490 58 -490 45 -462.5 c 128,-1,2
 32 -435 32 -435 24 -404 c 128,-1,3
 16 -373 16 -373 12.5 -343 c 128,-1,4
 9 -313 9 -313 8 -295 c 0,5,6
 4 -209 4 -209 5.5 -113.5 c 128,-1,7
 7 -18 7 -18 23 76.5 c 128,-1,8
 39 171 39 171 72.5 258.5 c 128,-1,9
 106 346 106 346 165 417 c 0,10,11
 196 454 196 454 225.5 484.5 c 128,-1,12
 255 515 255 515 287.5 539 c 128,-1,13
 320 563 320 563 357.5 580.5 c 128,-1,14
 395 598 395 598 442 608 c 0,15,16
 485 617 485 617 507.5 599 c 128,-1,17
 530 581 530 581 537 545.5 c 128,-1,18
 544 510 544 510 537 461.5 c 128,-1,19
 530 413 530 413 513 361.5 c 128,-1,20
 496 310 496 310 471.5 261 c 128,-1,21
 447 212 447 212 419 175 c 128,-1,22
 391 138 391 138 361 117.5 c 128,-1,23
 331 97 331 97 303 104 c 1,24,25
 299 111 299 111 312 137 c 128,-1,26
 325 163 325 163 346.5 201 c 128,-1,27
 368 239 368 239 393.5 285.5 c 128,-1,28
 419 332 419 332 439.5 380 c 128,-1,29
 460 428 460 428 471.5 474 c 128,-1,30
 483 520 483 520 477 556 c 0,31,32
 474 572 474 572 459 575 c 128,-1,33
 444 578 444 578 426.5 574 c 128,-1,34
 409 570 409 570 393 564 c 128,-1,35
 377 558 377 558 373 556 c 0,36,37
 297 523 297 523 241.5 460.5 c 128,-1,38
 186 398 186 398 148 317.5 c 128,-1,39
 110 237 110 237 88.5 146 c 128,-1,40
 67 55 67 55 58 -33.5 c 128,-1,41
 49 -122 49 -122 51 -202.5 c 128,-1,42
 53 -283 53 -283 64 -341.5 c 128,-1,43
 75 -400 75 -400 92 -430.5 c 128,-1,44
 109 -461 109 -461 130 -451 c 0,45,46
 132 -450 132 -450 138.5 -443 c 128,-1,47
 145 -436 145 -436 147 -433 c 0,48,49
 161 -391 161 -391 170 -341 c 128,-1,50
 179 -291 179 -291 183.5 -237 c 128,-1,51
 188 -183 188 -183 189 -128 c 128,-1,52
 190 -73 190 -73 189 -21.5 c 128,-1,53
 188 30 188 30 185.5 76 c 128,-1,54
 183 122 183 122 181 157 c 1,55,56
 178 164 178 164 176.5 183 c 128,-1,57
 175 202 175 202 174.5 224 c 128,-1,58
 174 246 174 246 175.5 267.5 c 128,-1,59
 177 289 177 289 182 300 c 128,-1,60
 187 311 187 311 195 308 c 128,-1,61
 203 305 203 305 216 279 c 1,62,63
 218 266 218 266 220.5 234 c 128,-1,64
 223 202 223 202 226 165.5 c 128,-1,65
 229 129 229 129 231 97 c 128,-1,66
 233 65 233 65 233 52 c 0,67,68
 234 38 234 38 234.5 13.5 c 128,-1,69
 235 -11 235 -11 235 -39 c 2,70,-1
 235 -154 l 2,71,72
 235 -180 235 -180 234.5 -199.5 c 128,-1,73
 234 -219 234 -219 233 -225 c 1,74,75
 233 -234 233 -234 228.5 -260.5 c 128,-1,76
 224 -287 224 -287 219 -317.5 c 128,-1,77
 214 -348 214 -348 208 -376 c 128,-1,78
 202 -404 202 -404 199 -416 c 0,79,80
 193 -437 193 -437 182 -459 c 128,-1,81
 171 -481 171 -481 155.5 -496 c 128,-1,82
 140 -511 140 -511 120.5 -514.5 c 128,-1,83
 101 -518 101 -518 78 -503 c 0,0,1
EndSplineSet
EndChar

StartChar: q
Encoding: 113 113 84
Width: 339
Flags: W
LayerCount: 2
Fore
SplineSet
417 -625 m 0,0,1
 390 -586 390 -586 371 -542.5 c 128,-1,2
 352 -499 352 -499 340 -457 c 128,-1,3
 328 -415 328 -415 323.5 -377 c 128,-1,4
 319 -339 319 -339 322 -312 c 1,5,6
 313 -252 313 -252 275.5 -218 c 128,-1,7
 238 -184 238 -184 188.5 -167.5 c 128,-1,8
 139 -151 139 -151 83.5 -146 c 128,-1,9
 28 -141 28 -141 -17 -139 c 1,10,11
 -22 -131 -22 -131 -16 -118 c 128,-1,12
 -10 -105 -10 -105 0 -104 c 0,13,14
 31 -100 31 -100 65 -101.5 c 128,-1,15
 99 -103 99 -103 132.5 -108 c 128,-1,16
 166 -113 166 -113 198.5 -121.5 c 128,-1,17
 231 -130 231 -130 260 -139 c 1,18,19
 264 -106 264 -106 261 -65 c 128,-1,20
 258 -24 258 -24 252 16.5 c 128,-1,21
 246 57 246 57 238.5 94 c 128,-1,22
 231 131 231 131 225 157 c 1,23,24
 208 144 208 144 197 128 c 128,-1,25
 186 112 186 112 175 95.5 c 128,-1,26
 164 79 164 79 152 63 c 128,-1,27
 140 47 140 47 122 35 c 0,28,29
 82 8 82 8 59 17.5 c 128,-1,30
 36 27 36 27 27.5 60 c 128,-1,31
 19 93 19 93 22.5 144 c 128,-1,32
 26 195 26 195 39 251 c 128,-1,33
 52 307 52 307 72.5 362.5 c 128,-1,34
 93 418 93 418 118 460 c 128,-1,35
 143 502 143 502 170.5 524.5 c 128,-1,36
 198 547 198 547 225 538 c 1,37,38
 227 536 227 536 227 529 c 128,-1,39
 227 522 227 522 225 520 c 0,40,41
 220 511 220 511 200.5 476 c 128,-1,42
 181 441 181 441 157 392.5 c 128,-1,43
 133 344 133 344 109 289.5 c 128,-1,44
 85 235 85 235 71 188 c 128,-1,45
 57 141 57 141 58.5 108 c 128,-1,46
 60 75 60 75 87 70 c 1,47,48
 121 79 121 79 145.5 103.5 c 128,-1,49
 170 128 170 128 187 162 c 128,-1,50
 204 196 204 196 214.5 236 c 128,-1,51
 225 276 225 276 231 315.5 c 128,-1,52
 237 355 237 355 239.5 390.5 c 128,-1,53
 242 426 242 426 243 452 c 1,54,55
 248 468 248 468 265 471 c 128,-1,56
 282 474 282 474 295 469 c 1,57,58
 295 457 295 457 294.5 431 c 128,-1,59
 294 405 294 405 294 372.5 c 128,-1,60
 294 340 294 340 293.5 304 c 128,-1,61
 293 268 293 268 293.5 235.5 c 128,-1,62
 294 203 294 203 294 177 c 128,-1,63
 294 151 294 151 295 139 c 1,64,65
 295 126 295 126 297.5 99.5 c 128,-1,66
 300 73 300 73 304 40.5 c 128,-1,67
 308 8 308 8 312.5 -27.5 c 128,-1,68
 317 -63 317 -63 322.5 -95 c 128,-1,69
 328 -127 328 -127 334.5 -152.5 c 128,-1,70
 341 -178 341 -178 347 -190 c 0,71,72
 366 -226 366 -226 399.5 -263.5 c 128,-1,73
 433 -301 433 -301 467 -340.5 c 128,-1,74
 501 -380 501 -380 529 -421 c 128,-1,75
 557 -462 557 -462 564 -504 c 128,-1,76
 571 -546 571 -546 551 -589.5 c 128,-1,77
 531 -633 531 -633 469 -677 c 1,78,79
 465 -675 465 -675 457.5 -667.5 c 128,-1,80
 450 -660 450 -660 441.5 -652 c 128,-1,81
 433 -644 433 -644 426 -636 c 128,-1,82
 419 -628 419 -628 417 -625 c 0,0,1
399 -434 m 0,83,84
 402 -444 402 -444 412 -469 c 2,85,-1
 433 -521 l 2,86,87
 444 -549 444 -549 454 -573.5 c 128,-1,88
 464 -598 464 -598 469 -607 c 1,89,90
 485 -623 485 -623 491.5 -612 c 128,-1,91
 498 -601 498 -601 497 -573 c 128,-1,92
 496 -545 496 -545 487 -505 c 128,-1,93
 478 -465 478 -465 461 -423.5 c 128,-1,94
 444 -382 444 -382 420 -343 c 128,-1,95
 396 -304 396 -304 365 -278 c 1,96,97
 364 -280 364 -280 364 -286.5 c 128,-1,98
 364 -293 364 -293 365 -295 c 0,99,100
 368 -307 368 -307 373 -329 c 2,101,-1
 383 -373 l 2,102,103
 388 -395 388 -395 392.5 -412.5 c 128,-1,104
 397 -430 397 -430 399 -434 c 0,83,84
EndSplineSet
EndChar

StartChar: r
Encoding: 114 114 85
Width: 422
Flags: W
LayerCount: 2
Fore
SplineSet
99 11 m 1,0,1
 83 -22 83 -22 72 -22.5 c 128,-1,2
 61 -23 61 -23 53.5 -0.5 c 128,-1,3
 46 22 46 22 41.5 63 c 128,-1,4
 37 104 37 104 35.5 154 c 128,-1,5
 34 204 34 204 35 259 c 128,-1,6
 36 314 36 314 38.5 365 c 128,-1,7
 41 416 41 416 45 458.5 c 128,-1,8
 49 501 49 501 53.5 525.5 c 128,-1,9
 58 550 58 550 63 552 c 128,-1,10
 68 554 68 554 73 525 c 1,11,12
 105 549 105 549 142 570.5 c 128,-1,13
 179 592 179 592 218.5 606.5 c 128,-1,14
 258 621 258 621 298.5 625 c 128,-1,15
 339 629 339 629 377 618 c 1,16,17
 381 605 381 605 378 588 c 128,-1,18
 375 571 375 571 359 566 c 1,19,20
 343 569 343 569 317 569 c 128,-1,21
 291 569 291 569 262 565 c 128,-1,22
 233 561 233 561 204 552 c 128,-1,23
 175 543 175 543 151.5 528.5 c 128,-1,24
 128 514 128 514 113.5 493.5 c 128,-1,25
 99 473 99 473 99 445 c 2,26,-1
 99 11 l 1,0,1
EndSplineSet
EndChar

StartChar: s
Encoding: 115 115 86
Width: 373
Flags: W
LayerCount: 2
Fore
SplineSet
78 17 m 0,0,1
 54 35 54 35 42.5 67.5 c 128,-1,2
 31 100 31 100 30.5 128.5 c 128,-1,3
 30 157 30 157 38 172.5 c 128,-1,4
 46 188 46 188 60 173 c 1,5,6
 58 119 58 119 80 91 c 128,-1,7
 102 63 102 63 133.5 56 c 128,-1,8
 165 49 165 49 200.5 60 c 128,-1,9
 236 71 236 71 261.5 94.5 c 128,-1,10
 287 118 287 118 296.5 152 c 128,-1,11
 306 186 306 186 286 225 c 1,12,13
 260 254 260 254 227.5 281.5 c 128,-1,14
 195 309 195 309 162 336 c 128,-1,15
 129 363 129 363 98 391.5 c 128,-1,16
 67 420 67 420 43 452 c 0,17,18
 41 454 41 454 41 460.5 c 128,-1,19
 41 467 41 467 43 469 c 0,20,21
 50 478 50 478 63 497 c 128,-1,22
 76 516 76 516 93 540 c 128,-1,23
 110 564 110 564 129 590.5 c 128,-1,24
 148 617 148 617 165 641 c 128,-1,25
 182 665 182 665 195.5 684 c 128,-1,26
 209 703 209 703 216 712 c 0,27,28
 230 730 230 730 244.5 733 c 128,-1,29
 259 736 259 736 286 729 c 1,30,31
 285 725 285 725 278 711.5 c 128,-1,32
 271 698 271 698 268 694 c 0,33,34
 260 682 260 682 238 652.5 c 128,-1,35
 216 623 216 623 191 589.5 c 128,-1,36
 166 556 166 556 144 526.5 c 128,-1,37
 122 497 122 497 113 486 c 1,38,39
 105 474 105 474 119 458 c 128,-1,40
 133 442 133 442 159 422 c 128,-1,41
 185 402 185 402 218 377.5 c 128,-1,42
 251 353 251 353 280.5 325 c 128,-1,43
 310 297 310 297 330.5 265 c 128,-1,44
 351 233 351 233 352.5 196.5 c 128,-1,45
 354 160 354 160 331.5 120 c 128,-1,46
 309 80 309 80 251 35 c 0,47,48
 233 21 233 21 211.5 11 c 128,-1,49
 190 1 190 1 167 -2.5 c 128,-1,50
 144 -6 144 -6 121 -2 c 128,-1,51
 98 2 98 2 78 17 c 0,0,1
EndSplineSet
EndChar

StartChar: t
Encoding: 116 116 87
Width: 445
Flags: W
LayerCount: 2
Fore
SplineSet
286 70 m 0,0,1
 264 107 264 107 252 153.5 c 128,-1,2
 240 200 240 200 235 249 c 128,-1,3
 230 298 230 298 230.5 346 c 128,-1,4
 231 394 231 394 233 434 c 1,5,6
 219 438 219 438 201 432 c 128,-1,7
 183 426 183 426 163 416.5 c 128,-1,8
 143 407 143 407 122 396 c 128,-1,9
 101 385 101 385 83 380 c 128,-1,10
 65 375 65 375 50 378 c 128,-1,11
 35 381 35 381 26 399 c 0,12,13
 17 416 17 416 27.5 426 c 128,-1,14
 38 436 38 436 58.5 441.5 c 128,-1,15
 79 447 79 447 106 449.5 c 128,-1,16
 133 452 133 452 157 456 c 128,-1,17
 181 460 181 460 198 466.5 c 128,-1,18
 215 473 215 473 216 486 c 2,19,-1
 251 867 l 2,20,21
 252 876 252 876 260.5 881 c 128,-1,22
 269 886 269 886 278.5 886 c 128,-1,23
 288 886 288 886 295.5 881.5 c 128,-1,24
 303 877 303 877 303 867 c 2,25,-1
 303 538 l 1,26,27
 317 535 317 535 330 538.5 c 128,-1,28
 343 542 343 542 356 547 c 128,-1,29
 369 552 369 552 381.5 555 c 128,-1,30
 394 558 394 558 408 555 c 1,31,32
 414 544 414 544 406 534.5 c 128,-1,33
 398 525 398 525 390 520 c 2,34,-1
 372 509 l 2,35,36
 360 502 360 502 346.5 493.5 c 128,-1,37
 333 485 333 485 320.5 478 c 128,-1,38
 308 471 308 471 303 469 c 1,39,40
 302 455 302 455 301.5 420.5 c 128,-1,41
 301 386 301 386 301 347 c 128,-1,42
 301 308 301 308 301.5 273.5 c 128,-1,43
 302 239 302 239 303 225 c 0,44,45
 307 178 307 178 321 139 c 128,-1,46
 335 100 335 100 359 78 c 128,-1,47
 383 56 383 56 416.5 56 c 128,-1,48
 450 56 450 56 495 87 c 1,49,50
 502 64 502 64 494 46 c 128,-1,51
 486 28 486 28 468 17.5 c 128,-1,52
 450 7 450 7 425 4 c 128,-1,53
 400 1 400 1 374.5 7 c 128,-1,54
 349 13 349 13 325 28.5 c 128,-1,55
 301 44 301 44 286 70 c 0,0,1
EndSplineSet
EndChar

StartChar: u
Encoding: 117 117 88
Width: 449
Flags: W
LayerCount: 2
Fore
SplineSet
52 52 m 0,0,1
 50 56 50 56 47 65.5 c 128,-1,2
 44 75 44 75 41.5 86.5 c 128,-1,3
 39 98 39 98 37 108 c 128,-1,4
 35 118 35 118 35 122 c 2,5,-1
 35 504 l 2,6,7
 35 513 35 513 42 517 c 128,-1,8
 49 521 49 521 58 522 c 128,-1,9
 67 523 67 523 75.5 522 c 128,-1,10
 84 521 84 521 87 520 c 1,11,12
 86 507 86 507 86 480 c 128,-1,13
 86 453 86 453 85.5 419 c 128,-1,14
 85 385 85 385 85.5 347 c 128,-1,15
 86 309 86 309 86 274 c 2,16,-1
 86 213 l 2,17,18
 86 186 86 186 87 173 c 0,19,20
 89 117 89 117 102.5 95 c 128,-1,21
 116 73 116 73 135.5 74.5 c 128,-1,22
 155 76 155 76 176.5 96.5 c 128,-1,23
 198 117 198 117 216.5 145.5 c 128,-1,24
 235 174 235 174 247.5 205 c 128,-1,25
 260 236 260 236 260 260 c 2,26,-1
 260 520 l 1,27,-1
 330 520 l 1,28,29
 328 497 328 497 325 460 c 128,-1,30
 322 423 322 423 321.5 380 c 128,-1,31
 321 337 321 337 323 292.5 c 128,-1,32
 325 248 325 248 332.5 208.5 c 128,-1,33
 340 169 340 169 354 139.5 c 128,-1,34
 368 110 368 110 390.5 97.5 c 128,-1,35
 413 85 413 85 445 93.5 c 128,-1,36
 477 102 477 102 521 139 c 1,37,38
 530 113 530 113 514 89 c 128,-1,39
 498 65 498 65 472 47 c 128,-1,40
 446 29 446 29 416 20.5 c 128,-1,41
 386 12 386 12 365 17 c 0,42,43
 362 18 362 18 355.5 25 c 128,-1,44
 349 32 349 32 347 35 c 0,45,46
 343 42 343 42 333 61.5 c 128,-1,47
 323 81 323 81 312 103 c 128,-1,48
 301 125 301 125 291.5 145 c 128,-1,49
 282 165 282 165 278 173 c 1,50,51
 272 162 272 162 258 139.5 c 128,-1,52
 244 117 244 117 224.5 91.5 c 128,-1,53
 205 66 205 66 182.5 43.5 c 128,-1,54
 160 21 160 21 137 11.5 c 128,-1,55
 114 2 114 2 92 9.5 c 128,-1,56
 70 17 70 17 52 52 c 0,0,1
EndSplineSet
EndChar

StartChar: v
Encoding: 118 118 89
Width: 425
Flags: W
LayerCount: 2
Fore
SplineSet
78 347 m 0,0,1
 75 355 75 355 65 375 c 2,2,-1
 44 417 l 2,3,4
 33 439 33 439 22.5 458.5 c 128,-1,5
 12 478 12 478 8 486 c 1,6,7
 11 497 11 497 21 502 c 128,-1,8
 31 507 31 507 42 506.5 c 128,-1,9
 53 506 53 506 63.5 501 c 128,-1,10
 74 496 74 496 78 486 c 2,11,-1
 216 173 l 1,12,-1
 338 607 l 1,13,-1
 343 614 l 2,14,15
 349 622 349 622 356.5 629.5 c 128,-1,16
 364 637 364 637 373 642 c 128,-1,17
 382 647 382 647 390 642 c 1,18,19
 392 638 392 638 392 624.5 c 128,-1,20
 392 611 392 611 390 607 c 0,21,22
 388 599 388 599 377.5 569 c 128,-1,23
 367 539 367 539 355 503.5 c 128,-1,24
 343 468 343 468 333 437.5 c 128,-1,25
 323 407 323 407 321 399 c 256,26,27
 319 391 319 391 314.5 365.5 c 128,-1,28
 310 340 310 340 305 306 c 128,-1,29
 300 272 300 272 294 234 c 128,-1,30
 288 196 288 196 282.5 162 c 128,-1,31
 277 128 277 128 273 103 c 128,-1,32
 269 78 269 78 268 70 c 0,33,34
 266 58 266 58 261.5 44 c 128,-1,35
 257 30 257 30 249 18.5 c 128,-1,36
 241 7 241 7 228.5 1 c 128,-1,37
 216 -5 216 -5 199 0 c 1,38,39
 195 13 195 13 185.5 40.5 c 128,-1,40
 176 68 176 68 164 102 c 128,-1,41
 152 136 152 136 139 174 c 128,-1,42
 126 212 126 212 114 246 c 128,-1,43
 102 280 102 280 92.5 307 c 128,-1,44
 83 334 83 334 78 347 c 0,0,1
EndSplineSet
EndChar

StartChar: w
Encoding: 119 119 90
Width: 616
Flags: W
LayerCount: 2
Fore
SplineSet
355 52 m 0,0,1
 341 76 341 76 329.5 118.5 c 128,-1,2
 318 161 318 161 309 206 c 128,-1,3
 300 251 300 251 294 290 c 0,4,5
 288 328 288 328 286 346 c 1,6,7
 283 328 283 328 274 293 c 256,8,9
 265 258 265 258 250 217.5 c 128,-1,10
 235 177 235 177 215 136.5 c 128,-1,11
 195 96 195 96 170.5 67 c 128,-1,12
 146 38 146 38 118 27 c 128,-1,13
 90 16 90 16 60 35 c 0,14,15
 58 36 58 36 55 42.5 c 128,-1,16
 52 49 52 49 49.5 57.5 c 128,-1,17
 47 66 47 66 45 74 c 128,-1,18
 43 82 43 82 43 87 c 2,19,-1
 43 504 l 1,20,21
 28 532 28 532 26 550.5 c 128,-1,22
 24 569 24 569 30 579 c 128,-1,23
 36 589 36 589 46.5 591.5 c 128,-1,24
 57 594 57 594 68 590.5 c 128,-1,25
 79 587 79 587 87 578 c 128,-1,26
 95 569 95 569 95 555 c 2,27,-1
 95 139 l 1,28,-1
 113 87 l 1,29,30
 162 121 162 121 192 170 c 128,-1,31
 222 219 222 219 238 275 c 128,-1,32
 254 331 254 331 260 390 c 128,-1,33
 266 449 266 449 268 504 c 1,34,35
 273 505 273 505 281.5 506 c 128,-1,36
 290 507 290 507 298 505.5 c 128,-1,37
 306 504 306 504 312.5 499.5 c 128,-1,38
 319 495 319 495 321 486 c 2,39,-1
 390 122 l 1,40,-1
 425 52 l 1,41,42
 448 68 448 68 460 108 c 128,-1,43
 472 148 472 148 477 203 c 128,-1,44
 482 258 482 258 482.5 322 c 128,-1,45
 483 386 483 386 482.5 450 c 128,-1,46
 482 514 482 514 483.5 572 c 128,-1,47
 485 630 485 630 493 672 c 128,-1,48
 501 714 501 714 517.5 735 c 128,-1,49
 534 756 534 756 563 746 c 0,50,51
 583 740 583 740 582 723.5 c 128,-1,52
 581 707 581 707 571.5 689.5 c 128,-1,53
 562 672 562 672 550.5 657.5 c 128,-1,54
 539 643 539 643 538 642 c 1,55,-1
 538 173 l 2,56,57
 538 153 538 153 529.5 127 c 128,-1,58
 521 101 521 101 507 76.5 c 128,-1,59
 493 52 493 52 475 32 c 128,-1,60
 457 12 457 12 436.5 5.5 c 128,-1,61
 416 -1 416 -1 395 8.5 c 128,-1,62
 374 18 374 18 355 52 c 0,0,1
EndSplineSet
EndChar

StartChar: x
Encoding: 120 120 91
Width: 590
Flags: W
LayerCount: 2
Fore
SplineSet
35 17 m 0,0,1
 23 55 23 55 27 91 c 128,-1,2
 31 127 31 127 43.5 161.5 c 128,-1,3
 56 196 56 196 74.5 230 c 128,-1,4
 93 264 93 264 108.5 297.5 c 128,-1,5
 124 331 124 331 133.5 365 c 128,-1,6
 143 399 143 399 139 434 c 0,7,8
 138 441 138 441 135 461 c 128,-1,9
 132 481 132 481 128.5 507.5 c 128,-1,10
 125 534 125 534 121 564.5 c 128,-1,11
 117 595 117 595 113.5 621.5 c 128,-1,12
 110 648 110 648 107 668 c 128,-1,13
 104 688 104 688 104 694 c 0,14,15
 100 734 100 734 110.5 763 c 128,-1,16
 121 792 121 792 135 806 c 128,-1,17
 149 820 149 820 161.5 819 c 128,-1,18
 174 818 174 818 174 799 c 1,19,20
 173 786 173 786 172.5 754 c 128,-1,21
 172 722 172 722 172 685.5 c 128,-1,22
 172 649 172 649 172.5 617 c 128,-1,23
 173 585 173 585 174 572 c 0,24,25
 174 568 174 568 176 558 c 128,-1,26
 178 548 178 548 180.5 537 c 128,-1,27
 183 526 183 526 186 516.5 c 128,-1,28
 189 507 189 507 191 504 c 1,29,30
 249 598 249 598 310.5 646.5 c 128,-1,31
 372 695 372 695 425.5 706 c 128,-1,32
 479 717 479 717 519 696 c 128,-1,33
 559 675 559 675 574 630 c 128,-1,34
 589 585 589 585 574.5 521 c 128,-1,35
 560 457 560 457 504 382 c 0,36,37
 468 334 468 334 430 314 c 128,-1,38
 392 294 392 294 355.5 291 c 128,-1,39
 319 288 319 288 285.5 295 c 128,-1,40
 252 302 252 302 225.5 308 c 128,-1,41
 199 314 199 314 181 313.5 c 128,-1,42
 163 313 163 313 157 295 c 0,43,44
 152 281 152 281 143.5 254.5 c 128,-1,45
 135 228 135 228 127 200 c 128,-1,46
 119 172 119 172 112 149.5 c 128,-1,47
 105 127 105 127 104 122 c 0,48,49
 101 110 101 110 102.5 89 c 128,-1,50
 104 68 104 68 101 48.5 c 128,-1,51
 98 29 98 29 87.5 14.5 c 128,-1,52
 77 0 77 0 52 0 c 0,53,54
 50 0 50 0 43.5 6.5 c 128,-1,55
 37 13 37 13 35 17 c 0,0,1
278 347 m 0,56,57
 306 324 306 324 338 327 c 128,-1,58
 370 330 370 330 399 347 c 0,59,60
 446 375 446 375 475 413.5 c 128,-1,61
 504 452 504 452 516.5 492 c 128,-1,62
 529 532 529 532 527 569 c 128,-1,63
 525 606 525 606 509.5 631.5 c 128,-1,64
 494 657 494 657 467 666 c 128,-1,65
 440 675 440 675 403.5 659 c 128,-1,66
 367 643 367 643 321.5 597.5 c 128,-1,67
 276 552 276 552 225 469 c 1,68,69
 216 446 216 446 217 429 c 128,-1,70
 218 412 218 412 226.5 397.5 c 128,-1,71
 235 383 235 383 249 371 c 128,-1,72
 263 359 263 359 278 347 c 0,56,57
EndSplineSet
EndChar

StartChar: y
Encoding: 121 121 92
Width: 763
Flags: W
LayerCount: 2
Fore
SplineSet
426 -295 m 0,0,1
 401 -278 401 -278 391.5 -250 c 128,-1,2
 382 -222 382 -222 383 -188 c 128,-1,3
 384 -154 384 -154 393 -116.5 c 128,-1,4
 402 -79 402 -79 414 -44 c 128,-1,5
 426 -9 426 -9 439 21 c 128,-1,6
 452 51 452 51 461 70 c 0,7,8
 465 79 465 79 474 98 c 128,-1,9
 483 117 483 117 495 141 c 2,10,-1
 545 241 l 2,11,12
 557 265 557 265 567 284 c 128,-1,13
 577 303 577 303 582 312 c 1,14,15
 587 359 587 359 575.5 386 c 128,-1,16
 564 413 564 413 543 423 c 128,-1,17
 522 433 522 433 494.5 428 c 128,-1,18
 467 423 467 423 438.5 407 c 128,-1,19
 410 391 410 391 383.5 366.5 c 128,-1,20
 357 342 357 342 339 312 c 1,21,22
 333 307 333 307 318 288.5 c 128,-1,23
 303 270 303 270 282 243.5 c 128,-1,24
 261 217 261 217 235.5 186 c 128,-1,25
 210 155 210 155 183.5 125.5 c 128,-1,26
 157 96 157 96 132 71 c 128,-1,27
 107 46 107 46 85.5 32 c 128,-1,28
 64 18 64 18 48.5 17 c 128,-1,29
 33 16 33 16 27 35 c 0,30,31
 26 36 26 36 25.5 41 c 128,-1,32
 25 46 25 46 25 51.5 c 128,-1,33
 25 57 25 57 25.5 62 c 128,-1,34
 26 67 26 67 27 70 c 0,35,36
 29 80 29 80 35.5 112 c 128,-1,37
 42 144 42 144 50.5 187 c 128,-1,38
 59 230 59 230 69 279 c 128,-1,39
 79 328 79 328 87.5 371 c 128,-1,40
 96 414 96 414 103 445.5 c 128,-1,41
 110 477 110 477 113 487 c 0,42,43
 115 496 115 496 126 511 c 128,-1,44
 137 526 137 526 151 536 c 128,-1,45
 165 546 165 546 178.5 545 c 128,-1,46
 192 544 192 544 200 522 c 1,47,48
 190 507 190 507 177 475 c 128,-1,49
 164 443 164 443 151.5 403 c 128,-1,50
 139 363 139 363 127 318.5 c 128,-1,51
 115 274 115 274 106.5 233 c 128,-1,52
 98 192 98 192 95 157.5 c 128,-1,53
 92 123 92 123 96 104 c 1,54,55
 138 161 138 161 190 225 c 128,-1,56
 242 289 242 289 296 346 c 128,-1,57
 350 403 350 403 403.5 445 c 128,-1,58
 457 487 457 487 502.5 499 c 128,-1,59
 548 511 548 511 582.5 485.5 c 128,-1,60
 617 460 617 460 634 382 c 1,61,-1
 756 486 l 1,62,-1
 808 486 l 1,63,64
 817 458 817 458 807.5 448 c 128,-1,65
 798 438 798 438 780 432.5 c 128,-1,66
 762 427 762 427 740.5 420.5 c 128,-1,67
 719 414 719 414 704.5 394 c 128,-1,68
 690 374 690 374 687 335 c 128,-1,69
 684 296 684 296 703 225 c 0,70,71
 717 175 717 175 722.5 122 c 128,-1,72
 728 69 728 69 721 17 c 0,73,74
 718 -6 718 -6 705.5 -45.5 c 128,-1,75
 693 -85 693 -85 673 -128 c 128,-1,76
 653 -171 653 -171 626 -212 c 128,-1,77
 599 -253 599 -253 567.5 -280 c 128,-1,78
 536 -307 536 -307 500 -313.5 c 128,-1,79
 464 -320 464 -320 426 -295 c 0,0,1
443 -208 m 0,80,81
 451 -246 451 -246 469.5 -256 c 128,-1,82
 488 -266 488 -266 512 -254 c 128,-1,83
 536 -242 536 -242 562.5 -211 c 128,-1,84
 589 -180 589 -180 611.5 -137 c 128,-1,85
 634 -94 634 -94 650 -41.5 c 128,-1,86
 666 11 666 11 669.5 66 c 128,-1,87
 673 121 673 121 661 175.5 c 128,-1,88
 649 230 649 230 616 278 c 1,89,90
 593 261 593 261 570 226 c 128,-1,91
 547 191 547 191 526.5 146 c 128,-1,92
 506 101 506 101 488 50.5 c 128,-1,93
 470 0 470 0 458.5 -48.5 c 128,-1,94
 447 -97 447 -97 442.5 -139 c 128,-1,95
 438 -181 438 -181 443 -208 c 0,80,81
EndSplineSet
EndChar

StartChar: z
Encoding: 122 122 93
Width: 639
Flags: W
LayerCount: 2
Fore
SplineSet
87 62 m 0,0,1
 50 108 50 108 47 153.5 c 128,-1,2
 44 199 44 199 61 241 c 128,-1,3
 78 283 78 283 108.5 320.5 c 128,-1,4
 139 358 139 358 168.5 387 c 128,-1,5
 198 416 198 416 220.5 436 c 128,-1,6
 243 456 243 456 244 463 c 1,7,8
 233 451 233 451 213 442 c 128,-1,9
 193 433 193 433 169.5 429.5 c 128,-1,10
 146 426 146 426 121.5 430 c 128,-1,11
 97 434 97 434 78.5 449 c 128,-1,12
 60 464 60 464 50 491 c 128,-1,13
 40 518 40 518 45 561 c 1,14,15
 59 577 59 577 69.5 575 c 128,-1,16
 80 573 80 573 89.5 562 c 128,-1,17
 99 551 99 551 107.5 533.5 c 128,-1,18
 116 516 116 516 126.5 500.5 c 128,-1,19
 137 485 137 485 150.5 475 c 128,-1,20
 164 465 164 465 182 469 c 0,21,22
 209 474 209 474 237 496 c 128,-1,23
 265 518 265 518 295 540 c 128,-1,24
 325 562 325 562 358.5 576 c 128,-1,25
 392 590 392 590 429 580 c 0,26,27
 455 573 455 573 453 557 c 128,-1,28
 451 541 451 541 433.5 520.5 c 128,-1,29
 416 500 416 500 387.5 478.5 c 128,-1,30
 359 457 359 457 331.5 438.5 c 128,-1,31
 304 420 304 420 282.5 407.5 c 128,-1,32
 261 395 261 395 258 393 c 0,33,34
 235 376 235 376 211 357 c 128,-1,35
 187 338 187 338 166.5 315.5 c 128,-1,36
 146 293 146 293 131.5 268.5 c 128,-1,37
 117 244 117 244 113 217 c 0,38,39
 104 161 104 161 114.5 126 c 128,-1,40
 125 91 125 91 150 72.5 c 128,-1,41
 175 54 175 54 210.5 49 c 128,-1,42
 246 44 246 44 287 49 c 128,-1,43
 328 54 328 54 371.5 67 c 128,-1,44
 415 80 415 80 454.5 95.5 c 128,-1,45
 494 111 494 111 527.5 128 c 128,-1,46
 561 145 561 145 582 159 c 1,47,48
 595 159 595 159 607 153 c 128,-1,49
 619 147 619 147 624.5 137.5 c 128,-1,50
 630 128 630 128 625.5 117.5 c 128,-1,51
 621 107 621 107 602 99 c 0,52,53
 571 87 571 87 529.5 69 c 128,-1,54
 488 51 488 51 441 34 c 128,-1,55
 394 17 394 17 344.5 5.5 c 128,-1,56
 295 -6 295 -6 248 -6 c 128,-1,57
 201 -6 201 -6 159.5 9 c 128,-1,58
 118 24 118 24 87 62 c 0,0,1
EndSplineSet
EndChar

StartChar: braceleft
Encoding: 123 123 94
Width: 572
Flags: W
LayerCount: 2
Fore
SplineSet
129 -150 m 0,0,1
 109 -142 109 -142 89 -128 c 128,-1,2
 69 -114 69 -114 56.5 -95.5 c 128,-1,3
 44 -77 44 -77 43 -55.5 c 128,-1,4
 42 -34 42 -34 59 -10 c 0,5,6
 67 0 67 0 84 21.5 c 128,-1,7
 101 43 101 43 121.5 70 c 128,-1,8
 142 97 142 97 165 127.5 c 128,-1,9
 188 158 188 158 208 185 c 128,-1,10
 228 212 228 212 244 234 c 128,-1,11
 260 256 260 256 267 267 c 0,12,13
 305 321 305 321 307 354 c 128,-1,14
 309 387 309 387 291 406.5 c 128,-1,15
 273 426 273 426 241.5 437.5 c 128,-1,16
 210 449 210 449 182 459.5 c 128,-1,17
 154 470 154 470 137 485 c 128,-1,18
 120 500 120 500 129 527 c 1,19,20
 152 532 152 532 181.5 537 c 128,-1,21
 211 542 211 542 240.5 551 c 128,-1,22
 270 560 270 560 295.5 575 c 128,-1,23
 321 590 321 590 337 614 c 0,24,25
 339 616 339 616 339 623 c 128,-1,26
 339 630 339 630 337 632 c 2,27,-1
 164 753 l 2,28,29
 153 761 153 761 148.5 779.5 c 128,-1,30
 144 798 144 798 143 817.5 c 128,-1,31
 142 837 142 837 143.5 853.5 c 128,-1,32
 145 870 145 870 146 874 c 1,33,34
 164 894 164 894 189.5 920.5 c 128,-1,35
 215 947 215 947 245 973.5 c 128,-1,36
 275 1000 275 1000 308.5 1024 c 128,-1,37
 342 1048 342 1048 376.5 1064.5 c 128,-1,38
 411 1081 411 1081 445 1086.5 c 128,-1,39
 479 1092 479 1092 511 1082 c 1,40,41
 517 1070 517 1070 493.5 1055 c 128,-1,42
 470 1040 470 1040 432.5 1021.5 c 128,-1,43
 395 1003 395 1003 351 980.5 c 128,-1,44
 307 958 307 958 272 931 c 128,-1,45
 237 904 237 904 219 872.5 c 128,-1,46
 201 841 201 841 215 805 c 0,47,48
 223 785 223 785 242.5 766.5 c 128,-1,49
 262 748 262 748 286 731 c 128,-1,50
 310 714 310 714 335 697 c 128,-1,51
 360 680 360 680 378.5 663 c 128,-1,52
 397 646 397 646 405.5 628.5 c 128,-1,53
 414 611 414 611 406 592.5 c 128,-1,54
 398 574 398 574 369.5 553.5 c 128,-1,55
 341 533 341 533 285 510 c 1,56,57
 333 472 333 472 347.5 429.5 c 128,-1,58
 362 387 362 387 353.5 343 c 128,-1,59
 345 299 345 299 320 255.5 c 128,-1,60
 295 212 295 212 263.5 171 c 128,-1,61
 232 130 232 130 200 92.5 c 128,-1,62
 168 55 168 55 146 24 c 0,63,64
 118 -15 118 -15 119 -41 c 128,-1,65
 120 -67 120 -67 141 -82.5 c 128,-1,66
 162 -98 162 -98 199 -104.5 c 128,-1,67
 236 -111 236 -111 280 -112 c 128,-1,68
 324 -113 324 -113 371.5 -110.5 c 128,-1,69
 419 -108 419 -108 460.5 -104.5 c 128,-1,70
 502 -101 502 -101 534 -98.5 c 128,-1,71
 566 -96 566 -96 580 -97 c 1,72,73
 593 -117 593 -117 582 -130.5 c 128,-1,74
 571 -144 571 -144 543.5 -152 c 128,-1,75
 516 -160 516 -160 476 -163.5 c 128,-1,76
 436 -167 436 -167 391.5 -167.5 c 128,-1,77
 347 -168 347 -168 302.5 -166 c 128,-1,78
 258 -164 258 -164 221 -161 c 128,-1,79
 184 -158 184 -158 159 -155 c 128,-1,80
 134 -152 134 -152 129 -150 c 0,0,1
EndSplineSet
EndChar

StartChar: bar
Encoding: 124 124 95
Width: 182
Flags: W
LayerCount: 2
Fore
SplineSet
87 764 m 2,0,1
 88 779 88 779 98 782.5 c 128,-1,2
 108 786 108 786 118.5 777 c 128,-1,3
 129 768 129 768 136 747.5 c 128,-1,4
 143 727 143 727 139 694 c 0,5,6
 137 681 137 681 132 641 c 128,-1,7
 127 601 127 601 119.5 547.5 c 128,-1,8
 112 494 112 494 104 433.5 c 128,-1,9
 96 373 96 373 89 319.5 c 128,-1,10
 82 266 82 266 76.5 226 c 128,-1,11
 71 186 71 186 70 173 c 0,12,13
 69 165 69 165 68.5 145.5 c 128,-1,14
 68 126 68 126 68 104 c 128,-1,15
 68 82 68 82 68.5 62 c 128,-1,16
 69 42 69 42 70 35 c 1,17,18
 68 32 68 32 62.5 24.5 c 128,-1,19
 57 17 57 17 49.5 10.5 c 128,-1,20
 42 4 42 4 33.5 0 c 128,-1,21
 25 -4 25 -4 17 0 c 0,22,23
 13 2 13 2 6.5 8.5 c 128,-1,24
 0 15 0 15 0 17 c 2,25,-1
 87 764 l 2,0,1
EndSplineSet
EndChar

StartChar: braceright
Encoding: 125 125 96
Width: 529
Flags: W
LayerCount: 2
Fore
SplineSet
82 -218 m 0,0,1
 72 -198 72 -198 86 -185 c 128,-1,2
 100 -172 100 -172 129 -161.5 c 128,-1,3
 158 -151 158 -151 196.5 -142 c 128,-1,4
 235 -133 235 -133 274.5 -121.5 c 128,-1,5
 314 -110 314 -110 349.5 -94 c 128,-1,6
 385 -78 385 -78 407.5 -54 c 128,-1,7
 430 -30 430 -30 434 3.5 c 128,-1,8
 438 37 438 37 415 84 c 128,-1,9
 392 131 392 131 337 193.5 c 128,-1,10
 282 256 282 256 185 337 c 1,11,12
 171 370 171 370 172.5 399 c 128,-1,13
 174 428 174 428 187 453.5 c 128,-1,14
 200 479 200 479 222 502 c 128,-1,15
 244 525 244 525 272 546 c 1,16,-1
 99 581 l 2,17,18
 81 584 81 584 73 600 c 128,-1,19
 65 616 65 616 64 635 c 128,-1,20
 63 654 63 654 68.5 673 c 128,-1,21
 74 692 74 692 82 701 c 1,22,23
 224 797 224 797 295 861.5 c 128,-1,24
 366 926 366 926 360.5 969 c 128,-1,25
 355 1012 355 1012 269.5 1038 c 128,-1,26
 184 1064 184 1064 12 1083 c 1,27,28
 7 1094 7 1094 30 1102.5 c 128,-1,29
 53 1111 53 1111 92 1114.5 c 128,-1,30
 131 1118 131 1118 180.5 1115.5 c 128,-1,31
 230 1113 230 1113 276.5 1102 c 128,-1,32
 323 1091 323 1091 360.5 1071 c 128,-1,33
 398 1051 398 1051 415 1019.5 c 128,-1,34
 432 988 432 988 421 944 c 128,-1,35
 410 900 410 900 359 841 c 1,36,37
 351 835 351 835 335 822.5 c 128,-1,38
 319 810 319 810 298.5 795 c 128,-1,39
 278 780 278 780 255.5 762.5 c 128,-1,40
 233 745 233 745 212.5 730 c 128,-1,41
 192 715 192 715 175.5 702.5 c 128,-1,42
 159 690 159 690 152 684 c 0,43,44
 129 666 129 666 134 653 c 128,-1,45
 139 640 139 640 169 632 c 0,46,47
 246 612 246 612 323 611 c 128,-1,48
 400 610 400 610 481 615 c 1,49,50
 491 595 491 595 480.5 579.5 c 128,-1,51
 470 564 470 564 447.5 550.5 c 128,-1,52
 425 537 425 537 394.5 524.5 c 128,-1,53
 364 512 364 512 334 499 c 128,-1,54
 304 486 304 486 277.5 472 c 128,-1,55
 251 458 251 458 237.5 440.5 c 128,-1,56
 224 423 224 423 226 402 c 128,-1,57
 228 381 228 381 255 354 c 2,58,-1
 481 129 l 2,59,60
 511 99 511 99 512 64 c 128,-1,61
 513 29 513 29 493.5 -6.5 c 128,-1,62
 474 -42 474 -42 438 -76.5 c 128,-1,63
 402 -111 402 -111 359.5 -140.5 c 128,-1,64
 317 -170 317 -170 271.5 -192.5 c 128,-1,65
 226 -215 226 -215 187 -226.5 c 128,-1,66
 148 -238 148 -238 119.5 -237 c 128,-1,67
 91 -236 91 -236 82 -218 c 0,0,1
EndSplineSet
EndChar

StartChar: asciitilde
Encoding: 126 126 97
Width: 711
Flags: W
LayerCount: 2
Fore
SplineSet
91 721 m 1,0,1
 118 774 118 774 147.5 795.5 c 128,-1,2
 177 817 177 817 208.5 819 c 128,-1,3
 240 821 240 821 272.5 809.5 c 128,-1,4
 305 798 305 798 338 785 c 128,-1,5
 371 772 371 772 403.5 764.5 c 128,-1,6
 436 757 436 757 467 766 c 1,7,8
 479 775 479 775 499.5 795 c 128,-1,9
 520 815 520 815 542 836 c 128,-1,10
 564 857 564 857 584 873.5 c 128,-1,11
 604 890 604 890 616 892 c 128,-1,12
 628 894 628 894 627.5 876 c 128,-1,13
 627 858 627 858 608 810 c 1,14,15
 579 780 579 780 548 756 c 128,-1,16
 517 732 517 732 484.5 716.5 c 128,-1,17
 452 701 452 701 419.5 695.5 c 128,-1,18
 387 690 387 690 354 698 c 0,19,20
 332 704 332 704 302.5 720 c 128,-1,21
 273 736 273 736 242.5 745 c 128,-1,22
 212 754 212 754 182.5 746.5 c 128,-1,23
 153 739 153 739 132 698 c 1,24,-1
 91 721 l 1,0,1
EndSplineSet
EndChar

StartChar: cent
Encoding: 162 162 100
Width: 520
Flags: W
LayerCount: 2
Fore
SplineSet
260 651 m 2,0,1
 261 666 261 666 271.5 676.5 c 128,-1,2
 282 687 282 687 293.5 687 c 128,-1,3
 305 687 305 687 312.5 673.5 c 128,-1,4
 320 660 320 660 316 627 c 0,5,6
 314 614 314 614 309.5 578.5 c 128,-1,7
 305 543 305 543 298 497 c 0,8,9
 295 477 295 477 292 456 c 1,10,11
 302 441 302 441 310 428 c 0,12,13
 323 408 323 408 331.5 392 c 128,-1,14
 340 376 340 376 341 369 c 0,15,16
 343 356 343 356 343.5 342.5 c 128,-1,17
 344 329 344 329 339.5 319 c 128,-1,18
 335 309 335 309 325 304.5 c 128,-1,19
 315 300 315 300 296 306 c 1,20,21
 295 313 295 313 277 336 c 1,22,-1
 276 338 l 1,23,24
 274 319 274 319 271 302 c 0,25,26
 265 256 265 256 260.5 221 c 128,-1,27
 256 186 256 186 255 173 c 0,28,29
 254 168 254 168 252 148 c 128,-1,30
 250 128 250 128 247 101 c 0,31,32
 246 85 246 85 244 67 c 1,33,34
 287 81 287 81 342 117 c 0,35,36
 412 164 412 164 504 260 c 1,37,-1
 504 225 l 2,38,39
 504 222 504 222 492 207 c 128,-1,40
 480 192 480 192 463 172.5 c 128,-1,41
 446 153 446 153 428.5 134 c 128,-1,42
 411 115 411 115 399 104 c 0,43,44
 366 73 366 73 328.5 47 c 128,-1,45
 291 21 291 21 251 8 c 0,46,47
 244 6 244 6 238 4 c 1,48,49
 237 -5 237 -5 237 -15 c 0,50,51
 235 -42 235 -42 233.5 -62 c 128,-1,52
 232 -82 232 -82 233 -87 c 1,53,-1
 226 -97 l 2,54,55
 221 -105 221 -105 213.5 -111.5 c 128,-1,56
 206 -118 206 -118 197.5 -122 c 128,-1,57
 189 -126 189 -126 181 -122 c 0,58,59
 177 -120 177 -120 170.5 -113.5 c 128,-1,60
 164 -107 164 -107 164 -104 c 2,61,-1
 177 -1 l 1,62,63
 173 -1 173 -1 169 0 c 0,64,65
 128 4 128 4 87 35 c 0,66,67
 50 63 50 63 33.5 102.5 c 128,-1,68
 17 142 17 142 15.5 188.5 c 128,-1,69
 14 235 14 235 25.5 284 c 128,-1,70
 37 333 37 333 56 379 c 128,-1,71
 75 425 75 425 98.5 464.5 c 128,-1,72
 122 504 122 504 146 531.5 c 128,-1,73
 170 559 170 559 191 570.5 c 128,-1,74
 212 582 212 582 225 572 c 1,75,76
 227 565 227 565 235 549 c 0,77,78
 240 541 240 541 245 531 c 1,79,-1
 260 651 l 2,0,1
201 437 m 0,80,81
 183 460 183 460 181 467 c 1,82,83
 145 447 145 447 119.5 406 c 128,-1,84
 94 365 94 365 81.5 316.5 c 128,-1,85
 69 268 69 268 70 218.5 c 128,-1,86
 71 169 71 169 87.5 130.5 c 128,-1,87
 104 92 104 92 137 71 c 0,88,89
 157 59 157 59 184 57 c 1,90,-1
 228 401 l 1,91,92
 214 420 214 420 201 437 c 0,80,81
EndSplineSet
EndChar

StartChar: sterling
Encoding: 163 163 101
Width: 770
Flags: W
LayerCount: 2
Fore
SplineSet
14 414 m 0,0,1
 10 422 10 422 13 428 c 128,-1,2
 16 434 16 434 22 438.5 c 128,-1,3
 28 443 28 443 35.5 445.5 c 128,-1,4
 43 448 43 448 49 449 c 0,5,6
 62 452 62 452 90 457 c 0,7,8
 107 460 107 460 126 464 c 1,9,10
 128 534 128 534 132 588 c 0,11,12
 140 680 140 680 157.5 730 c 128,-1,13
 175 780 175 780 201.5 800 c 128,-1,14
 228 820 228 820 265 815.5 c 128,-1,15
 302 811 302 811 350 794 c 0,16,17
 409 773 409 773 424 759 c 128,-1,18
 439 745 439 745 426.5 736.5 c 128,-1,19
 414 728 414 728 382.5 724.5 c 128,-1,20
 351 721 351 721 316.5 720.5 c 128,-1,21
 282 720 282 720 252.5 722.5 c 128,-1,22
 223 725 223 725 216 728 c 1,23,-1
 216 480 l 1,24,25
 221 481 221 481 230 483 c 0,26,27
 270 491 270 491 306.5 498 c 128,-1,28
 343 505 343 505 371.5 510 c 128,-1,29
 400 515 400 515 414 518 c 0,30,31
 437 522 437 522 443 514 c 128,-1,32
 449 506 449 506 445.5 493.5 c 128,-1,33
 442 481 442 481 432.5 468 c 128,-1,34
 423 455 423 455 414 449 c 1,35,36
 385 453 385 453 345.5 448 c 128,-1,37
 306 443 306 443 264 434 c 2,38,-1
 210 422 l 1,39,-1
 210 157 l 1,40,41
 218 172 218 172 247.5 169 c 128,-1,42
 277 166 277 166 318 155.5 c 128,-1,43
 359 145 359 145 407.5 130.5 c 128,-1,44
 456 116 456 116 505.5 107.5 c 128,-1,45
 555 99 555 99 602.5 102 c 128,-1,46
 650 105 650 105 689 128 c 0,47,48
 726 150 726 150 739.5 150.5 c 128,-1,49
 753 151 753 151 749 138 c 128,-1,50
 745 125 745 125 725.5 104 c 128,-1,51
 706 83 706 83 676.5 62 c 128,-1,52
 647 41 647 41 610 25 c 128,-1,53
 573 9 573 9 534 7 c 0,54,55
 524 6 524 6 502.5 14.5 c 128,-1,56
 481 23 481 23 453.5 35.5 c 128,-1,57
 426 48 426 48 396 63 c 128,-1,58
 366 78 366 78 338.5 91 c 128,-1,59
 311 104 311 104 289.5 112.5 c 128,-1,60
 268 121 268 121 258 122 c 1,61,62
 246 113 246 113 233.5 91.5 c 128,-1,63
 221 70 221 70 206.5 50 c 128,-1,64
 192 30 192 30 175 18 c 128,-1,65
 158 6 158 6 136 17 c 1,66,67
 127 216 127 216 126 356 c 1,68,-1
 126 403 l 1,69,70
 115 401 115 401 104 400 c 0,71,72
 70 395 70 395 45.5 397 c 128,-1,73
 21 399 21 399 14 414 c 0,0,1
EndSplineSet
EndChar

StartChar: currency
Encoding: 164 164 102
Width: 665
Flags: W
LayerCount: 2
Fore
SplineSet
169 310 m 1,0,1
 168 322 168 322 170 340.5 c 128,-1,2
 172 359 172 359 177.5 379 c 128,-1,3
 183 399 183 399 193 413 c 1,4,-1
 78 579 l 1,5,6
 84 613 84 613 99.5 626 c 128,-1,7
 115 639 115 639 130 638.5 c 128,-1,8
 145 638 145 638 156 626 c 128,-1,9
 167 614 167 614 164 598 c 0,10,11
 159 576 159 576 166.5 558.5 c 128,-1,12
 174 541 174 541 186.5 524 c 128,-1,13
 199 507 199 507 212 488.5 c 128,-1,14
 225 470 225 470 231 446 c 1,15,16
 267 487 267 487 296 509.5 c 128,-1,17
 325 532 325 532 349.5 542 c 128,-1,18
 374 552 374 552 396 551.5 c 128,-1,19
 418 551 418 551 441 547 c 0,20,21
 444 547 444 547 455 559.5 c 128,-1,22
 466 572 466 572 479.5 590.5 c 128,-1,23
 493 609 493 609 507 629 c 128,-1,24
 521 649 521 649 530 664 c 0,25,26
 540 680 540 680 556 687 c 128,-1,27
 572 694 572 694 584.5 690 c 128,-1,28
 597 686 597 686 603 670 c 128,-1,29
 609 654 609 654 600 625 c 0,30,31
 597 615 597 615 579 605 c 128,-1,32
 561 595 561 595 541 583 c 128,-1,33
 521 571 521 571 505.5 556.5 c 128,-1,34
 490 542 490 542 492 524 c 0,35,36
 493 508 493 508 504 482.5 c 128,-1,37
 515 457 515 457 521 427 c 128,-1,38
 527 397 527 397 520 365 c 128,-1,39
 513 333 513 333 479 304 c 0,40,41
 477 302 477 302 490 291.5 c 128,-1,42
 503 281 503 281 522 266 c 128,-1,43
 541 251 541 251 560.5 234 c 128,-1,44
 580 217 580 217 591 201 c 0,45,46
 622 156 622 156 627 137.5 c 128,-1,47
 632 119 632 119 620.5 120 c 128,-1,48
 609 121 609 121 586.5 138 c 128,-1,49
 564 155 564 155 539 179 c 0,50,51
 534 183 534 183 518 199.5 c 128,-1,52
 502 216 502 216 483.5 232.5 c 128,-1,53
 465 249 465 249 448.5 259.5 c 128,-1,54
 432 270 432 270 427 263 c 0,55,56
 396 223 396 223 372.5 205.5 c 128,-1,57
 349 188 349 188 331 185 c 128,-1,58
 313 182 313 182 299.5 190.5 c 128,-1,59
 286 199 286 199 273 212 c 2,60,-1
 248 238 l 2,61,62
 236 251 236 251 221 258 c 0,63,64
 210 263 210 263 196 251.5 c 128,-1,65
 182 240 182 240 166.5 219.5 c 128,-1,66
 151 199 151 199 135.5 174.5 c 128,-1,67
 120 150 120 150 106.5 128.5 c 128,-1,68
 93 107 93 107 82.5 92.5 c 128,-1,69
 72 78 72 78 67 79 c 0,70,71
 65 79 65 79 58 83.5 c 128,-1,72
 51 88 51 88 43 94 c 128,-1,73
 35 100 35 100 28.5 105.5 c 128,-1,74
 22 111 22 111 22 113 c 1,75,-1
 175 300 l 1,76,77
 171 299 171 299 169 310 c 1,0,1
253 411 m 1,78,79
 235 395 235 395 240.5 368.5 c 128,-1,80
 246 342 246 342 262 317 c 128,-1,81
 278 292 278 292 298.5 275.5 c 128,-1,82
 319 259 319 259 332 263 c 0,83,84
 385 280 385 280 415.5 314.5 c 128,-1,85
 446 349 446 349 456 385.5 c 128,-1,86
 466 422 466 422 456.5 453 c 128,-1,87
 447 484 447 484 421 495 c 128,-1,88
 395 506 395 506 352 488.5 c 128,-1,89
 309 471 309 471 253 411 c 1,78,79
EndSplineSet
EndChar

StartChar: yen
Encoding: 165 165 103
Width: 427
Flags: W
LayerCount: 2
Fore
SplineSet
47 271 m 1,0,1
 28 266 28 266 26 275 c 128,-1,2
 24 284 24 284 29 296 c 128,-1,3
 34 308 34 308 41.5 319.5 c 128,-1,4
 49 331 49 331 50 331 c 0,5,6
 109 345 109 345 144.5 354 c 128,-1,7
 180 363 180 363 204 367 c 1,8,-1
 204 402 l 2,9,10
 204 415 204 415 203.5 422.5 c 128,-1,11
 203 430 203 430 202.5 434 c 128,-1,12
 202 438 202 438 200 443 c 256,13,14
 198 448 198 448 185.5 467.5 c 128,-1,15
 173 487 173 487 156 513 c 128,-1,16
 139 539 139 539 119 568.5 c 128,-1,17
 99 598 99 598 81.5 623.5 c 128,-1,18
 64 649 64 649 51.5 668 c 128,-1,19
 39 687 39 687 36 692 c 1,20,21
 39 703 39 703 49 708 c 128,-1,22
 59 713 59 713 70 712.5 c 128,-1,23
 81 712 81 712 91.5 707 c 128,-1,24
 102 702 102 702 106 692 c 1,25,-1
 230 533 l 1,26,-1
 338 754 l 1,27,-1
 343 761 l 2,28,29
 349 769 349 769 356.5 776.5 c 128,-1,30
 364 784 364 784 373 789 c 128,-1,31
 382 794 382 794 390 789 c 1,32,33
 392 785 392 785 392 771.5 c 128,-1,34
 392 758 392 758 390 754 c 0,35,36
 388 749 388 749 378.5 724.5 c 128,-1,37
 369 700 369 700 355.5 666.5 c 128,-1,38
 342 633 342 633 326 594 c 128,-1,39
 310 555 310 555 296.5 521 c 128,-1,40
 283 487 283 487 273.5 462.5 c 128,-1,41
 264 438 264 438 263 433 c 0,42,43
 262 425 262 425 261 421 c 128,-1,44
 260 417 260 417 259 411.5 c 128,-1,45
 258 406 258 406 257.5 397.5 c 128,-1,46
 257 389 257 389 258 372 c 1,47,48
 270 372 270 372 283 370.5 c 128,-1,49
 296 369 296 369 314 367.5 c 128,-1,50
 332 366 332 366 355.5 364.5 c 128,-1,51
 379 363 379 363 411 361 c 1,52,53
 415 348 415 348 412 331 c 128,-1,54
 409 314 409 314 393 309 c 1,55,56
 344 315 344 315 313 317.5 c 128,-1,57
 282 320 282 320 260 318 c 1,58,-1
 260 288 l 2,59,60
 260 283 260 283 260.5 276.5 c 128,-1,61
 261 270 261 270 261 257 c 1,62,63
 269 258 269 258 278 259 c 128,-1,64
 287 260 287 260 297 261 c 2,65,-1
 425 271 l 1,66,67
 432 260 432 260 431 251 c 128,-1,68
 430 242 430 242 424 235.5 c 128,-1,69
 418 229 418 229 409.5 225.5 c 128,-1,70
 401 222 401 222 392 222 c 1,71,-1
 265 197 l 1,72,73
 267 150 267 150 269 112.5 c 128,-1,74
 271 75 271 75 272.5 49 c 128,-1,75
 274 23 274 23 274.5 11 c 128,-1,76
 275 -1 275 -1 274 4 c 1,77,78
 259 1 259 1 253 -3 c 128,-1,79
 247 -7 247 -7 243 -9.5 c 128,-1,80
 239 -12 239 -12 232.5 -12 c 128,-1,81
 226 -12 226 -12 209 -7 c 1,82,83
 204 10 204 10 202.5 58 c 128,-1,84
 201 106 201 106 201 184 c 1,85,-1
 100 165 l 2,86,87
 83 162 83 162 69.5 163.5 c 128,-1,88
 56 165 56 165 48 182 c 0,89,90
 45 187 45 187 47.5 195 c 128,-1,91
 50 203 50 203 65 212.5 c 128,-1,92
 80 222 80 222 112 231.5 c 128,-1,93
 144 241 144 241 201 250 c 1,94,-1
 204 309 l 1,95,96
 192 306 192 306 178 301.5 c 128,-1,97
 164 297 164 297 146 292 c 128,-1,98
 128 287 128 287 104 282 c 128,-1,99
 80 277 80 277 47 271 c 1,0,1
EndSplineSet
EndChar

StartChar: brokenbar
Encoding: 166 166 104
Width: 108
Flags: W
LayerCount: 2
Fore
SplineSet
17 422 m 1,0,-1
 17 714 l 1,1,2
 16 724 16 724 25.5 727 c 128,-1,3
 35 730 35 730 46.5 729.5 c 128,-1,4
 58 729 58 729 67.5 726.5 c 128,-1,5
 77 724 77 724 78 724 c 1,6,-1
 78 426 l 1,7,-1
 17 422 l 1,0,-1
78 383 m 1,8,-1
 78 19 l 1,9,-1
 27 12 l 1,10,11
 25 16 25 16 23.5 37.5 c 128,-1,12
 22 59 22 59 20.5 103.5 c 128,-1,13
 19 148 19 148 18.5 216 c 128,-1,14
 18 284 18 284 19 381 c 1,15,-1
 78 383 l 1,8,-1
EndSplineSet
EndChar

StartChar: section
Encoding: 167 167 105
Width: 313
Flags: W
LayerCount: 2
Fore
SplineSet
81 230 m 0,0,1
 35 268 35 268 24 300 c 128,-1,2
 13 332 13 332 24 356 c 128,-1,3
 35 380 35 380 64 394.5 c 128,-1,4
 93 409 93 409 127 411.5 c 128,-1,5
 161 414 161 414 195.5 403.5 c 128,-1,6
 230 393 230 393 254 368 c 1,7,8
 244 390 244 390 223 405.5 c 128,-1,9
 202 421 202 421 177 433 c 128,-1,10
 152 445 152 445 126.5 455.5 c 128,-1,11
 101 466 101 466 80.5 478.5 c 128,-1,12
 60 491 60 491 48 508 c 128,-1,13
 36 525 36 525 39 550 c 1,14,15
 40 580 40 580 53.5 599 c 128,-1,16
 67 618 67 618 86.5 627 c 128,-1,17
 106 636 106 636 129 636 c 128,-1,18
 152 636 152 636 174 627.5 c 128,-1,19
 196 619 196 619 213 602.5 c 128,-1,20
 230 586 230 586 238 563 c 0,21,22
 238 560 238 560 232.5 549 c 128,-1,23
 227 538 227 538 225 535 c 1,24,25
 211 548 211 548 191.5 561.5 c 128,-1,26
 172 575 172 575 152.5 580.5 c 128,-1,27
 133 586 133 586 115.5 579 c 128,-1,28
 98 572 98 572 89 545 c 0,29,30
 87 536 87 536 101.5 525 c 128,-1,31
 116 514 116 514 139.5 501.5 c 128,-1,32
 163 489 163 489 191 474 c 128,-1,33
 219 459 219 459 243.5 440.5 c 128,-1,34
 268 422 268 422 284.5 400.5 c 128,-1,35
 301 379 301 379 302.5 353.5 c 128,-1,36
 304 328 304 328 285.5 297.5 c 128,-1,37
 267 267 267 267 221 232 c 0,38,39
 216 229 216 229 205.5 228 c 128,-1,40
 195 227 195 227 191 224 c 1,41,42
 228 205 228 205 246 176 c 128,-1,43
 264 147 264 147 265.5 116.5 c 128,-1,44
 267 86 267 86 253.5 59 c 128,-1,45
 240 32 240 32 214 17 c 128,-1,46
 188 2 188 2 151 3 c 128,-1,47
 114 4 114 4 69 30 c 0,48,49
 56 37 56 37 49 51.5 c 128,-1,50
 42 66 42 66 39.5 83 c 128,-1,51
 37 100 37 100 38.5 116.5 c 128,-1,52
 40 133 40 133 44 144.5 c 128,-1,53
 48 156 48 156 54.5 160.5 c 128,-1,54
 61 165 61 165 68 157 c 1,55,56
 63 120 63 120 75.5 97.5 c 128,-1,57
 88 75 88 75 108 65 c 128,-1,58
 128 55 128 55 151 56.5 c 128,-1,59
 174 58 174 58 191.5 69 c 128,-1,60
 209 80 209 80 216 100 c 128,-1,61
 223 120 223 120 211 147 c 1,62,63
 195 166 195 166 180 181 c 128,-1,64
 165 196 165 196 145 214 c 1,65,66
 131 214 131 214 111.5 217.5 c 128,-1,67
 92 221 92 221 81 230 c 0,0,1
93 349 m 1,68,69
 79 333 79 333 77.5 318 c 128,-1,70
 76 303 76 303 86 291 c 128,-1,71
 96 279 96 279 117 271 c 128,-1,72
 138 263 138 263 170 262 c 1,73,74
 185 257 185 257 202 271.5 c 128,-1,75
 219 286 219 286 241 319 c 1,76,77
 232 328 232 328 215 340.5 c 128,-1,78
 198 353 198 353 177 361 c 128,-1,79
 156 369 156 369 134 368 c 128,-1,80
 112 367 112 367 93 349 c 1,68,69
EndSplineSet
EndChar

StartChar: dieresis
Encoding: 168 168 106
Width: 432
Flags: W
LayerCount: 2
Fore
SplineSet
138 551 m 1,0,1
 130 562 130 562 139 579.5 c 128,-1,2
 148 597 148 597 163.5 608.5 c 128,-1,3
 179 620 179 620 197 619.5 c 128,-1,4
 215 619 215 619 224 594 c 0,5,6
 234 567 234 567 225.5 547.5 c 128,-1,7
 217 528 217 528 200.5 520.5 c 128,-1,8
 184 513 184 513 165.5 520 c 128,-1,9
 147 527 147 527 138 551 c 1,0,1
305 567 m 0,10,11
 296 585 296 585 305 603.5 c 128,-1,12
 314 622 314 622 330 631 c 128,-1,13
 346 640 346 640 363.5 633.5 c 128,-1,14
 381 627 381 627 389 594 c 0,15,16
 395 570 395 570 386.5 555.5 c 128,-1,17
 378 541 378 541 363 537 c 128,-1,18
 348 533 348 533 331.5 540 c 128,-1,19
 315 547 315 547 305 567 c 0,10,11
EndSplineSet
EndChar

